<mxfile host="app.diagrams.net" modified="2022-01-17T14:24:22.631Z" agent="5.0 (Macintosh; Intel Mac OS X 10_15_7) AppleWebKit/537.36 (KHTML, like Gecko) Chrome/97.0.4692.71 Safari/537.36" etag="XYHPRVrL9-K1iDNvrZ0K" version="16.2.7" type="github">
  <diagram id="SYNfuliwYrhQGHZFOaT_" name="Page-1">
    <mxGraphModel dx="2063" dy="716" grid="1" gridSize="10" guides="1" tooltips="1" connect="1" arrows="1" fold="1" page="1" pageScale="1" pageWidth="827" pageHeight="1169" math="0" shadow="0">
      <root>
        <mxCell id="0" />
        <mxCell id="1" parent="0" />
        <mxCell id="C8oowRiF8RS0OOutvdNS-2" value="" style="shape=image;verticalLabelPosition=bottom;labelBackgroundColor=default;verticalAlign=top;aspect=fixed;imageAspect=0;image=data:image/png,iVBORw0KGgoAAAANSUhEUgAABGYAAAGqCAYAAABJW0KbAAAEDmlDQ1BrQ0dDb2xvclNwYWNlR2VuZXJpY1JHQgAAOI2NVV1oHFUUPpu5syskzoPUpqaSDv41lLRsUtGE2uj+ZbNt3CyTbLRBkMns3Z1pJjPj/KRpKT4UQRDBqOCT4P9bwSchaqvtiy2itFCiBIMo+ND6R6HSFwnruTOzu5O4a73L3PnmnO9+595z7t4LkLgsW5beJQIsGq4t5dPis8fmxMQ6dMF90A190C0rjpUqlSYBG+PCv9rt7yDG3tf2t/f/Z+uuUEcBiN2F2Kw4yiLiZQD+FcWyXYAEQfvICddi+AnEO2ycIOISw7UAVxieD/Cyz5mRMohfRSwoqoz+xNuIB+cj9loEB3Pw2448NaitKSLLRck2q5pOI9O9g/t/tkXda8Tbg0+PszB9FN8DuPaXKnKW4YcQn1Xk3HSIry5ps8UQ/2W5aQnxIwBdu7yFcgrxPsRjVXu8HOh0qao30cArp9SZZxDfg3h1wTzKxu5E/LUxX5wKdX5SnAzmDx4A4OIqLbB69yMesE1pKojLjVdoNsfyiPi45hZmAn3uLWdpOtfQOaVmikEs7ovj8hFWpz7EV6mel0L9Xy23FMYlPYZenAx0yDB1/PX6dledmQjikjkXCxqMJS9WtfFCyH9XtSekEF+2dH+P4tzITduTygGfv58a5VCTH5PtXD7EFZiNyUDBhHnsFTBgE0SQIA9pfFtgo6cKGuhooeilaKH41eDs38Ip+f4At1Rq/sjr6NEwQqb/I/DQqsLvaFUjvAx+eWirddAJZnAj1DFJL0mSg/gcIpPkMBkhoyCSJ8lTZIxk0TpKDjXHliJzZPO50dR5ASNSnzeLvIvod0HG/mdkmOC0z8VKnzcQ2M/Yz2vKldduXjp9bleLu0ZWn7vWc+l0JGcaai10yNrUnXLP/8Jf59ewX+c3Wgz+B34Df+vbVrc16zTMVgp9um9bxEfzPU5kPqUtVWxhs6OiWTVW+gIfywB9uXi7CGcGW/zk98k/kmvJ95IfJn/j3uQ+4c5zn3Kfcd+AyF3gLnJfcl9xH3OfR2rUee80a+6vo7EK5mmXUdyfQlrYLTwoZIU9wsPCZEtP6BWGhAlhL3p2N6sTjRdduwbHsG9kq32sgBepc+xurLPW4T9URpYGJ3ym4+8zA05u44QjST8ZIoVtu3qE7fWmdn5LPdqvgcZz8Ww8BWJ8X3w0PhQ/wnCDGd+LvlHs8dRy6bLLDuKMaZ20tZrqisPJ5ONiCq8yKhYM5cCgKOu66Lsc0aYOtZdo5QCwezI4wm9J/v0X23mlZXOfBjj8Jzv3WrY5D+CsA9D7aMs2gGfjve8ArD6mePZSeCfEYt8CONWDw8FXTxrPqx/r9Vt4biXeANh8vV7/+/16ffMD1N8AuKD/A/8leAvFY9bLAAAAOGVYSWZNTQAqAAAACAABh2kABAAAAAEAAAAaAAAAAAACoAIABAAAAAEAAARmoAMABAAAAAEAAAGqAAAAAE6ePqUAAEAASURBVHgB7J0HnFTV1cDPAlvYpbeld1CagCCCaEQwGuxobDGWWGJNsUeNn7FEYokxthhN7EZjQbGLHXtEUHrvvcMuu7D1e+ctd/bO2zezs8vszM7M//Ib7rnnntv+7+28987ce1+axD+k1XEX6rr+Ou4+1UMAAhCAAAQgAAEIQAACEIAABFKaQHkdj76u6w/b/Xg4LaLVZrTqCQuITAhAAAIQgAAEIAABCEAAAhCAAAQSgkC0HCzRqiciaLFybuxLO/tSNiIIYYzi2XaYbpEFAQhAAAIQgAAEIAABCEAAAhBIKAIxdXZ4yOxL2/tS1tMN/2RdOh5qW3dty/mNMJp1+dWPDgIQgAAEIAABCEAAAhCAAAQgAIG6JxBNB0lt66ptubB06sJxUdM6a2rvHVBty9e2nLd90hCAAAQgAAEIQAACEIAABCAAAQjsO4HaOj5qW870uKbla2pv2vGNo+mcqEldNbG1Ox5JuUhs7DqRIQABCEAAAhCAAAQgAAEIQAACEEgcApE4RiKx8RtxTcrVxNavLVcXDSdGTeqoia12sDr76vJDDjyCusOVJQ8CEIAABCAAAQhAAAIQgAAEIACB6BLYF0dHdWWry/eOpCb2NbH1tlOt46NKAY8iUsdIpHZafSjbUHpPl9xkXdn6tYUOAhCAAAQgAAEIQAACEIAABCAAgdoTqIljIxq20ajDO9qa1BlUtiYODLtgpOX21S6S8uFswuXZ46mJXBd11qR9bCEAAQhAAAIQgAAEIAABCEAAAvWZQK2dFGEGFa7OcHmmylA2ofSmnImjbWfqDTk7JWDgI0TimIjERqv2s/PT2d3wy/fT2WVsuSa20Shn14EMAQhAAAIQgAAEIAABCEAAAhBIFQKROjO8PGpSzs/WT2e34Zfvp7PLGDkSu0hsTH2+jpFApo8QiVOjNjbhyvjl+ens7obLD5dn14EMAQhAAAIQgAAEIAABCEAAAhCAQOwJhHNshMvTnvrl++nMqLx53rSxs+No2bh11sRJUZ1tdfnaoNfGm7YH6s3zpo2tn95PZ+ztOFI7uwwyBCAAAQhAAAIQgAAEIAABCEAAAtElEImzQ1v0s/PT+dmGsquprdprCFdfJPluJZE6Jqqzq2l+KHuv3pvWTkeqcwcYwj5UPaYMMQQgAAEIQAACEIAABCAAAQhAAAKxJRDK0RFKr73zy4tE52fjV18oO0NmX/N9nRymchP7OUJMnsbh8v3yqtNVlx+uTW9Zb9rut5EjsamNrSlDDAEIQAACEIAABCAAAQhAAAIQSDUC1TksbB6R2HptvGlTn1fvTaudrbPlUHV4yxg7E/vVYfKqKxvWqWIqCee4qEmen62ts2W/tmuTr/X4lQunN22Hi0PVGa4MeRCAAAQgAAEIQAACEIAABCAAgWQnUJ2TItz4Q5WNRO9nY+ts2fTB1tmyX77q/GxC2Rp9deVCOi1MBeEcEDXJ89raaVv2thsuT229+dWlTf1+Ze28SPK99qQhAAEIQAACEIAABCAAAQhAAAIQCE0gnGNDS4XL9+aFS3vz7LrD5dl2Kmvw2nvTFVYV/9cqz+vIsCuMRp5fHbbOlrVtkzax6Y+dtmW7jFf2KxvKxtia2NuG0RNDAAIQgAAEIAABCEAAAhCAAAQgUHsC4ZwXplavjTetdrbOliPNq0mZ6urUfBO89Rq9xr554RwQofJC6bURO8+WI80LVaamem97mjbBW5fq/XTGnhgCEIAABCAAAQhAAAIQgAAEIACBuiHg56zw02nrtt6W7bxo6e06VdZg123LFbmV/4fK89WHckjUVK/N22VsOVyesTOxGYZJm9iuw9aF09t5XlnTJnjrM3qNw+XZdsgQgAAEIAABCEAAAhCAAAQgAAEIhCbg65TYax4qz9bbsmnF6EwcTm9sTByJrdqEsvfLM3WGy/PWF9LxEMohEYnea2PSJjYdNWkTq97IJq6JLpSt6jX41VmRU/V/27ZqLhoIQAACEIAABCAAAQhAAAIQgAAEakOgimPCU4mdb8vGzOhMHE5vbEystkY2cShdJHrbRmU72PWH1fs5IPx0Wkkkeq+NSZvYrqemOmNv4lB12XqvHElabbzBbtObRxoCEIAABCAAAQhAAAIQgAAEIAABfwKhHBS2tdcmXDpUnq03cqhY2/bm1URn23plTZtg2jBpEwfp/RwOkeq0QtvWlu08W29kExs7b9ro/eLa6OwyKptgt6s6b9rYEUMAAhCAAAQgAAEIQAACEIAABCAQPQJBzgmnWm9aW7J1fnJNdcbexKYNb9roNdZg8k1coa3U2zYmz8TeMlVsvY4Ib9pU5Ke3dbasZUzaxH46k1fbOFyddl44WfM0mD5UpCr+99PZ+cgQgAAEIAABCEAAAhCAAAQgAAEIRE6gWifF3qpsu+pkk29ircLI0Yr96tzb1UBbto3JC6UL0nudD960Glen8+abtIlNHd600ZvYm2/SNY1NfXassgZTl1d2Mz35RhfK1s5HhgAEIAABCEAAAhCAAAQgAAEIQKAqAeMc8eb46W2dLWtZkzaxn87khYtNnilv0t7Ym2/SdqyyBlPWK7uZnvwqukZGU8vYdnRoFSZtYqOLNG3s7NiWTX0mNnkmHS7WPA1+ZSpyKv+3bSq1wWVtPTIEIAABCEAAAhCAAAQgAAEIQAAClQSMs8L7fB1Ob2zVxshao0nbcWVLFbamXltvy6as0dlpW9Z8U5fpg502tkan9mpnp1UXcTCNaAFbNhVUp7PzjWxiU2eotNHbcSjZ1GVi287o/OLqdHa+ynYwbdg6W64u37ZFhgAEIAABCEAAAhCAAAQgAAEIJDuB6pwTofJtvZ8cTmfy7NiWlbmdDiWHsjN6U86k7TicrHka7PIVmr0627lgy8bIq7PTfrJXFypt9Brbsrbr1dn5oWRTzi+uTmfnq2wH056tQ4YABCAAAQhAAAIQgAAEIAABCECgZgT8HBNag633k8PpTJ4d11Q2fbDLeXWh0kavsQZTh1f2Swd0ZimTnwPCT6cFIwnespo2urqStV92G35pWxdO1jwTTJ0mTQwBCEAAAhCAAAQgAAEIQAACEIBA5ATUYeH3bG3rw8nakskPF6udtqM2GiKRKyyD/zdtqNbUpbJdn6ZrEvzKujr9T4OJK1IV/4fT2XlGDhfbebWRtUwk5bTntl24tOZpMPZe2c3c+59tY+uRIQABCEAAAhCAAAQgAAEIQAACEAhNwHZs2Fa23pbVxqRrEtu2XlnTXp1pp6Z6U84vDqVTvQbTVkWq4v9y43AwsZ3p1Zm0idXWyCY2OpPWuCZyA63ACX7l/HShbN1KPPUYWzsOJ2ueCWYMJk0MAQhAAAIQgAAEIAABCEAAAhCAQPUE/JwRWsrW+8leXai06k2en+yn0/bL9D8nhMqPRG/K27Etax128KY1r9wsZbINVfY6Irxpr71Je50nofSmPmNvYrU3somr09n5frLR+cW2zitr2gTtCwECEIAABCAAAQhAAAIQgAAEIACBmhHwc0ZoDbbeTzY6jfWZ3E5reVsXSlY7DXa+prUunRhi6jQ6tfOTVWfqsG1c4zD/mTLGxJt29aEcM6aQNzYdUL2RvbFdxuQZnaaNzsgmVhsje2O/PK/OThvZxFqfCUY2seqNbGJja+JQepNPDAEIQAACEIAABCAAAQhAAAIQgEBVArbzw841eo3NM7eRTaz2Kpu0HXtltdV6VG8HP53mm/K2ra2z6/Grw+i8sdZndHbdIWU/x4xWEGnw2pq0xl7ZpLVuk29iP53JM7HaeJc62XmRyKYdO7ZlrcMvhNL72aKDAAQgAAEIQAACEIAABCAAAQhAoIKA7eCwmRi9iTXPyCY2OpPWWD/6jO4nGzvN16VKxs4RfYOpy8606zB6287Ixk5tqmvH1ONr6+eYsQuYQnbslU1aO2LkvWLAAeNNq635aF4oh4ux8cZaxqvTtAaj95ONzo5t2dShOhP8dCbPG9fE1luWNAQgAAEIQAACEIAABCAAAQhAIFEI2I6J6vrsZ2t0JtY6jGzH+pytaf2Ekp2sQDA23qVKAQNLUFvjwLHUrmj6oDYa7LTpi61X2bRty7ZO9VWCOmZMI1Uyq1GEK6d55qPVGNnERqdxTZ0ypg4T+9Vh6lcbP9noKnIrGRh7o/faGb2fnckjhgAEIAABCEAAAhCAAAQgAAEIpCoB48Cwxx9OZ+cZ2Y5V1mdwjf1k41gx+RpHGtRWfRJ2Hd7nfdOmqTNU/aaPxi7SOK26GTPeDmnFXp2mjc6WTSdsnW1n12VsjJMm0tiU88ambrs9I3vzTNqOVdZgl/FLu0b8BwEIQAACEIAABCAAAQhAAAIQgEAQAa8DI1Ta1qusH/MsbtJasZ+sOvUfaKxByxknSySxltGyWi5UbGw01mD3zZYrcivrMmlTxvTR1ruy1zFjKvUaevUmbWI/e2+eSWsc6qP12E4Z165Lly7pzz777NH9+vU7unnz5oPS09NzGzRokO1tlDQEIAABCEAAAhCAAAQgAAEIQAACqUmgrKysoLi4eMOOHTtmzZs37/2zzz77/VWrVhU7NNQpor4GddaY2PgoHFWVYDtpTKax93OwaF6oMuHs3bpdx4dpxYlNQ0Zl0uFiO88ra7omnypOmY8//vhno0ePvjEjI6Ob6RQxBCAAAQhAAAIQgAAEIAABCEAAAhAIR6CoqGjFl19+eefYsWPfc+zUQaIfdc5o0NjoahpreVPGTzY6v1h1GrS8G4zTxE4bWWPb0RIqbduY+uxYy9kOF5O2bWxZbdNatGjR8Mcff/xD165dL9YCBAhAAAIQgAAEIAABCEAAAhCAAAQgUFMCK1eu/OfgwYP/sn379lKnrDpEwjllbMeNNmXSxhHjjdXG6IwcLtY8DVrGDcYhYqe9stqYYNtXJ5v8ULHrgHEqtvMDuhUrVtyIU8ZgJ4YABCAAAQhAAAIQgAAEIAABCECgtgTUOdOtW7c7nfLGieLnnPHTGXtvrF0xunCyybPjINnMZFGlOkjCherytaztZKlODmmvy5dwyoQ7FORBAAIQgAAEIAABCEAAAhCAAAQgECkB9TGor8GxD+Wr0KpC5fnpq2tay4QLgXxTuRoHlHtLmrQd27Ipozpbb9J+cWBGzN4yamPrGuhGv4sXL/6IPWUULwECEIAABCAAAQhAAAIQgAAEIACBaBDQPWd69+49bu+GwPbsGFs2s2D8dCbPxNotI2uswY5t2c5zDY2tPWPGZNixcbjYOiN784wjRvON7I3D5bm2+vYlnDIGMTEEIAABCEAAAhCAAAQgAAEIQAAC0SCgvgb1OTh1eX0V3rQ259WZtJ2nsgmaHyqEywtsyust7C3kTRt7P72fTu1Vb/KMXCXWV2KbyokhAAEIQAACEIAABCAAAQhAAAIQgEC0COz1OVTxRTj1G502ZcvepjXPG/x0auPVe9NuPWbGjG+mt6UQaVPWxMZM0/ZH9SYdUm7evPkgzSRAAAIQgAAEIAABCEAAAhCAAAQgAIFoErB8DtX6J5x2jY2J7a6oToOJK1I1+98taxwzkRQ1jWlsZFPOpE2eSdv5RmdsNM8rN0hPT881hYghAAEIQAACEIAABCAAAQhAAAIQgEC0COz1OZi9brVar1/Cz3dhmje2to3J86vLzgsph3PMmIZCFTYdCpWvetsmnByA0qBBg+xwFZIHAQhAAAIQgAAEIAABCEAAAhCAAARqQ8DyOaiPIuCLcORwPgvNCxfssqHsQtbh55jxGnvTfo0YGzs2str7yaozH2Nj26mOAAEIQAACEIAABCAAAQhAAAIQgAAEoknAzxdh/BEm1va8skl743B9M7bGxpsOufmvKeCNq1TgGBidX6w6W2/Sfjpty+hVJkAAAhCAAAQgAAEIQAACEIAABCAAgWgTML6HcD6KcDbaHzvf2z+T59X7pv1mzPgZ2pXasp+tn85bRtPmo/ZG9tr51YUOAhCAAAQgAAEIQAACEIAABCAAAQjUloDXB+FNm3pr46Owy9iyqbNK3KiKJjKF6bRtbXQm1jw/WXUaTJ43rsjlfwhAAAIQgAAEIAABCEAAAhCAAAQgEH0Cxg+hNds+ivK9aaMzabWzZU1rUJ0JdhmjiyiOdMZMqMrswXhtTKdUb2Rv7M0z+d66SEMAAhCAAAQgAAEIQAACEIAABCAAgWgQUN+D8T+YWOs1sje281S2g9oae1sfsVzTGTOhGvPq7bSR/WJbp7JJRzwADCEAAQhAAAIQgEAsCJxwwglSXFzsNnXbbbfJQQcdFItmaQMCEIAABCAAgegTMP4Hjc1MGFs2OjvWXhgb0yNvujq9yQ+KtRLzMRl2WmUNRueXtvPMq6ZU5ycbncbmY9s2KC8vn6cNEiAAAQhAAAIQgEB9IpCTkyMFBQVulyZNmiQTJkyoT92jLxCAAAQgAAEIREggLS2tn2Na5nzU8WLHKttpOz+crHn2x0n6pm29yhrK1TlSXTDOmH21M/WY2NSnaftj9MQQgAAEIAABCEAAAhCAAAQgAAEIQCDaBGwfhJ+PQtvz6r19qC7f2FdrF4ljxlRmx6Zib2zbqKz5xsakTeyXZ9uqHQECEIAABCAAAQhAAAIQgAAEIAABCESTQCh/hPFJmFjb9Nra/TB23ti2qVb2OmZMZeEKGhtvbMqo3uT56bz53rQpQwwBCEAAAhCAAAQgAAEIQAACEIAABOqKgNcfYadt2bQfSqf5mqfBxBUp//+DbLyOGf8ikWvtyo1sYm8tqjcfzbNlry1pCEAAAhCAAAQgAAEIQAACEIAABCAQDQK2/8HIGvsFozex2tiyX5ka6aLpmLE7Zsum06ozH28njd5bzmtHGgIQgAAEIAABCEAAAhCAAAQgAAEI7AuBcD4IO8/ro7DTtrwvfXHfjOStIFqVaz2h6jJ5ofK9fSINAQhAAAIQgAAEIAABCEAAAhCAAATqgkB1PgqTH422q/hBIp0xE64TVSoN01O/emxdTeoK0wxZEIAABCAAAQhAAAIQgAAEIAABCEDAl4DxPdj+CGPopzN5frGpy5sXcT3qmAlXibdiO22XM7K3YZM2+aa8n95rY2yJIQABCEAAAhCAAAQgAAEIQAACEIBANAnYPgg/H4W25ac3OpNv+mTXZ3R2HCo/rZFtFYFsd0DNQ1XsV1UoW1Onif3KooMABCAAAQhAAAJxJbBp06ZA+1lZWQEZAQIQgAAEIACBhCNg/A8mLvcZgeb56X1MXd+IsdVyGky6IhXm/+ocM6bCMFWQBQEIQAACEIAABJKfQHZ2dvIPkhFCAAIQgAAEIFAXBMI6eSLdY8bbMT+Hja1T2aT9ZDvPWzdpCEAAAhCAAAQgAAEIQAACEIAABCAQKwK2j8LPh6H9sPUm7e2fqcerD5uurWMmXKWhOuLVm7TG9idc3eRBAAIQgAAEIAABCEAAAhCAAAQgAIF9IWD7IGzfhF2n0ds6lUPpvXYRp6PlmIl6xyIeAYYQgAAEIAABCEAAAhCAAAQgAAEIQCD2BKLiC7EdM1Gp0MPBW6emzUdNjWzsTOyphiQEIAABCEAAAhCAAAQgAAEIQAACEIgKAeN78PNJGJ3dkLG3dfsqB+q0HTP7WqmWNxWbOFydXhtvOlxZ8iAAAQhAAAIQgAAEIAABCEAAAhCAQG0JeH0Q3rRfvcbGxH42Ndbtq2NGOxOqQ6H0Ne4kBSAAAQhAAAIQgAAEIAABCEAAAhCAQBwJhPJxhPOLRNTdfXXM2I1U18lQ+XYdyBCAAAQgAAEIQAACEIAABCAAAQhAIN4EjMMllC8jlL7G/W5U4xJ1WyBqA6vbblI7BCAAAQhAAAKpRuCVV16RkpISd9hjxoyR9u3bpxoCxgsBCEAAAhBIFgL1yvegnTGzZkzH7Fhlv7TRa9lQsuaZfD9ZdQ332pj8BuXl5dMdHQECEIAABCAAAQjUKwI5OTlSUFDg9mnSpEkyYcKEetU/OgMBCEAAAhCAQGQE0tLSDnQsyzyfUk+63ErbspbTtNH5yUansQa/tNEHnDKuZZj/jHMmjElEWcaJE5ExRhCAAAQgAAEIQAACEIAABCAAAQhAIIYEoum3iMiXojNVahJMpSauSVnbNpoDtetFhgAEIAABCEAAAhCAAAQgAAEIQAACNSUQDT+F8ZWYOKI+1NQxY1dao4bsgmHkuqgzTHNkQQACEIAABCAAAQhAAAIQgAAEIJBiBOrC91DrOqO9+a92xNsZbzrFjndqDvelV16VTRs3x23wq1evlnUbNrjtN2/eTPr27hPTvuzcmScLFi1022yQ1kCGHTg0pu1rY99Pmy5laRVLGvfv21eaNm0a0z4sXLhQduTluW12bN9BOnXqGNP2161bL6vXrnHbbOrsC7H//vvHtP1dzj4Uc+fNC7Q5bOgQadBAt9WKXZjx44+BjUr79OotLVo0j13jTktLliyRrdu3u23mtm0jXbt2i2n7GzdvlBUrVrltZmdlyYABA2La/p6iPTJz1uxAmwcMGiSZGRmBdCyE2bNnSeGeIrepHt27SZvWbWLRbKCNFStWyMbNFdeC1i1bSs+ePQN5sRC2bdsmi5cudZtKT28kQw4YvE/Nlpbq0vOK8P77H8jadRtN0jcuLS2R6T/8GMgb2L+/NG7cOJCOhTDP+R7K37svTpdOnZ0Ni3Nj0Wygjfp1PU5zrse6pUBsQ7yvx3o/ovclGlLxerx58xZZtmK5O/4s5zt4kPNdHMtQXFwkP8ycFWhy0MABkpWZFUjHQpg9d44UFu52m+rWrau0a9M2Fs36ttGzZw8Z/7OjfPNQQqAeE1CfhtkrRrtpfBy2bp+6rxWaWTOmcjtW2Xy0IWOrsdGbWHW23qTtWG3ttFdu6Gz++71jQ0hwAiecdIosXrwkwUexD90vd/5G0/R0j19w/pacLsSvD/otFb/W48fdtFzufHenxZlAPTgNDQ4njv0ZEfsWreG6Yvx7EAfswRDifBJG++9wwbxZUlam+/2JdOveU7JzYuvwDoYbYSrOp2G8r0US53MwwqNUp2ZxPgWcscW3B/E/BeI7fj254t+DylP80MNGy2P/eLhSgQSBOBFwnpOGOU17N/v1bgasfz5enaZVb+eZtIkrbhYqyjqmAXuTb3SBWB0j8Qz63GZ/4tkX2oYABCAAAQhAAAIQgAAEIAABCEAgNQjYvoi4/qYc7aVMqXH4GGWNCLRo1VaaNG9RozL7arxp7SrZs6diymZW42xp077TvlZZo/J527fIjm1b3TI6a6VT9941Kh8N41VLK5ZSaV1tO3SSzKzsaFQbcR1rViyR8r2/LDdt3kqat2odcdloGG5av0b2FFa81jYzK9Nh0DUa1UZcR0HeTtm6uWI5nRbq1K23pDWI7ff9qqWLAv1t3a6jNHaWdMUybNmwTgoL8t0m09MzJbdzt1g2L1s3rZeC/Irp+40apUv7Lt1j2v6e3QWyaV3FcjptuEOXHtKwUWwvu2uWLXZ+otEfZ0RatcmV7KbNXDlW/61fvVxKiovd5ho7s0tat2sfq6bddrZt3Si7duxw5QYNGkjHbr32qf1FC+YGZsy0attB2uR2CFtfibOUaf3KZQGb3E5dJT0jM5COhbBmufNdXF7xw108rscb16ySoqJ4Xo+3OtfjLS7qeF2PVy+r/C6Ox/V47colUlZacQ7E43q8ecMa2b13OV08rsfbNjnfA/kV3wPxuBaUOPej6537UhP0WqT9iGVYvXyx83t9xbWgZZt2ktM0tkubt2/ZJPk7K5Y2x3LctAWBRCIQ2zvERCJDX6NG4PBjTpXxZ1wUtfoiqejO354hK5cucE279ekvV975eCTFombz9vOPypsv/NOtr2HDRvLHB1+KWt2RVnTxsUMCpmdd9kfZf+jIQDoWwu9PP0x276p4KB95xLFyyoVXxaLZQBt/u+EiWTBrmpvO7dhdbnzgxUBeLIQvprwmzz1wW6Cp6//6jGRkxXZviUuO070UKm7ETvrVb+Wgw44O9CcWwsO3/lZmffe521Trdh1i/nfw6J3XyA9ffeS238JZTx/rv8P5M76W+2++LID6itseltbOw3wsw+UnDhezL8rRp50vhx9zWiybl/+78DjZ6DhJNew/eLhcfON9MW3/Pw//Waa++4rbZnaTZvt8DnzRv4mzb1OFo+mUC6+Ww446Kex4tm5YKzdecGzA5sJr75IuvWO739VvTh4pxc5+RxoOP+bnzvX414H+xEL4s3M9XrX3ety1d3+5amJsr8fvONfiN5xrsoaGzj5fsf4e0HYvOa5yn7lfXHqT9DtwlKpjFq48/SdSuKvCSX3wmGPk5xddHbO2taG/3XiBLJg53W2znXM9vinG1+Mn7v2j/O/Tt932m7VoFfNzYPmCWfKXq89x29f/LrnxbzH/oeDykw6S0pIStw9HnvBLGXfy2YH+xEJ49sHb5Mv3X4tFU7QBgYQlgGMmYQ8dHYcABCAAAQhAIJYELrj69soNtftXOr9j2QfaggAEIAABCEAg+QjgmEngY6ob6ulHp2cTIAABCEAAAhCoWwKnXnBl3TZA7RCAAAQgAAEIpCQBHDMJdtjVEaPT0guctbr333+/NGzYUG666aYEGwXdhQAEIAABCEAAAhCAAAQgAAEIQEAJ4JhJsPOgxFkfOnToUHeWzOLFi+W8885LsBHQXQhAAAIQgAAEIAABCEAAAhCAAAQMARwzhkSCxDpDZsaMGe6smQ4dYruJZIIgopsQgAAEIAABCEAAAhCAAAQgAIGEIYBjJmEOVUVHdT8Z/egrHwkQgAAEIAABCEAAAhCAAAQgAAEIJDYBHDNxPH5mv5ht27bJypUrZdOmTZKbmyv777+/ZGVluc4XtZk5c6b07dtXGjeO7at244iGpiEAAQhAAAIQgAAEIAABCEAAAilBAMdMHA6zOlvmzp0rd911l3z00Ueydu3aoF60bt1aTjnlFLn99tvliSeekD/96U/y9ttvy7hx44LsSEAAAhCAQOoQKCkulqULZ8nyRXOlXW5n6T1gqDRp1jxmAMrKymX96qWyaPYMSc/MlD79h0rbDp1j1r42tH3rJlk4a7rk79wmvfoNls499nM2wY/dmwkb7C6UnBWLJWvjGtndsavs6tJHyjLSY8ag1NlnbsXiubJkwSxp2aa97DfgQGnaomXM2teGNqxZIQtnTxfn1yPp65yDuZ26xbT9ndu3OOfgdOdc2Cw99xsoXXv1k4aNuJ2N6UGgMQhAAAIQiDoBrmRRRxq+wqKiIvnjH/8oDz30kBQWFkp6erqMHj1aBg4c6H50xow6YV588UV59dVXZcuWLW6Fxc4NuV9QJw8BAhCAAASSm8C7Lz8lj91zg2zdtCEw0MzMxnLs6efLxdf/RbKycwL6uhDm/fCd/PWmi2TR3JlB1Q8fPU6uvvNR6di1V5A+2oltm9bL/X/6jXz27iSxr3udu/eS39/2sBx02FHRbjK4vtIS6TrpSen4r0elwc7CQF5p6+ay6tLfyNrxZ4o0qNslxp++/bI8/OerZeO61YH2Gzn3EEef9Eu59Ka/StPmLQL6uhCWzp8p9954scyZ8W1Q9YOGjZKrJz4mPfoMCNJHO5G3fZs8dMeVMmXyf6TMcVCZ0N5xkF3xf3+Tw46eYFTEEIAABCAAgYQjELufmRIOTfQ7rG9U0rco3XPPPa5TRp0wr7/+ukydOlUeffRRueKKK+TUU0+VJ598UqZNmyYtW1b/K5h9gxr9HlMjBCAAAQjEm8CDt/1O/nLd+UFOGe3Tnj2FMumZh+Wyk0c515SCOuvmlx++Ib87Y0wVp4w2OO3Lj+TXJxwkS+b9WGftb1y7Si46fph8+s6rQU4ZbXD18iVy3XnHyOTnH62z9sWZKdT/lsul831/C3LKaIMNt+yQ7nfcIX3v/UPdte/U/NTfb5Vbrjg9yCmjDeosqrdfflIuPnG4qOOirsKP33wml/98dBWnjLY36/uv5fIJo2TWtC/rqnnZsW2zc54Nk/defSbIKaMNrl+7Uv54ySny3CN31ln7VAwBCEAAAhCoawI4ZuqasFW/Ol9eeOEFV9PImXb78ssvyzHHHONu5muZuXvL9OnTR55//nl3Ro2d55VxzHiJkIYABCCQPATU8fHqUw8FDci7+fuSBbPlkTuuCrKJViJ/5w655/oLXSeQqVPbt/uQt2O73Pa7M523BZYZk6jGE689VzZtWBdUp91+WVmZPDrxWlm3ammQTbQSnV9/Wlp89LlbXcfty6XtlqXu593iSmdYm9felNxP34xWk0H1LJz5vTz38MQgnT1+zVizYqkzo+niIJtoJYqK9sgdV50tBbt2Bar0ngO7duXLHb//hRQXFwVsoince8OvZe2q5UFVehk8/ffb69RBGNQ4CQhAAAIQgECUCbCUKcpAQ1W3fft2ufXWWwPZBx98sLuEKaDwEYYPHy6HHHKIfPbZZ4Fc44jRG1ENmjY6701KoBACBCAAAQgkJIH/OLMAzHe8vpEvJyfH2VOloavT5bC6PFbDh5Ofl8ud5SzRXtL0+nMPyzZnLw8TtH1dgqtB2y4oqHBOLF80X7755C0ZfeQJxjQqsS6fmf7Vp4G6dBP8TGd/Gw06CzU/P9+V1Wnwwj/vkavu+Iebjtp/zmyZDv99OlDdrhJnzCUV1989acFLiTu88KRsGHN8wDZawnP/uDPg8NDrfJMmTdxzQOvXc2DPnj1uU59/MFl0yVfLtu2j1bRbz3uvPBU0UyfUObB+zSqZMuk5d3ldNDuwyVm69cVHbwWq1ONvXoZQWlrqngP6N6IOpOceulNuefi/AVsECECgfhHIz9shixculKeeeqp+daye9Ea/43Wv0fbt20vHjh2lXbt2oj/mE1KDAEc6RsdZv4A2b668uT3ppJOqzJTxdkVvwg8//HDXMWNuhPUmRJc76Rucdu7cKZMnT5ZFixbJGWecIRdfXDe/lnn7RRoCEIAABGJDYLG1REgfRtUpo0Fv3jRtHDPqmJgz/SsZduhPo9oxe3mKPhCba5E2kpGR4bavDhINM77+OOqOme+dGUMm6JiNU0Z1erOqDNQ5oWHejG/cOJr/ZW1eK+krK/f1CVd39uz50mDPbinLzApnVuO8BbOmBcrY54AqNW0cM7qsacY3n8rY488I2EdD+PHbqYFq9Jh7zwHdA8/sgzfzu6lRd8zM+OrjwPIlc96bDunfgzIwDsIFsytZGRtiCECg/hBYt3a1rFq5XD75+MP606l63BO95vXs2VOGDh0qI0eOlPHjx0vv3r3rcY/p2r4QwDGzL/QiLKu/5Hz+ecU0aFNEZ8xEEq655ho59NBD3Zkzaq/Omnvvvde9IdUbJJ05ozdl+gsaAQIQgAAEkotAobV8RL//7aAPqfoxM2p2bNtqZ0dF3rVze6Ae4xQKKBxBdcYxk79jh50VFTl/R+W+KX7t20x27cqLSpt2JenOr7sRB2ciTSNnSU9RlB0zu/fOStJ+2OM1/VKdmUW7Y2vFCwNMXjTiXRYDv2OgDjLjmLGPVzTa1jp27qg8r/V89wZbZ/+9eO1IQwACEEg0AvqMN2/ePPfzn//8x33+0x/t9UUyY8aMSbTh0N9qCOCYqQZQNLL1plmXMtmhadOmdjKkrHY//WnlL6B6A9arV6+Q9mRAAAIQgEDyEGjVLtd5RfVKd0DqALEfjHUGpXHKqEG33vtHfeDtO/dwN3fVinV2jv4gYIK2bWbsqK6T84akaIeOPfoEqtTxqwPCdk4Yh4AatevYJWAbLaGgvVNnI8cZUBK8bMmv/tLmOVLUorVf1j7pWud2kO3bKt/QaE9r13PAOGW0kS51cA507Noz0H99SLBnLWmGmbGjcsdulbaajkbo0rPyvNaxes8B4xjUtlq37xiNJqkDAhCoIwI64y7DmQWSaV1L6qiphK129+7dgZmg3kHo991HH33kfo488kj55z//6c6o8dqRTkwCOGYS87jRawhAAAIQSAECIw47Wt544XF3pGbJjjpn9OHUpDWzfacu0mO/A6JO5PBjfi4fOK8n1qA3hLucGTz6YK5OGX0gN46hBs6sicPH/zzq7R8y9njJbtJUCvIrZsPonjK6dEVnSahTxnYMjR53QtTbL81pKvkHHShNvv6+2rp3jB5VJ6/MHjlmvCyZP9ttX5mrY0rPAWVvlvBoZsvWbWXIiJ9U28+aGow59jR59emH3GJ63uk5YBx02h/VadBjMubY0105mv8NPeQIad6ylfNmpoqZM3l5eZKdnR04B2zH0Kixx0SzaeqCAASiTKB7z75y6GGj5bF/PBzlmpOrujVr1siPP/4os2bNkvnz58tCZ1+eOXPmyA5rZuqHH34ow4YNE51Jo0ucCIlPoEHiD6H+j0BvVnQjJzt4Z9DYebasNzx642lufOw8ZAhAAAIQSG4CF1xzh7Rq0y4wSHXGqHNCH8iNU0SvMZfd+Ffngb3qMo9AwVoKhx11kgwdeXigtDpDtH19OLdnKhxzyrnStVflzIZAgX0UmjZvIWdcdHWgFuMY0D7YD+Q9+vSTCedcEbCLprDs0uulPDM9bJU6W2bFBZX9DGtcw8yzLr9J2nfsGihlzgE9BuYc0MwLrr5dGjm/Rkc7HHDQoXLYTyudXnoOaNvec+AnP5sgA4aOjHbzjhMoU86/8rZAvTpmbdt7DnTo3E3OuuSGgB0CBCAAgUQl0KlTJ/fNvddff708+eST8uWXX4o6a2677TZ3Y2AzLn2e1L1HP/nkE6MiTmACOGZicPDcX5HGjAlq6X//+19QOlTiq6++krZt28rXX38dygQ9BCAAAQgkKYEWrdrKHf98Lcg5Yw81PT1Dfn3tn0VnttRVuPWRl2X/QQeGrH702GPl97fX3a+fZ19xsxx/xoUh2+/So7dM/PebdeKU0Ebz+gyUxbdNlPIm/pv6lrZqIovuvF8KO3YL2cd9ychp0swZ3xvSrkNn32p0Bs0vL71Ojj/z17750VDe+LfnnNk4h4Wsauiow+XGeyvfXhXSsJYZJ519meOguypoGZtdlc4Ym/jEW1F/K5ndBjIEIACBeBLQN+LdfPPNsmzZMrnwwgsDb2tSR/Vpp50mq1atimf3aDsKBFjKFAWIkVTxy1/+0vVybthQ8XaH119/Xa666qrAH1WoOj799FP37UutWrUKZYIeAhCAAASSmMCAA0fJ0x/MkecfmSizv/9S1q5Y5i5b6dlvsJx2/pXS94BhdTr65i3byCOTvpHXn31Evv74LVmxeJ7rBOnRZ4CMO/EXMu6EM+u0fZ0JdM3Ex+Swo0+Wt//7uCxdMEsKnE12u/bcT4aNHienXXi1ZGY1rtM+bPrJMZL3nLNU7Ce9nXYqXlG+u3dPWT92vKw+5TwpalU5q6kuOtJz/wPkqSmz5YVH/yI/fvu5rF6+SJq1aCU9+w6Sk3/1Wxk0fHRdNBuoMzunifzthU/lnZf+JVPfmyQrFs1z1i6VSzfnHDj8Zz+X8af+qk5mbAU64AiX3nivHDLuRHntmQfdcyDP2Ri6S4++MnjkT+TMi/8g2kcCBCAAgWQnkJWVJY8//rj07dtXrrvuOne4+uZffUOvzqwhJC4BHDMxOnbNmjWTO++8Uy644AK3xW+//dZ9U9MRRxwRsgfqAf33v/8tBxxwgPTpU7kBYsgCZEAAAhCAQFISaOZsKqsPpvEKDZ09ZE5xHAD6iVc4eMzPRD/xCrtzO0v3/kOcvW0qHDPbfn+bLD049CySaPdTZ85ceM2d0a424vrUQXbcGRe5n4gLRdlwsMNbPwQIQAACqU7g2muvFd1nZsqUKS4KXWXx9NNPy7nnnpvqaBJ2/CxliuGhO++880Q/GnSdvE47mzRpUtA6fTfT+U/3DzjrrLNk06ZN8tBDD1U7s8aUI4YABCAAAQhAoG4I/OO1b+Rfb013PzgI6oYxtUIAAhCAQGQEdP+Z5s2bB4x1EgAhcQkwYyaGx07XgT/22GPSuXNnue+++0SnnZ1++ukyZMgQ6d+/vwwYMEB0/aDuwK0e0I0bN7r2hx56aAx7SVMQgAAEIAABCEAAAhCAAAQgUJ8JdOzYUS677DKZOHGi2019e9M333wjI0dGfyP2+swhWfqGYybGRzLdeWOC7qh9zjnnyN133y0ff/yxTJ8+XaZNmxboiS57Ou644+TWW2+VXr16ua+EDGQiQAACEIAABCAAAQhAAAIQgEDKE7jhhhvkkUceCbxK+6WXXsIxk6BnBY6ZOBw4fUuT7hmjs2dKS0vdZUv6CjSdQaOeT31FWmZmJg6ZOBwbmoQABCAAAQhAAAIQgAAEIJAIBJo2ber+oP/888+73f3ss88Sodv00YcAjhkfKLFSqYOmkbOhos6Q0Q8BAhCAAAQgAAEIQAACEIAABCAQKQF9I5NxzCxYsMDdy1S30CAkFgGOWGIdL3oLAQhAAAIQgAAEIAABCEAAAhBwCYwbN85dbaEJfavv/PnzIZOABHDMJOBBo8sQgAAEIAABCEAAAhCAAAQgAIHGjRtLbm5uAITOmiEkHgGWMiXeMUu4Hm/fukmWL5ob034X7dkdaG9PYUHM29cxB0J5eczbD7S9V9iwdoVkNYntcrlyZ/8kE3Zu3xpzBrud427CnqLdMW9/y8Y1pnk3Xr5knmRkZAXp6j5RHmhiy7rVMWewuyA/0H5xUVHs28/PC7RfWlIS8/bXr1kZaF+FNUsXSt72bUG6uk6UO98/JmzbtC7mDEpKik3zUuAcj1hfC/J2VvLWPd1i3f5O+1rgkFizcrGUlpcFmMRCKC+rPAe2b90ccwbF1vW4aHd8r8flUh+uxyulcdPK19vG4hwoK7Ouxzu2xPwc2FNYeU9WFIfrcUHe9gDm4uLimI9/3eplgfZVWLdykex2/hZiGuxrwZaNMWewa2flMYjpuFOosRYtWsjKlRX3HevWrUuhkSfPUNOcoZhZMyprsGOVzUfzjK3GRm9i1dl6k7ZjtbXTDT3pBs5N5PeOjpDgBE446RRZvHhJgo9iH7qvF0BnD6F4Bn0g032M4hX0USB+rcdr1JXt6gNAWpwJ1IPTsBKIwyPWZ0TsW7SG64rx70EcsAdDiPNJWB/+DoOBxCEV59Mw3tciifM5GIcjXqXJOJ8CTn/i24P4nwLxHb+eEPHvQeVpeehho+WxfzxcqUCKCoHBgwfLzJkz3bruuusuue6666JSbzJX4jwnDXPGp7+W2B/1ZNtp/fOx00ZWvZ1n0iZWOw0mNnoTa57KGtyYGTMVMPgfAhCAAAQgAAEIhCWwccM65zm/4h6rZas2ziy4zLD2ZEIAAhCAAARiQUD3ljGhrMz4AoyGOBEI4JhJhKNEHyEAAQhAAAIQiDuBbc5SIHPD27RpMxwzcT8idAACEIAABJSAuTZBI3EJ4JhJ3GNXr3v+3xeek5KS+Hlri5z9LIqKKvY2aJTeULIyY7u3R2lpiRQW7nGPka4mysnJifnxys+v9Jw3bpwpDRvG9s99t7OvQElxxbr2jIx05wEmI6YMSpx15Lv3FLltNmrUQLKyGse0fV3TX1BQua6+SZPYnwP664lO4dYQ73Mg3fk7zIzx36F9DjRsmOYwyK6AEaP/dQnHrl2V+wjk5GTHfHlhobPXUmlpxUkQj3Ngj/M9ULz3eyAe50C0v4vbt2/n/F1XHNOJd94hxx13QtizyXsOZGdnSYMGuoo7dmH37sLA9TgrM0MapafHrnGnJa7HIlyP43s9tr8H6sO1IB7fA/a1IB7fA/aXTqOM2N6P2m0jQ6A+E+Avoz4fnQTum+4OHt8Q+4dg73idPbjiGpo2jS+DeLcfV/h7G2/ePLYbLnvHHO9jEO/2vTzikW7WrEk8mg20Ge9jEO/2FURdfRdnZWVJJONL9XPA+WkicD7GS6ircyDS8URynkRaV23s4t1+bfoc7TLxPgf4Hoj2EaU+CCQfAd2IlwABCEAAAhCAAAQgAAEIQAACEIAABCAQBwI4ZuIAnSYhAAEIQAACEIAABCAAAQhAAAIQgIASwDHDeQABCEAAAhCAAAQgAAEIQAACEIAABOJEAMdMnMDTLAQgAAEIQAACEIAABCAAAQhAAAIQwDHDOQABCEAAAhCAAAQgAAEIQAACEIAABOJEAMdMnMDTLAQgAAEIQAACEIAABCAAAQhAAAIQ4HXZnAMQgAAEIAABCEAgAgIzZ86U8vJy17Jjx44RlMAEAhCAAAQgAAEIVE8Ax0z1jLCAAAQgAAEIQAAC0qtXLyhAAAIQgAAEIACBqBNgKVPUkVIhBCAAAQhAAAIQgAAEIAABCEAAAhCIjACOmcg4YQUBCEAAAhCAAAQgAAEIQAACEIAABKJOAMdM1JFSIQQgAAEIQAACEIAABCAAAQhAAAIQiIwAjpnIOGEFAQhAAAIQgAAEIAABCEAAAhCAAASiTgDHTNSRUiEEIAABCEAAAhCAAAQgAAEIQAACEIiMAI6ZyDhhBQEIQAACEIAABCAAAQhAAAIQgAAEok4Ax0zUkVIhBCAAAQhAAAIQgAAEIAABCEAAAhCIjECjyMywggAEIAABCEAAAqlNYOrUqVJaWupCGDJkiLRs2TK1gTB6CEAAAhCAAASiQgDHTFQwUgkEIAABCEAAAslOYPz48VJQUOAOc9KkSTJhwoRkHzLjgwAEIAABCEAgBgRYyhQDyDQBAQhAAAIQgAAEIAABCEAAAhCAAAT8COCY8aOCDgIQgAAEIAABCEAAAhCAAAQgAAEIxIAAjpkYQKYJCEAAAhCAAAQgAAEIQAACEIAABCDgRwDHjB8VdBCAAAQgAAEIQAACEIAABCAAAQhAIAYEcMzEADJNQAACEIAABCAAAQhAAAIQgAAEIAABPwI4ZvyooIMABCAAAQhAAAIQgAAEIAABCEAAAjEggGMmBpBpAgIQgAAEIAABCEAAAhCAAAQgAAEI+BHAMeNHBR0EIAABCEAAAhCAAAQgAAEIQAACEIgBgUYxaIMmIAABCEAAAhCAQMIT+O1vfyslJSXuOPr165fw42EAEIAABCAAAQjUDwI4ZurHcaAXEIAABCAAAQjUcwITJ06s5z2kexCAAAQgAAEIJCIBHDOJeNQSoM+/PPs8WbxkaQL0tG66WFpaKgUFBW7laWlp0qRJk7ppqB7XWlhYGPhlOTMjQzIyM+txb6PftbKyMtm1a1eg4qbNnHOgPC2QTgVh9+7dUlxc7A41wzkHMlPsHCgvL5f8/PzAoW6q3wPO90EqhT179khRUZE75PT0dMnKykql4TtjLZe8vMpzoElOjqQ1SK1V5EXOObBn7znQqFEjady4cYqdA+J+D+j3gYac7Gxp0LBhSjHQ7wD9LtDQ0Bl7tsMgtYLne8C5Fui9YaqGQ0aPkvvuuStVh8+4IRCSAI6ZkGjI2BcCeXl5snPnzn2pImnK6s1YqrPY7dyQ6SeVw84deak8fPem3NyYpyqInc73YioHfTgzTppU5ZBnOepSkYE6ao2zNhXHr2POtxz2qchAlwKm+j2R3iOncijIr/zRKpU5MHYIeAmk1s823tGThgAEIAABCEAAAhCAAAQgAAEIQAACcSTAjJk4wk+Vpnv2ayVjT+mWKsN1x/n1e2tkzrSNgTFf+MehATlVhH/dMSMw1PZdmshx5/YJpFNBmP3NJvnmw9WBoZ577QGSnpla09efuPMHKSurmL7fvHWmnHpp/wCPVBBWLNgpH7y8JDDUUy7uJy3bptZSnqfvninFRaUug8ysRnL2NYMCPFJB2LFlj7z8j7mBoY4/s7d06tU0kE4F4T/3z5aC/IoljTreVL8e/uS4btJ3SKtUOPSBMb76j3mybcvuQDrVzoF1K3bJ288uDIz/xF/tL207pdaSPu85EICBAAEIBAjgmAmgQKgrAgeMaicjxrWvq+rrZb0bVxUEHDON0huk3Pj1oPznb+lSsKviZvyAUbkpx6B4T2mQY2b42A6SmZVakxRffiRDdmytWMI2cETqnQNNW2QEOWYOOqK9tMpNLcfMG08ulI1rKqatDziobcp9D2xZXxjkmBk+pr106ZtajpkPXlwmKxZvd6/V+w1pk3LngA78X3e4w3f/G3Z4e+k3PLUcM5+/tTrgmOnWu3nKnQMr5u8McswMOyJX2ndJrX12Fk7fKlPfWVH5h4AEAQhUIZBaTwlVho8CAhCAAAQgAAEIQAACEIAABCAAAQjEjwCOmfixr3XLupnsihUrZPLkybJmzRoxO/3XukIKQgACEIAABCAAAQhAAAIQgAAEIBAXAixligv22jeqr+C96KKLZNWqVaKvnTz77LPl6KOPlmeeeSYlX0FZe5KUhAAEIAABCEAAAhCAAAQgAAEIxJ8Ajpn4H4Ma9WDSpEkyf/58ee+99yQnJ0def/11OeWUU6RXr17yl7/8pUZ1YQwBCEAAAhCAQOQEfnHwv6SouGIz4z/cd7QMH9M98sJYQgACEIAABCAAgRAEWMoUAkx9VU+dOlW++uoreemll6RBgwZywgknSIsWLeTNN9903n5SVl+7Tb8gAAEIQAACCU9g8/qdsmH1NvdTWFCS8ONhABCAAAQgAAEI1A8CzJipH8fB3SdG94pJS0tzP3a3jF51l156qeuAOeaYYwImDRs2ZBlTgAYCBCAAAQhAAAIQgAAEIAABCEAgcQjgmInTsVJny/r16+Xrr7+WOXPmyIIFC9yNfJs3by4jR46U8847T3Jzc2XLli1y+eWXy+233y59+/aVfv36yUMPPRTotc6gUZsrr7zSnUETyECAAAQgAAEIQAACEIAABCAAAQhAoN4TwDETh0Okb1L605/+JC+++KLk5+e7PWjWrJm0atVKMjMzZcqUKXLXXXfJb37zG9dm0aJF8qtf/cp1zNjdLSoqkmuvvVYOPfRQue666+wsZAhAAAJRJfDZWwvl6w+WytK5myQrJ0P6DGonx5w+SHoNbBPVduprZds2F8jrT/wg839YL5vW5UmXXq1k8MjOctzZgyQjMzUupd9+uEw+e2eRLJmzSTIyGkrvge3kqJ/3l37D2tfXwxbVfjXcVSJpZeWBOju+skw67kmXDT/rLKWNGwb0ySxM/2KlfDp5gSyes1HKnRm+fQe0kyNO3E+GjO6SzMMOjK0wv0hef+pHmTNtraxdvl3ad2suAw7sICf+aqg0aZYRsEtmYfZ3a+XDV+fJ4tmbpKSkVHo558Dhx/aREWO7J/OwGRsEIACBOieQGneTdY4x8ga++OILOfnkk2XTpk1uoREjRrib9o4aNUp0SZIuZVq2bJnraNHNfIuLi30r1/1kfve737n7y7zxxhuSnp7ua4cSAhCAwL4QKMgrllsunCzffLI4qJoZXy2T15+cLmf/7hA579pRQXnJlvjy/SUy8bfvyo5tFY50Hd+iOevk4zfmyKv/ni4Tn54gXfu2SrZhB8ZTtKdEbr/0Hfn0rbkBnQo/fLtcJj09TU69cIRc/qfDJa1BWlB+MiWaz94mva//n0hpxca/OracbzZK12m7JPe5RbLo7oMlv1fTZBpy0FjKSsrkrqumyLv//dFdem0yZ3+3Ul57+ns57qyhcs09P5UGDZP3HJg/fb388YLJsmHNNjN8WTR3nXz+7nx5+V/T5dZ/Hi+DD+kcyEs2odxxSj5486fOd97/nCX1lQ7KOdNXyRvPfi9HnjRQbnpwvDTKTA0nZbIdX8YDAQjEnwCb/8bwGKxcuVJOPfXUgFNGlyupo+aII46QrKws17mir8Du06ePvPrqq+6MGb/u6TKo++67TzZs2CDvvvuuu7/ME0884fxywUaEfrzQQQACtSdws/Mg4nXKmNqKiorl3/d8Ji//83ujSrp4/g8b5NaL3whyytiDXLlkk1x12suSt2OPrU4q+c+Xv1vFKWMGqA/s/330G3ninq+MKunixmsKpO8VX0n6qkLfsWUuypf7krfRAABAAElEQVT9Lv9SMrYm7zlw3x8+knde/CHIKWNg6D3Jm89Nlwdu+tioki7euCZPrvvFq0FOGXuQWzbskBvPnSRrlm231UklP/bnL+Tlx78NcsrYA/zw9dky8ffv2SpkCEAAAhCoAQEcMzWAtS+mOsPlkksucfeV0XratGkj999/f8iZLvrGpVtuuUXatWsX1KzeAL3wwgsyc+ZMef755919ZbZu3SpPPfUUe8wEkSIBAQjsKwFdvvS/TytnyqjjODs72/3o7D4Tnrjny6R1TPz1uilSWFD5wN24cWPJyclxlvJULlvYsHabPH7HVIMjqeIfvlzlzgwyg9Jrk9858N9HvpXN6ypnFBn7ZIi7/322NNzqP3vVjC997W7p9s95JplU8ZLZm+XN/8wIjMk+B1Q2YbIza2L5gi0mmVTxQzd/LNu25gXGpMvO9XtAYxN27iiQ+//woUkmVbx+1U55+TFnxtjeoN//5nvAPgc+mDRbZv1vrTEjhgAEIACBGhBgKVMNYO2L6bRp0+T9998PVHHiiSeK7isTLjRt2lSOPfZYefLJJwNmulmwOnj04aB79+7uUifda0bf0mQ/KAUKIEAAAhCoJYEPX50fKKlOmSZNmgSld+7c6abzdxbIF87eI+PPHBjITwZh84ZdsuDHyocMfRAzy0Y11uWnhYUVsyi++nCpXJUMg/aM4f2XK5cv6QOYfd3ScyIvL8+dRVFYWCQfvjZfzrhsuKeGxE42LCyVZp+si2gQLT50zpXrh4hU+ioiKlffjd5/eY7ozCgNep+h9ybmfkP/DvR7QH80KikukymvzJNf33RofR9SjfpXVlou06auCJRRh4RxzJrvgYKCAjf/x29XiS79S7Z9pz6aNE/27KlwTppzwDhklIF+D+gPkHoeTHlprgwa0THACwECXgJTP58qAwYM8KpJOwT076t169bSsWNH6dy5s3Tt2lW6desmPXv2lB49ergOYUAlLwEcMzE6ts8995x70TLNHX300YEbG6PzxvrHefbZZ8usWbOku+OE0TBjxgwZPXq0K9v/qQPH3CjZemQIQAACtSWwZlnlXgrmQcTUpTflekNu9sFaOn+zyUqaeKmzya0+aJig47WDOiZM2Lh2u5QWlUnDjOR6Kl+9pPIcsGcH6LjNOaA/DmhYviD5zgFdxpS2p/Ic6JzRWIrSK9JN04KPdcNNRZKxfY8UtaqcReGCSfD/Vi6pnAWjy67tew2VVWcclCsXVdom+LAD3d+4Nk/yHOezCfbfverstM6uW7Vku/Tqn1ybotszofRaYJwyOn49B/S7wZwDq5Ym3zmg4yREj0Dejp2yenWlszN6NSd3TfpdM2HCBLnhhhtk6NChyT3YFB1d5V1ligKIxbD1VwR9HbYd1PMZSRgzZoz7Sm1z4b/ssstEPwQIQAACdU0g3XrbkO2gMO3auqzsYKeFsUnkuHHj4DHpeO2H0qDxZ6VLg0ZpiTxc376nZ4W/TbAZZDoMki2UZgVvZDqnWfi3D3ntk4FHRmblcdX7GW8otTZEzqjmfPGWTYR0tvMWOjvY57ytN7L3e8PoEznOtL7f/c4Be2z2+WLrkSEAgX0joHuJvvzyy/LKK6/IuHHj5O6778ZBs29I613p8Hdc9a67idsh86uyGYFxtJh0qFgfAmxb+6EgVBn0EIAABKJBYP/BuTJ3xiq3qt27d7vfRbp8R4POkrA3HD9gRGdXn0z/9RnSzpk23Fh27apYrqQMdBmpBn0407QJnXu2Tsq3EvU/sL1891nFPkP6i7hej8w5oNc1+9o2aEQngyNp4sKOjaW0faY0XF+5z1Cowe3p11RKs5PvtmrgsI7yyZtz3GHv2bMn8KICVeh3gJkxpemBw5NvCUuzVlmS27mlbFhdMXtM/+51OZO5H7O/B1q1bSoduoVfpq6cEi0MOqiTTH7me7fb5u/ezCBUx5yZLaMG/Z3XhxMgEI5A3/32k3POOSucScrm6b3Fli1bZN26de7LYvQtvtu2bZPt27cHVl6ozYcffigjR450f6y/5557gp4VUxZeEgw8+e4g6ulBMRcw073qfnEwdsQQgAAE4kXg1EuGOa/HnencdBe5jgjdR0C/y/RG3P4O69annQw/vGu8ulln7WY5M2Z+ctx+DoMf3Db0oVQfQtU5oQ+k9i/nJ59/YJ31I54Vn3T+UHnlX9/LrrwK55SeA+bHAtsxl9uppRxxfN94drVu2nZeAb7p1J7S/sHqN/bdeFpkM2HrpqN1V+sxvxwkzz7wtWzfWrG5c35+vu850LJNUxl/RnLuG3H8WYPlX3d96kJWx4Tuq+P3PTD+tEFJ6aA94qS+8tidLWTjuoq3Tu3atcv3HGjSLFtO/NXgujsZqTkpCOjbZ//85z8nxVhiNYi1a9fKxIkT3RfAqONGg96P6ItkZs+e7b6lN1Z9oZ26IxC8QLru2knpmnUtbt++wTesS5YsiYjJxo0b5bbbbgu8zSmiQhhBAAIQiAKBzj1byrlXBe9ppQ8ltlMmp2lj+ePDzh5XzgNsMobf/nmsdO7eOjA0dcYoA9spM3JsHzn2rOTa+NgMuE1ujlx2yxGB2QGqV4eM7ZRp3DhDbnhgfNLtr2MYrDy3jxQOb2WSvnHeEbmy5qTuvnmJrmzSLEOu/MtR0ii98pbRew5o3jX3HCWNmwQv+0n0sZv+n/27ETJwWOUyNr/vgT4DOsj5fzjEFEmqWDczvv5vP3P2kqlc1uY9Bxo414Arbj1CWrbJTqqxMxgI1AcCuhnwgw8+KKtWrXL3mLE34tfZM+eff3596CZ92EcClVfZfayI4uEJnHXWWUE3th988EHQjX2o0mqnr81euHBhKBP0EIAABOqMwFm/O1hufuREadW26vT8voM6ysOTz5L9h+TWWfvxrlgfSh9992wZc1z/oO9w7Vfj7Ez55W9Gy1+emZC0jikd5wnnHCB/fvIUadehhSaDQo++uXL/q2fKsMOSb8aUGWiZs6Hz7IcOkU3n9HJ2ejXairg8M002XLqfzLvnYJGGyemc1JGOdWZM3PP8adKpa1UHVSfHcXnvi2fIT47tEwwniVINGjWQ+187XU4+b7jzRqZK54QOUZ1Sx545RB5+88ykexuTfQhHjO0uf3P+1rv1bmurXTm3Y0u58+mfOw7qQVXyUEAAAtEjoMup77zzTtG3/Xbv3j1Q8bPPPussu94VSCMkJgHPLUZiDiIRej1ixAj56U9/KlOmTHG7+/rrr8u9997rvnYyVP/1V+m33nrLtRk0iItdKE7oIQCBuiVw1M/7yeHH9ZG536+TudPWSnazLBnk7CXRa0CbpHZIGKrNW2fJ7U+cIOtXjZGZ366Rtcuct64MbCuDD+4suv9EKoTDjukto8b1kHnT18vs79c6D6ANZaCzp0yfge2kQRI7JMyx1b1jllwzSFb9qo80m7NDslbnS0H3JpI/oKUUNU/OWSJm7CYePqa7/OebC2X+Dxtk9v/Wun/7Aw/qKPsNds4Bx3GR7CHT2dj4yruPlHOvOcT5Hlgty+dvka69W8ngUZ2ldfucZB++Oz59DfYzn58vC2dtdM6BNc7MuTLpP6yD9B/SXho53wkECEAgNgR0OdhHH30kw4YNc/ef0Va3bt0am8Zppc4I4JipM7TBFetypscee0zUQaPLk/Rz3XXXudPSzHr94BIiU6dOlcmTJ8t5550nLVpU/aXSa08aAhCAQF0R0IeSoaO7uJ+6aqO+19u+SzPRT6oGffAaNKqT+0lVBkWOk27zT9QZl7yzxMIdW3XA9B/uPIg7n1QNrdplyxjdT+n41CSgjlidJZnMMyVT88gy6kQjoG/41dkz5m299hLjRBsL/a0gkPw/cdSjI92tWzd58cUXpWXLlm6vHn30URk7dqx899137ts9dN8C/aPSzZwefvhh9131OlNGd9s2u//Xo+HQFQhAAAIQgAAEIAABCEAAAhCIA4FLL73UnTUTh6Zpsg4I4JipA6jhqjziiCNk+vTponvO6DrBzz//XA4++GDRTZ0GDhwo6ojJzc2Vq666Sn7+85+7S59yclJjimw4buRBAAIQgAAEIAABCEAAAhCAQCWBu+66qzKBlNAEWMoUh8OnmzU988wzcscdd7iOmblz58rixYvdd9Z37dpV+vXrJyeccILrpNElUAQIQAACEIAABOJP4B9/+kxKSsvcjpx49mDp2rfqZrjx7yU9gAAEIACBVCEwbtw498d9fW02IbEJ4JiJ0/FTh4s6aPSjr100r17VJUssW4rTQaFZCEAAAhCAQBgCrz35vRQWFrkWQ0Z1wTEThhVZEIAABCAQGwJnnnmm3HTTTbFpjFbqjADTMeoMbeQVqyNGHTX6wSkTOTcsIQABCEAAAhCAAAQgAAEIpDIB3f7CDoWFhXYSOUEI4JhJkANFNyEAAQhAAAIQgAAEIAABCEAAAjaBvn37iv2W3w0bNtjZyAlCAMdMghwougkBCEAAAhCAAAQgAAEIQAACEPASyMjICKi2b98ekBEShwB7zCTOsUrYnr7+xHxZPj+1viAW/Lg5cLxKisvkkZtmBNKpIhTsKg4MdcpLS2Tj6l2BdCoIyxcGn/OP3jxD0jNSyxe+Y+uewKH+8t2VsmtHxd4cAWWSCxvXBp/z/7zlB2neOjPJRx08vI1rKhlM/3yd811YHmyQYKmSkoqNf7Xb772wVGZ9mRd2BLvyKr8H1fCxO36QDl2ahC2TbJkrFld+Fy74YXNKXg/tY/rExB+kx/4tbVXSywt+2BQY44rFO1LuHNi6aXdg/Co8fusP0jq3cZAu2RM/fLU+2YcY9/HZ22EUFBTEvT90oOYEcMzUnBklakEg1b+QU338esqkOoM50zbW4i8nuYqk+jmwbMG25DqgtRhNop8DpXvfyKRDX7Fgu2xaXVojChtW5Yt+Ujkk+jmwr8dOHdapziDVx79qyQ7RDwEC0SRgXiSjdZaW1uzaFM1+UFftCaTWz7e150RJCEAAAhCAAAQgAAEIQAACEIBAvSNgO2bqXefoUEQEmDETESaMakrgyCPHSf/+/WtaLGnsd+bnydIlS93xOO/bkgMGD0qasUU6kCVLlkhefsUvw+1zc6V9+/aRFk0Ku8LCAlmwcFFgLAcMOsB581paIJ0KwvLly2X7jopfBVu3aSNdOnVKhWEHxlhUtEfmzpsfSA9wvhPT09MD6VQQVq1eJVu2bHWH2rJFC+nWrVtCD/u+RfOkqKhiSd7w4cOlT5++YcdTWlois2bPCdjsv19fycpKrSUM69atkw0bK2YMNmvaVHr27BngkSrCjz/OlHLnn4Y+vXtJTk5qLWfT46/ngYac7Gzn76aPK6fKf8XFxTJn7tzAcPv36yf2fiCBjBQRBgzolyIjZZgQqBkBHDM144V1hAR+c8VlEVpiBgEIQAACEEgMAg/8/b6AY+asX5whEyZMSIyO00sIQAACEIAABOo1ARwz9frw0DkIQAACEIAABOoLgQ8++EDKyio2AB44cGB96Rb9gAAEIAABCEAgwQngmEnwA0j3IQABCEAAAhCIDYFDDjkkNg3RCgQgAAEIQAACKUWAzX9T6nAzWAhAAAIQgAAEIAABCEAAAhCAAATqEwEcM/XpaNAXCEAAAhCAAAQgAAEIQAACEIAABFKKAI6ZlDrcDBYCEIAABCAAAQhAAAIQgAAEIACB+kQAx0x9Ohr0BQIQgAAEIAABCEAAAhCAAAQgAIGUIoBjJqUON4OFAAQgAAEIQAACEIAABCAAAQhAoD4RwDFTn44GfYEABCAAAQhAAAIQgAAEIAABCEAgpQjgmEmpw81gIQABCEAAAhCAAAQgAAEIQAACEKhPBBrVp87QFwhAAAIQgAAEIFBfCSxcuFBKS0vd7nXt2lVycnLqa1fpFwQgAAEIQAACCUSAGTMJdLDoKgQgAAEIQAAC8SMwdOhQ6d+/v/uZMmVK/DpCyxCAAAQgAAEIJBUBHDNJdTgZDAQgAAEIQAACEIAABCAAAQhAAAKJRADHTCIdLfoKAQhAAAIQgAAEIAABCEAAAhCAQFIRwDGTVIeTwUAAAhCAAAQgAAEIQAACEIAABCCQSARwzCTS0aKvEIAABCAAAQhAAAIQgAAEIAABCCQVARwzSXU4GQwEIAABCEAAAhCAAAQgAAEIQAACiUQAx0wiHS36CgEIQAACEIAABCAAAQhAAAIQgEBSEcAxk1SHk8FAAAIQgAAEIAABCEAAAhCAAAQgkEgEcMwk0tGirxCAAAQgAAEIQAACEIAABCAAAQgkFYFGSTUaBgMBCEAAAhCAAATqiMBZZ50lRUVFbu29evWqo1aoFgIQgAAEIACBVCOAYybVjjjjhQAEIAABCECgVgQee+yxWpWjEAQgAAEIQAACEAhHgKVM4eiQBwEIQAACEIAABCAAAQhAAAIQgAAE6pAAjpk6hEvVEIAABCAAAQhAAAIQgAAEIAABCEAgHAEcM+HokAcBCEAAAhCAAAQgAAEIQAACEIAABOqQAI6ZOoRL1RCAAAQgAAEIQAACEIAABCAAAQhAIBwBHDPh6JAHAQhAAAIQgAAEIAABCEAAAhCAAATqkACOmTqES9UQgAAEIAABCEAAAhCAAAQgAAEIQCAcAV6XHY4OebUm8Pjj/5Z1GzbUujwFE5/A4kWLZWdenjuQDu3bS4eOHRJ/UIygRgSWLlsm27dtd8u0bdNWunTtXKPyGCc+gZUrVsrmLVvcgbRs1VJ6dO+e+INiBDUisHbNWlm/936gWbNm0rt3rxqVxzjxCWxYv0HWrF3rDiQnJ1v222+/xB8UI6g1gX5995NTTzul1uUpCIFkJYBjJlmPbJzH9dbb78iixUvi3Auary8EFi5cVF+6Qj/iRMA9B76KU+M0W28IfPvN/+pNX+hIfAhMm/Z9fBqm1XpDYMaMH+tNX+hI7An85LBDcczEHjstJgABHDMJcJDoIgQgAAEIQAAC8SewdPFCKSsrdTvSsVMXyc5pEv9O0QMIQAACEIAABBKeAI6ZhD+EiTGAUf1YxpIYRyp6vfx63rqgyjgHgnCkRIJzICUOc9hBJts5sHjhHCkuLnHH3LdTC+nSoW3Y8ZMpkmznAMe05gQ4B2rOLNlKeM+BZBsf44FANAjgmIkGReoIS+A3Jw6Ri4/qF9aGzOQjMOqaVySvsNgd2LlH9pNrJwxJvkEyorAEjrhhsmzaWeDaTDikt9x+1kFh7clMPgI3PPOtvPntUndguS2z5fErxiT0IF98+5OAY+aS8QPkpEP7J/R4YtH5U+96T+at3OY2NXy/9gl/DsSCWbK1cf4Dn8j/Fqx3h9Wva2vOgWQ7wBGM5//+M00mfcmy9ghQYZLCBHgrUwoffIYOAQhAAAIQgAAEIAABCEAAAhCAQHwJ4JiJL/9at15WViYlJSXOWveyWtdBQQhAAAIQgAAEIAABCEAAAhCAAATiSwDHTHz516r17777Ti6//HI56qijZNy4cfLee+9JeXl5reqiEAQgAAEIQAACEIAABCAAAQhAAALxI4BjJn7sa9Xyjh075OSTT5aTTjpJPvzwQxk5cqQce+yxMmXKlFrVRyEIQAACEIAABCAAAQhAAAIQgAAE4kcAx0z82Neq5QULFsjq1avliSeekLS0NBk/fry7nOnVV1+tVX0UggAEIAABCEAAAhCAAAQgAAEIQCB+BHgrU/zY16rl4cOHy1NPPSWHHXaY65iZMWOGW8/hhx9eq/ooBAEIQAACEIAABCAAAQhAAAIQgED8COCYiR97d6ZLYWGhLF++XFasWCHr16+XNm3ayKhRo6R169bSoEED1+ajjz6SESNGSPPmzV3dueeeK7t375YPPvhA7r33XvnFL34hp59+ehxHQtMQgAAEIACB5CcwsEcHKSopdQfaull28g+YEUIAAhCAAAQgEBMCOGZigjm4EX2T0tSpU+Wuu+6Szz77TNQ5Y4fs7Gz56U9/Kn/961/loYcekgceeEDef/99OfLII10z3ej3/vvvd/eVyczMlFNOOUUaNmxoV4EcZQKrN++QL2Y6zrOt+XLQ/h2dTxfJaATzKGOu19Wt37pTvpi9Ulau3yHD96s4Bxpn8hVarw9alDu3eXu+ew4sXrNVhvbpICP7d5acrMwot0J19ZnA1/edL2nLNots2CmSmSXle4qdOL0+d5m+RZnAjl275eu5K2X20o3Sv1tbGTmwi7RqgpMuypjrdXVbduySL+eslIWrtsiQ3u3l4P5dpWnjjHrdZzoHAQjUfwI8VcT4GO3atUsuvfRSee6559w3KeXk5MiJJ54oBxxwgAwZMkRyc3Pl9ddfl2eeeUYGDx4saq9BX41tgu4tc/3117ufJ5980p0t8+ijj8oFF1xgTIijRGCN45D59b2T5b1v5gbV2LpFU/nzhUfJRccdFKQnkXwE9GH8svvflNemznRmsFW+/axFsyZy8zlj5XenjHKXFSbfyBmRIaAPYr9/8C35z5TpUuI41k1ompMtV59xmNx01hhnNmOaURMnIYG0olJJmzxDSt6YI1Jc+T0gWQ2l4SkHiBwzSMobsm1fEh76wJB0ptRN/5oij07+RgoK9wT0jR3H3K+OHSF3XXK0ZGfwcB4Ak4TCzoLdctXD78hz70+T4hLrWpDdWH536qFy87lHSCNntjsBAhCAQG0I4JipDbVallHnis5u0dkvGrp27Sq6ae+wYcOCHuwOOeQQue6669wZMjNnzgxqTWfbbNy40XXgqIPm7LPPlt///vfyf//3f6JLnBo14pAGAduHhM6SGXHxI7Jhy44qtWzZnieX3PuqzF+5Wf562fgq+SiSg4D+KnbQJf9wZslsqTKg7Tvz5eqH3pCZS9bJE9efUiUfRXIQyCssklGXPSoLVqyvMqC8XQXyp3+/LzMWrZFJt/2ySj6K5CCQVlom5fe8L6WzNlYd0O5SKX1+hjRc6syi+e1YcS7mVW3QJDwBdcofdc0T8vkPS6qMpdCZNfXIpC/lf/NWyxcPXSTpDbkPqwIpCRQFRUVy6BWPyZyla6uMJq+gUO54+gOZtmCNvDXx7KB7+irGKCAAAQiEIIBbNwSYaKt1+ZEuXTJOGV2CNHnyZNHNfNXBYgdNt23bVp5//nlp3LixneU6YdSh89577wX0WreZWRNQIuwzgfP/8mqQU0aPi9fx9cArU+WrOav2uS0qqJ8ELv3bG0FOGb9z4Ol3v5O3v55fPwdAr/aZwNWPvBPklPE7ByZPnS3PvF+xEfs+N0gF9Y/AO7OkzM8pY/W09OtVkjZ1oaVBTCYC9770RZBTxnwPaGzCtHkr5LanPjFJ4iQjcP2j7wc5Zcw5YA9TZ1c//tZ3tgoZAhCAQMQEcOtHjGrfDDdt2uRu1Gtq0bcq6fKlcKF///5y6KGHupv8GjudddOkSRNp2rSpq1qyZInk5+fLhAkT2GfGQIpCvHTtFvn4+0WBmtRBps40DTprKS8vz12Kpr+i3fvfz/i1PEAqeYQteQXy1leVS9i854D+3em5oOG+l76UY0ftnzyDZyQugcI9JfLSx5WzFvU7wDjL9dgXFBQElpk+8OpXcs7RQyGXbAScVUtlUyJzvJZPmSdy+H7JRoDxOAT++cY3AQ7p6emiewHqg7n+MKbfA8XFzl5DTvj3O9PktvOPrPKDW6AwQkISKC4tkec/+CHQ9wxnyZqeAxq814KHXvtGfn38iIAtQlUCS5ctlYkTJ1bNQON+d+gLYDp06CDt27eXTp06uask9IUwhOQngGMmRsdY94LZvn17oLUTTjjBfcNSQOEj6B/h2LFjXceMcQrcfPPN8uWXX8ott9zivqnphRdecPemefjhh7kR8GFYW9WnPyx3b7i0vN58Gf6a1uOiD2d6M6bhx8Xr3Jj/kouAbva8p6jiZltH5ncOmJlqs5ZVXeaSXDRSczTTF60WXa5kgvccyMrKch3jmr9g1Ub3O8P+Bd2UI05cAg225EnJpuAN+kONpmzZdmnofGeUZ7AZcChGiajfml8gy50fa0zQv3vzd66x3g8Yx4wufV6+fpv06NDKmBMnAYFZSzfIjryKPR91OHoOmGDuCfUHOw0LV64XdeSwpM0QqhrPmzNXPnj/3aoZaHwJqBOwX79+7o/1ui/pEUcc4WuHMvEJ4H6LwTHUX1S++uqroJYOPPDAoHSoxFVXXSVz5sxx/xjVRj2o3333ndx2223So0cPee2119y06gnRI5BvbexnbsDs2m2d/qpOSD4CureICfbx9tMVFXEOGC7JFNvngI5Lb8DtYJ8XhbuLnI2BK16jbNsgJzaB8pp8v+sEut18FyT2Ea/a+535lRv9aq79d++X3lkQbF+1RjSJRiBvV+X9gPbdey2wx6ObAnNfaBNB3lcC+kPw999/L3//+9/dH+wHDBggTz/9dGDW9r7WT/n6Q4AZMzE4FuqYMZ5005y+jSmSoNMldUmTHVQ3evRo92PrkaNHYECP3EBlOk21tLQ0aKmY+XVMjbq2axGwRUgeAoN6tAsMRv+GdRmhvceQfQ50bNs8YIuQPAQGOd8D+hCmx1+DHnNdxmCC/ba8Dm1b8AupAZNMcdsmIunOPiL2m5hCjC+tRYaUNw3eFy6EKeoEIqDX+GbO67B3OjNnNOjfvd6HmWBfC7IzM6Rv57YmizhJCAx07gf0zXvmzYzhrgVtWzWXZtmVM2qSBEFUh5HjbMnQq1evqNaZLJXp/YbOxtbl8mZWtndsc+fOlfPOO0/uvvtuefzxx0VfGkNIDgI4ZmJ0HL2/sMSoWZqpJYHDh/SQ3NbNA5v/6hekTlfW46gX5CJnd34TJvxkgBGJk4jA4F4dpGentrJ0zSZ3VHoOmH0FvOfACYfsn0QjZyiGQKc2zeWA3p3kR2dJkwa9SdLvAf21VB/O9uyp/GX8ZyP6mmLESURAlyU1PLCTlH5bcQ6EG1qDEV2kvHIv2HCm5CUQAX0gP3xIT3nzi9lur/XXa3140u8B/eGmsLByqdvIQd2lcSa31gl0eCPqauvmOTJsv67ynbPBs4Zw14KjDuoTUZ2pbDRmzBh59B8PpTKCiMa+ZcsWd1WEzpbRt/Tq6ovVqyuvReqg0S0vHnzwQbnooosiqhOj+k0geF52/e5rwvZOH+ZzcytnYOhAtm7dGtF49KKve9NoTIgdgUbODde9lx8TmLKsN2F6M6YXY9sp079nR7ny1NGx6xgtxZTAA789XtIbVX5N+p0D3Tu2kZvOGRvTftFY7Ag8/LsTRH8FN0EfwvR7wHbKtG/TQv5y0VHGhDjZCJx5kKTlVDxsX1S4Sc4r3Oh+ZpZWOujTWjm/kJ88LNlGznj2Erj/imOlZTNn9tTeYL4HbKdM05xsefC3xxkT4iQj8ODvj5fsxhUvgdChmXPAvhbobJl7Ljk6yUbOcOJFQDcB/tnPfiY33XST/Pe//5WVK1fKs88+G7SSQs+/yy67zH2Tb7z6SbvRI1D5xBG9OqnJQ0AdM0cdFXzT7t1zxlMkkPzkk0+kZcuWMnXq1IAOITYEfjF2sNxz2XFBD2V2y4N6dZJ37jpHMho1tNXISURg/MF95eErT5Ym2f7LE/p0zZV37z5PmjaufHBPouEzFIfAqIFd5d83nCrNm/ovP+3avrW8fde5or+oEpKTQHn75tLg2nGizpeXdm2T53dsdT9Lyys2B0/rkCMNr/+plLeoeEtLclJI7VF1b99SXrvjl+5MWj8SrVv8f3vnAWdHVf3xm0aI1AAJCRBCCSW0AKGGJl2qFCGgIFWadAVpUpUiVRT+NJUuoALSIUCkhColgPRAAOmBhCItZf/zm82Zve/uzGs7b/e9t9/z+by9955b5zuz782cOffeOdzfTvqxW3rhtimwaeXQNS6BVZdayF117Gg3t2eg849mofn7u1tP29XN379111Q/jzgE8iCg58lddtklXnv01FNPTXYGkwfvfvvtx0v8PCB3cRv4W3bSCRg9enS8k5KsnZIbb7zRHXXUUQVrVqQNRYYZ/SMOGTIkLRtdjQnIG2bT1ZdwF/3zCffMq++5T6MtlIdHN14bjFw82g5xVSfPGqS5Cey1xSpu/ZUWdX+86XH39GvvuQ8nfxHffK83YlG3/w9Xc3378DXa3FeAczt+f3k3KjLQnP+PR91Tr7zr3p30uVtioXnd2tG0hQO3Xd3NNmvbW9RmZ9Fdj69l6cGux5nbOLftfyIErR6sPYcPdL3XWcbNWG8JN8PzququjJr9uNdZYRH34pWHufP+Ps49/tJ/3ZvvfeqGRgab1ZZa0B2y/ZpuvrnbPGqanUV3Pb5t1l7GrT58ofi34N+vvuve+egzN2zBeWMD/sHbjeIlTXe9MLrguI8++mg3bNgwt9NOO8UGGU23L7YodRcMkS6rIMATRRXQqqmidQnOOecct+OOO8b/QM8++6y7/fbbnbY9y5LJkyc7bbO92mqruaFDh2YVQ19jAstEhpjzD8I9ucaY67r5xRaY150TTW1Dui+BhaL1Zn637w+6LwCO3EUWOOd6ecb4TZd1M6IHNaT7EJg7ugZO3G3D7nPAHGk7AoPnndOdtg/TldqBQdHpBHbYYQd3xx13uMsvvzzum2UvOv0U5N6hd4eRe9s0GBDYdtttnba/lmjNEq2ofcEFF8SLySptovikSZNio43WMrj44otLetZYXUIIQAACEIAABCAAAQhAAAIQaG4Cf/zjH92gQYOa+yC70dHhMdOJJ1suZmeccYZbeOGF42lN8og58MAD3bnnnuuWXHJJt/TSS8c7fmiV7UcffTT2rLnuuuvcCius0ImjpCsIQAACEIAABCAAAQhAAAIQqGcCs802W7w48EEHHVTPw2RsZRLAY6ZMUHkVk3FGxpiXX37ZHXPMMW7ttdeO96q/6667YgPNmWeeGS/qpDmDL7zwQrwat9aYQSAAAQhAAAIQgAAEIAABCEAAAkZAC/8OHjzYkoQNTACPmS44eTK0DBw40P32t7+NvWI0J1BTlrRf/YABA2KvmV69eiVbNXfBEOkSAhCAAAQgAAEIQAACEIAABOqYQO/evZ3Wmzn//PPreJQMrRwCeMyUQ6mGZeRBo3+oueaayy222GJujjnmiNN4ydQQOk1DAAIQgAAEIAABCEAAAhBoAgLa/deX6dOn+0niDUIAw0yDnCiGCQEIQAACEIAABCAAAQhAAAIQ8AmsscYafjJeJqNAQaIhCDCVqSFOE4OEAAQgAAEIQKCrCYz/08HO9lAcPN8cXT0c+ocABCAAAQg4zcDQbAvb5ffrr7+GSgMSwDDTgCet0Yb86MsfuCUHz9low2a8HSTwxddTkxaeePUjN/b5d5M0ke5BYMr/2m4Mnnj1Q66B7nHaC45S593k0y++aapr4O1PvrFDIyxC4INP274Hxr/O90ARVE2b9c6kL5Nje+ntT5rqeyA5MCJFCTz5ygdF88nsOAHfMPPdd991vEFa6HQC2u7HpjPZ1j9+qLh9NDgrq9D0Fkrn6y3thyrrp3sF6Z6Rpe+pSIc0OIEfbrO9e+31CQ1+FAwfAhCAAAQgAAEIQAACEMiLwLrrrO0u+r8/5tUc7cwkoI1jtKGMZJlllol3+Z2ZRZBBIDJmjYyyBM3/aIEePy1HWT9tcen9PEtbqHISC01vofIUl8ShjCQIBCAAAQhAAAIQgAAEIAABCEAAAg1IwKYxNeDQGfJMAkxl4lKoCYG+ffu6WaMP0n0JTJ021U2f3mok1s5jvSNLPtK9CBRcA9H513WAdC8C06ZNc9Nm7g6h7wCuge51/nW0Ov+6DiS9evV0fXr3ieP86T4E/GtAa2HM0odroPuc/fZHOssss7RXooEABBx3yVwENSFww/XX1qRdGoUABCAAAQhAAAIQgAAEIAABCDQTAaYyNdPZ5FggAAEIQAACEIAABCAAAQhAAAIQaCgCGGYa6nQxWAhAAAIQgAAEIAABCEAAAhCAAASaiQCGmWY6mxwLBCAAAQhAAAIQgAAEIAABCEAAAg1FgDVmGup0MVgIQAACEIAABLqKwIMPPphsRzpixAjXv3//rhoK/UIAAhCAAAQg0EQEMMw00cnkUCAAAQhAAAIQqB2BzTbbzH311VdxBzfeeKPbdttta9cZLUMAAhCAAAQg0G0IMJWp25xqDhQCEIAABCAAAQhAAAIQgAAEIACBeiOAYabezgjjgQAEIAABCEAAAhCAAAQgAAEIQKDbEMAw021ONQcKAQhAAAIQgAAEIAABCEAAAhCAQL0RwDBTb2eE8UAAAhCAAAQgAAEIQAACEIAABCDQbQhgmOk2p5oDhQAEIAABCEAAAhCAAAQgAAEIQKDeCGCYqbczwnggAAEIQAACEIAABCAAAQhAAAIQ6DYE2C6725xqDhQCEIAABCAAAQhAAAIQgAAEGo3Afffd53beeefMYbe0tCR5EyZMcAMHDkzSfmSBBRZwzz77rK8iXicEMMzUyYlgGBCAAAQgAAEIQAACEIAABCAAgZDAhhtu6CZPnuymTZsWZrVLf/vtt+7jjz9up5diiSWWSNWj7HoCGGa6/hwwAghAAAIQgAAEGoDAwQcf7KZOnRqPdPjw4Q0wYoYIAQhAAALNQmCrrbZyN910U9WH06NHDyfPG6Q+CfSIhmXrzCgu8UPF7aM8K6vQ9BZK5+st7Ycq66d7BemekRvWU5EOgQAEIAABCEAAAhCAAAQgAAEIQGAmgT59+pTlNZMGbNSoUW7cuHFpWd1SFxmqRkYHPiP4TA/SmiMWllFaej/P0haqjMRC01uoPMUlcSgjCQIBCEAAAhCAAAQgAAEIQAACEIBAHROQ10w1grdMNdQ6tw6Gmc7lTW8QgAAEIAABCEAAAhCAAAQgAIGKCdx4442ud+/KVyNZc8013ayzzlpxf1ToPAIYZjqPNT1BAAIQgAAEIAABCEAAAhCAAASqJlCp1wzeMlWj7tSKGGY6FTedQQACEIAABCAAAQhAAAIQgAAEqiNQqdcM3jLVce7sWhhmOps4/UEAAhCAAAQgAAEIQAACEIAABKokUK7XDN4yVQLugmoYZroAOl1CAAIQgAAEIAABCEAAAhCAAASqIVCu1wzeMtXQ7Zo6GGa6hju9QgACEIAABCAAAQhAAAIQgAAEqiJQymsGb5mqsHZZJQwzXYaejiEAAQhAAAIQgAAEIAABCEAAApUTKOU1g7dM5Uy7sgaGma6kT98QgAAEIAABCEAAAhCAAAQgAIEqCGR5zeAtUwXMLq6CYaaLTwDdQwACEIAABCDQOARaWloaZ7CMFAIQgAAEmppAltcM3jKNd9oxzDTeOWPEEIAABCAAAQh0EYEzzjiji3qmWwhAAAIQgEB7AqHXDN4y7Rk1ggbDTCOcJcYIAQhAAAIQgECXE5C3zHnnneceeeSRLh8LA4AABCAAAQiIQOg1g7dMY14XvRtz2IwaAhCAAAQgAAEIdC6B++67z3344YfuqquucqNGjerczukNAhCAAAQ6hcCMGTM6pZ88O5HXzE033eTkLTNmzL2u0Y5B49anO4uO3rxmjIQfKm4fcbKyCk1voXS+3tJ+qLJ+uleQ7hm9jXoq0iEQgAAEIAABCECgrgjsvvvu7oorrnALLbSQe+edd+pqbAwGAhCAAAQqJzBp0iR3+513uX898KB7a+JbbsrkKe6bb7+tvCFqdIhAz5493eyzz+7mnXdet+KIEW6jDdd36623jpO+VhIZgkZGbcsK53+mB2ktLOfnW1x6P8/SFqqcxELTW6g8xSVxaIYSKRSX+KHi9lGekVFoegvN4BKmTW91/DSGGVFFIAABCEAAAhCoawKaxjR48ODYY0YDHTduHF4zdX3GGBwEIACBbAKff/65+8OFF7l//O0fGGKyMXVpzqJDF3GHHnqg23jjjWoyjnozzMhIgkAAAhCAAAQgAAEIFCFg05isyIUXXmhRQghAAAIQaCACr776mttu+9HumquvxShTx+ftzbcmukMO+6U79rgT3bRp0+p4pPkMjTVm8uFIKxCAAAQgAAEINDGBq6++uuDoHnjggYI0CQhAAAIQqH8C48c/5/b62b7uq6++Tgbbt29fN3LlldzIVVZ2g+ef380222xJHpHOITB9+gw3efKnbsIbb7pHH3nMvfnWW0nHN918s3vvg/fcny65qKZTm5IOuyiiaUfmNaO4xA8Vt4/yrKxC01sona+3tB+qrJ9mKlMEBIEABCAAAQhAoH4JhNOYbKQPP/ywW2uttSxJCAEIQAACdUzgo48+cjvs+GP3cbSujMl6667jDvz5/m7gwAGmIqwDAg8+9LA7//wLCs7V6NE7uBN+fWxuo2MqU24oaQgCEIAABCAAAQjUnkA4jcl61O5MCAQgAAEINAaBk07+bcGD/t577+lOPul4jDJ1ePrWXWdtd+klF7rFF18sGd311//NPfbEk0m62SLyXkEgAAEIQAACEIAABDIIhNOYrNjtt99uUUIIQAACEKhjAprC9MCDDyUj3HqrLdyuP9k5SROpPwL9+/d3Z5z+WzfPPP2TwZ1z9rlJvNkiGGaa7YxyPBCAAAQgAAEI5EZA05juuuuu1Pb++9//xrszpWaihAAEIACBuiFwzbV/dTNmtO5crAf9nx+wX92MjYFkExgw33xurz33SAq88J8X3YsvvZSkmymCYaaZzibHAgEIQAACEIBArgTuvffeZIvstIaZzpRGBR0EIACB+iEgA/u4aEFZk6223NLNOuusliSscwJbbP4DN+888ySjHDPmviTeTBEMM810NjkWCEAAAhCAAARyJZA1jck6YTqTkSCEAAQgUJ8E3nn3v9GOP5OTwa0XrV+CNA6BaJFeN3LkysmAxz/3fBJvpgiGmWY6mxwLBCAAAQhAAAK5ESg2jck6YTqTkSCEAAQgUJ8EPnz/w2RgesgfusjCSZpIYxBYeKGFkoF+8sknSbyZIhhmmulsciwQgAAEIAABCORGQNOYtL1qKbnyyitLFSEfAhCAAAS6iMCnU6YkPfeLpjD17t07SRNpDAJzzj1nMtDPP/8iiTdTBMNMM51NjgUCEIAABCAAgdwIlJrGZB3ddtttFiX0CIjL6NGj3TLLLBNtebq423rrrd2ll16aLMDpFa1J9KVogch99tnHrbLKKm7IkCFugw02cMcdd5z77LPPatJf2OiU6GHw2GOPdeuvv37c/6qrrur23Xdf9/LLL4dFa5Nume7czTc7d/ChbsZGm7mWrbd17qijnXvkkdr0l9Kqtpr/8Y9/7JZbbjm36KKLui222MKdf/75btq0aSml81c98cQTbrfddnMrrriiGzp0qNtkk03c6aef7r7++uv8O0tp8f3333eHH364W3vtteNrYK211nKHHHKIe+edd1JKo6oVgZYZLW1NRx4zSOMRkKdTItGaQc0oOkIzztjR+qHi9tHxW1mFprdQOl9vaT9UWT/dK0j3jNyGn4p0CAQgAAEIQAACEOgyAprG1LOnblnKk4ceeih++CqvdHOX0s4nu+66q7v22mtTD3TUqFFORhtthVorueCCC9yRRx7pvvrqq3ZdLLDAApG94mYnQ0mt5PHHH3fbbLON++CDD9p18b3vfc+de+65sdGoXWZeis8+d+6An7tp9/87tcXe+4x27sRfR3fzuhXPX/T/c8ABB7iLL77YKR7KiBEj4t3OBg0aFGbllj7++ONjI8zUqVPbtTls2DB35513OoW1kjvuuMPtsssuBWubWF9zzTWX+8tf/uK23TYyliE1J3DX3WPc4b84Iu5H/3933v7PmvdJB/kSuOXW29zZ5/w+bnT+gQPd2Pvv6XAHkbFnZNSIturyP5FFuyCtLzA/3+LS+3mWtlDlJBaa3kLlKS6Jw/LvOFor8RcCEIAABCAAAQg0PQFNYwqlT58+iWq22WZL4oqwO1MbjsMOOyzTKKNSj0QeG9tvv31bhZxjeiA+9NBDU40y6uq9995zW221lZs0aVLOPbc2p+lv8g5KM8qohIxFBx54oBszZkxN+o8bPezwTKOM8qddcr1z519Qs/5POeUUd9FFF6UaZdTp+PHj43Ng2xfnPRB5ZmkMaUYZ9fX666+7zTffvGaeM/KK2mmnnVKNMupfXlsyXooDAgEIQEAEMMxwHUAAAhCAAAQgAIGAQDiNSevI+IaZ0047zc0xxxxJLXZnakUxceLE2EvCwMjrSEYsfXx+Y8eOjb1WrFyeoaaK2FQZub/rDfnss8/u+vXrl3Tz4YcfumOOOSZJ5xk56qijCtYmUr/qX+Mwd3wZDA466KA8u21r6/773bQ7x7WlM2LTzrvURQPNyK1erYU5f/e73yUN+NfALLPMkuj//e9/uz//+c9JOq/Id999V3Bu7RrQNej3/9prr7mzzjorr24L2pFh8Isv2tbBsGvAvwb/97//xdOaCiqSgAAEui0BDDPd9tRz4BCAAAQgAAEIpBHQ1Iu77rorztL6KK+88kr8dtsvu1C0Q4Qe7rV+huTdd991Dz/8sF+kW8avv/569+2338bHrgdiGa9kkNFHD8b+ops33HBD7oy0roy8IUzsYVz99u3bt8A4c/fdd1uxXMN77mlzsdeDuPpV/zIKaDwmuq4mTJhgyfxCr/+ijX4TrfNy3/1Fi1STqWliMjqYyChl14CMU76B7sYbb7RiuYVa18b3hlL/Yq9+1b9vnPnnP/Of0iKjm/9doD7tGlDoXwNaAydtul1uMGgIAhBoGAIYZhrmVDFQCEAAAhCAAAQ6g4AerD/++GO3++67u2eeecYtueSSqd3qofuaa65xl112mZtzzjmZzhRRkheCiR6EzUPEdP5D8RtvvGHq3MIXX3yxoC3fEKQMP62FWfMWTc3RVCkTvz/pwvQLL7xgRfMLJ75dflsT3yy/bJkl/cWNdQ2EazX5hhl5WOUtfv/qu1evwnV0/P613X3e8vbbbxcYpsJz7qe1CLFvSMx7LLQHAQg0DgEMM41zrhgpBCAAAQhAAAKdQEDeMpq6pMU5fUNCVtd77bWXe/TRR10tHjKz+qxXvQxUJmnrh/gLwfpTwaxOR8O55567oAm/P2X4Y5InQ95i03asXb8/6cL0PPPMY0XzC2ebvfy25qigbJmtamFbk+nTtY5mofjnxPceKSxVfcrv3+/LWvR1teg/PKd+fxpDeA3UchFsO2ZCCECg/glgmKn/c8QIIQABCEAAAhDoRAInnXRSvJtKJV1qypOmRWQtNlpJW41cdr311kuGr3VetN6HidL+NsVrrrmmZeUWrrHGGgVTRfz+9EDsp7WFcy1k2WWXTZpVf/Ygrgf0b775JsmTYUpbeecuI1csv8lV8t+ZStuDm+jYbWqbdDLU+OdA5ytv2WCDDRIvHTEv1v/KK6+cd/fxbmPaGtyk2DWgHcK0lTsCAQhAAMMM1wAEIAABCEAAAhDwCPheH566ZHTWWWctWD+jZIUmLKDdjpZaaqnkyLR+hnag+fzzz92XX36Z6OXZcvDBByfpvCLygNBuOCYyDE2ZMiXuX2MwI4nytZ12LeSII1q35VXb6k/96iMOvqHqJz/5ScGaN7mNZeedXI/52hamzmq316rDnVt99azsqvVrrbVWgcFJhgm7BvwFcXWufvnLX1bdT1bFRRZZxG266aZJdti/ebBoSpMWaq6F+As7yyDpXwO+8VZbiiMQgAAERADDDNcBBCAAAQhAAAIQgEAuBDSVR+vu+MYtPQj7BhE9EF944YVuvvnmy6XPsJFzzz3XDR8eGR088fuXes8994y3tPaK5BbVVuA//elPC9oL+5dXzdlnn11QJrdE/3lcr9+dFC1o0yOzyR4D5nA9zjnDRYsAZZbpSIaugXnnnTdpIrwGdJ1o56ahQ4cmZfKMaLcnLdBtEvYvvYwyI0eOtCK5htqVaeONNy5oM7wG1l13XXf00UcXlCEBAQh0XwIYZrrvuefIIQABCEAAAhCAQO4E9LD7+OOPu3XWWadd2/Km0eLKO++8c7u8vBSaIvTYY4+5vffeu90aQVr/4w9/+EO8YHNe/aW1c/nll7vzzjsvntbi52tXnn333Tdek6gWa9wkfW22met985Wu94pLJCqL9N5sbdfr9n84N6x9npXpaKgFs5966im3ySabtGtK03xuvfVWV0tvkUGDBsX9/+hHP0qmNdlABg8eHBsPTz75ZFPlHmrR6zvuuMP9+te/jncm8zuQp5CMQmPGjGk3Nr8ccQhAoHsRkJncjDNmMvdDxe0jMlZWoektlM7XW9oPVdZPa5l0P90zsmg/FekQCEAAAhCAAAQgUFcE5AHw6aefxmPSejJbb711XY2vHgejBZFlpNHaKquuumrsyRLu1FTLcU+ePDnuXzvlrLDCCm7FFVd0mnLWWaLjfvrpp512X5J3yGqrrdbOWFPTsUTeStGq1M5F24hHB+5ctBaSi4wWnSnaSl7XgKaUaU0dre0jj5nOko8++ig21ClcaaWV4uvA35mp1uPQ1uFPPvmk0/boSyyxRPx/UIuFr2t9HI3c/l13j3GH/6J1iqEMonfenv826Y3MpxHGfsutt7mzz/l9PNT5Bw50Y++/p8PDjn6L5DI3I/hoxXJfF32JFqQtT3o/z9IWqpzEQtNbqDzFJXHYuzXOXwhAAAIQgAAEIACBLAKaCuEv3Dr//PNnFUXvEdB6H/p0lWjHmx/84Add1X1sBBo1apTTp0sk8txwkYdK/OmSATi34IILuu22266LenduYPQQ15VGVHnIfP/7348/XQaBjiEAgbon0Hnm6rpHwQAhAAEIQAACEIBAOoGxY8c6LWQr0RbatdrRJ713tBCAAAQgAAEINDMBPGaa+exybBDopgQ0t1w7X2h9A003kLzxxhvuvffei+NLL710zRadjDvoxD9aTPCRRx6Je+zXr1/NFjLsxEPKpatmPd+5wKGRqgicddZZST2tk6K34AgEIAABCEAAAhDIgwCGmTwo0gYEIFAWgQ8++MBdcsklcdktttiiZkYEbUup7TEnTZqUjOuUU05xWoxRcswxx7jf/va3cbzR/2jrUVtgc/bZZ3f+VqSXXnqpe//99+OFBw877LBGP9Rk/OVcR41wvss5juSgiXQpgRtvvNHdfffdyRh++MMfJnEiEIAABCAAgVIE9MLw3//+d7zm1IQJE+J7s2WiNZ801XLuuecuVZ38bkAAw0w3OMkcIgTqhcADDzzgTjjhhHg4WnytVttU1svxdvU4tCPIiy++GM+vbybDTLNcR81yHF19nde6//Hjx8e7+9hWt/KU+fnPf17rbmkfAhCAAASahIB2KNNubFqEPBTdD8vY//vfty5sG+bXU1oLme+3335uscUWc9ddd109Da0pxoJhpilOIwcBAQiUIqCF96ZNmxYXMw+TUnUaIV9rXeyyyy7xUNnloe2MNev5bjtCYp1BQG835d2nnX1MDj744GhTm87d1cb6buTwueeec3oAGTZsWCMfRsOOferUqU7nQFtFL7DAAg17HAwcAo1G4LbbbouN+fLk1v+eflPkKSOP5rvuuiv+v7zzzjsbwjCjdda0057uPZH8CWCYyZ8pLUIAAnVIYLfddnP6NJtoXZmrrrqq2Q6rw8fTrOe7w2BooCwCr776qjvxxBPjNapswV9V3Hjjjd1vfvObstqgUCGB9ddf32l9r3HjxhVmkOoUAnpTr62q5e31xz/+sVP6pBMIdHcCmr503HHHxdPrV1ttNXf11VcXTFv65S9/6f7+97+n/q5oJ0D9/pS7npnK9u3b1/Xq1asodr2k7N072wSg3Qe1nXypdop2QmZVBLLPSlXNUQkCEBABuSzee++97plnnnEffvihGzp0qBs+fLjbddddkzdVDz74YFxO5ffcc08311xzKVogf/nLX9yUKVPit7M777xzknfBBRfEi9sutNBCbocddoj1mq963333xXNWVVZv/+gDSwAAObBJREFUeh966KE4b8cdd4y3q9SXrXYWeeWVV+KtI+WKaCK91lB49tln47VZlDdixAinKTB6y+lL2L+ORWswPPHEE/HWoKp39NFHx1NorJ7WO3n44YctGfflf+nrhn2zzTZL8suJXH/99fExy7VS1nstyCkXyzTRm0LxkYwePTo5D1ZW5+vmm2924qgfN7FdfPHF3Y9//OP4YcLKhcc+ZswYd8cdd8THLiPJ6quvHp9P1fXlpZdecvfcc4/7z3/+47S2yCeffBL/MM4777zxGjH7779/zM6vo3jYn3ThuRbbL7/80g0ZMsT96Ec/it++6Fh17Ug+++wzd+6558Zx/dGb0+nTp8f96brT9Zcl//d//xdvESxvnL333jurWKq+kmtKDWhtoD/84Q8xo3feeSf+n9D/zpprrul0Descl3sdZZ3vkOe1114bn7+XX37Zrbjiim7LLbd022yzTXw8uinSdX3rrbe6559/3i288MJup512iq+f8IArPb/lHof1o3MpA5y+W3QN6XzoO0XnWw+8SMcIyCPm0Ucfjb8j9D+t82kedtby5ptv7m666SbXs2dPUxFCAAIQgAAEMgnonkYbT+g+Wmsspq0lo99xGf1NtKHD8ccfn9yPzj///G6DDTZwp512mtN9pkSeNnpJIA9wed/o3kbGV90nrb322nHaf67QhghaX1HT2/VcMs888yT3zFrj5tRTT43vgbU2o+4ne/ToEXvX6Z7niCOOiI00ul8655xz4v7/+9//xv0ooXt5jcfGFhfgT9UEdIehj8xr+shYo0+f6CM/pb7RZ9aZHz2d6TN79Jkj+swZffQ0qRWL5ok+80WfAdFnYPSRn698JReKPgtHn0Wiz6LRR08rS0SfpaLPMtFnueizQvRZMfqsHN0IIxBoWAKRm2LLz372s5bIEt0SXc/tPtEXZsuRRx4ZH99ee+2V5EdflKnHHD2UxmUWWWSRgvw555wz1kdvv1pee+21lpVXXjlpa9FFF43L/vrXv050keGgJVrstiWyuie6yy67LC737bfftuyxxx4t0ZdwkuePPXoYbYkML6n9r7DCCi2RZ0Jq3YEDB7ZEhpqkntJ+u2Fcx1CuRA+pLdGPWNH21P6oUaOSJs8888ykfDQvNtFHP0At0YNtkheOS1wiw0VS3thHRqCWrbbaKrVeZGxpiYxQSR1Foq11U8taf6oTGVMK6ihh/RU718Y2+nGO6/vHau2HodXR8ekaSpMnn3wyGfNaa62VViRVV801Fb1FaoluFJL+wvFGNzMtkRdDi407zLe0XUc+A/98G89ll122JboZSe0vupFqiYxzmdfYIYcc0u64Kz2/5R6HOorWomlZcMEFU8eq7xp9l0SGtnZjqmdFdOPYEq0x1SUfXSP6/42Mry36v4tumFPZ2jUV3Wy2HHvssS3RGjP1jLTux6b/b/87ue4H3GQDfP311+PrPPKYabIj43AgUJrAnXfd0zJ82RHxZ+Sqa7Z89NFHnfJZb7314v+77bffvqz+LrzwwpbI6yWuE007bNF9nf1GLbnkki3vvvtu3E60hmDB75bu5SJDTKKLpksl/f3tb39riTaHiPP0HBC9OGyJXu7Eaf0Oi0XkzROnda+lfqIpV0lbeq5RmZNOOim5J9Xvo8raR/eRtWZ62Z/+nJzD76+/cemTXkaJ6DhWjj6yQcgWIZuEbBOyUchWIZuFbBeLRB/ZMmTTkG1DNg7ZOmTzkO1DNhDZQmQTkW1ENhLZSsxuYnYU2VRkW5GNxewtZn+J7TFSIhCAQE4E1l13XRc9zMatRV+SsQeD1iLQfMzoCyv2ctGb+bwkutGKF9CVp0Exib5UXfRlnlpEb9tlnZdorHK1lNVbnjPyrJEFXt4K8tIIPWfklaCPRO6T0Rd0fJzRd2EcHnDAAQkPeYbIpdO8OKIH5AIPEVnvy5Xoh85pQU6JOEcPra5///7xWwl5olQi8i6SZ4dEbxqWWGKJ+E2C2MqzRceStlib2Ogj0bHrzYTOsURjkOfFW2+95XScvqgPzTHWRx5MauN///tfXEfeOS+88ELqVt7lnmv1pTUEogf/ZDxyWQ356rzL40jHJ6+Ys88+2x9mHLcdtJTQNVSuVHpNybtrn332iT2V1Md8883nIsNJ7Lml/x3x0XWj6zyv60heJ/pIdI7EwXa0+tWvfhXP9RZzia5reRhZvniJh8YYSrnnt9zj0FsoefBExq7YU0P/n7pGNTf98ccfj8f0pz/9KV6IT2/DGkX0/2s863XM+p+xt4WRcbxeh8m4IAABCECgTgnIs0QSvcgsOULdE5588snx773uieQRI5G3y3bbbec0xVbTEP3NHHQPLI8bTZfSvZ+8Wg499NDYQ1vt6f4veiEce8HIu+bKK6+Mp0Yp7+KLL06mlsqjP3qhG3t920C1k6nqylNUO5nKs3v55ZePxxIZbwq84K0OYccI4I/bMX7UhkBCQFMTzCijG3pNb9GDuR6e9ICvOaTh9JakcpURe1iNvGTcT3/6Uxd5CTjNVw1FRhkZWzbccMN4ipG+YKM3l/FcVzPKRN4fTg+i//znP+OV1uXKb9OCNP7ojXHYbJzWA+ZFF13kPv744/g4NX1LD9YSPXCbAUXukypnoh8AuVPaR9MHyhFxtjZlSNL4Ne1FBiKNQYusaW5sOaLytgWupszofMkwoqlZcj197LHH4h8pf8qV364MQtdcc4379NNP4+PQg76mQEl0bnxjh6acacV9nYs333wz/jHUtBQdf+SNEtdR/JZbbonj4Z9yz7Xq/eQnP4nblXurRNejcbbw9NNPT+YYR29T4nL+H+1Ao2tBonMso1E5ovnTlV5TcsHV9DGJbkR0Xv71r3/F50Jutbr2ZDzRDUZe15H6knFMNxyaxqLpXjaFSWPR/4LOr64nnV/lb7311qoWGxivuOKKOG5/Kj2/5RyHjEW6wZJRRoa/22+/PZ5uoxsr/b9o6o0McBL971dqlLSxE7YR0LWuqY76vpbxS9cmRpk2PsQgAAEIQKB8Arp/lvhLB2TV1gLAKi8DS+SdkhRTXS06L9ELNV801Vu/U6oj0b2aXiZpyrruNXUvpVDTn/USx9armXXWWV3k/etuuOGGuJ5+9zQV30QvwpTWyybdh+kFGVJ7AnjM1J4xPXQTAieeeGJypFoLQnM2TWTRjtwY45XYzXhjeR0J9YV50EEHOf8hO609WbZlRQ+3p7Yxam0Sfdn780M1ZhkStMaGPEHMq8RvX2tu6Hjs4VB5Wl9GD6nyKpDIWCFdXqK3CSZaE8b/IdGYtdq9HuD1o1RKtDaNvHgkK620UrudVuSdIONM2pt9GdlkILIfObUhQ4jOvTxGJDJS2I+r5gunieqrzEYbbRRnmwdSWLbccx3Wy0rrYVPHZ4at+++/P57DbOVllDEPIF275Rq7zIBXyTVlnivq219LSWndPMhYo7c2ofeR8qsVGeJkRJSnlYnOka4piW6EZDjTDY6JjIlmONONji8dPb9+WxaXx5J5Zen7xf5fLV8eO7qxEnMZ7rSGk7bcbASRN50MTl0hWiNG511GGH13DRgwIA41j1/nW98jCAQgAAEIQKCjBHTvJqOGdmQqJfKIkWi9u/CF4CabbOKOOuqo+CWb305YTnm6V9I9gT56ySrRPa5/PxMrvT96EaT1cHSPo/ub8L5XHjb+/a5XlWiOBDDM5AiTprovAb3hl4eFREYILRKZJnrIzHOrZrlGnnXWWWldFehkYAmNMnobbFN09DDnG2Wssn5Q9PCnB/S0qVB6qPGNMlZv1VVXTQwz4QOslakmFGdzC5VBxjfKVNNetNZEbHCQESdaxyM2MmnsoehNQyh6sEv7kdI2zfKa0TjtTUlYV3otlKxpOuJqx6RyWXXKPddhX8XSWvTXvFtkBNDiciZ6syLRQ6oe/suRaq8pXWNmsJThTUa98HrM0yijY9HDuG+UkU43Qzpe3aAoP7yJUb6J/b9b2g+rOb9+fYv/K3rTJdFUuX333TeOh39k0DNjmKZJNophRsZkBAIQgAAEINDMBOTJIq/caA2Wkodp94K6/whFHuISGXnkwVtM/Bdpus+UWP04EfyR0WXbbbdNNiTRPawMOfIq1ku6coxKQZMkqySAYaZKcFSDgE9A67GYpD3YW149hZqyY6LpQfKoSRNZ3CVyZdQUj3CdmbQ6/gOteaSklatU53uThIamSttSef34yeAhzwj9cMrQo3a1ho0MLHpDIeNUpaKpZfqBFS8ZK8zF9Pzzz49dTu2tSFq7Mgp0lmjKk6a+6RxrLRP9OMt4KBdWMwrIeGVTokqNq9prSh5Wmsss0RQhTR+SkUhGTO3UNWzYsDiv1n9klJFBSOct7TzIE0v5uknRVK9Q8j6/mlcukWeJTZEL+/R3DtI6UAgE6pWApgTKEJz20FGvY26mcek3HIEABDqXgLxzNXV53Lhx8e5GxXq370a77/bL2lRl3YNEC/n6WUXj1qbucbNEu3jqPlgvG7WGjTzPTbQsA4YZo1H7EMNM7RnTQzcgoC9dE30JN4KYe6PGqge/cqYVqEw5hhm94a+F+Jw1VSYP0RQRTZ/R9oB6GNe6OPpofRg9DGuaUbHtpNPG4HvY6MdQ64No/q4MDr6onN5IKF8eNJ0tMsJobSFNv9IbGBnndKzapt3mE0c7/pQ9rGqvKRnAZAyT15JENyBa90YfGUO09ou2aMzrnBc7oDS3YL982lbJMuTU4vza2zP1r4faUlLO/3CpNsiHQK0IyMgtQ70Wr0Y6n4C8Ds3Y2/m90yMEuicBGTm0doyM0g899FCm17zWjbN1KP17KaNm94haM7DUfYrVUailDCTPP/+804sc3VOFIqORRNPbfaNMWE5pm+qrDRGQ/Am0Pzv590GLEGh6Av6UFj2kVSppb+crbaPS8nooN9EOM+Us7ioDQleK/1Cc5rFQzdi0e5LeFJxxxhnxgqpaSNhED8YyTMggVM6UMavnv12Q4UULs5lRRoatvffe2x144IHJA4qmiml9i64QrfUhw4xE3ioyzFhank+77757nFfOn2qvKZ1XrXHz5z//OV6cTjcQZhjSjYQWYr3nnnvi6YL+/1o5Y+qMMrU6v+aOrP87W/um2PFkedUUq0MeBDqLgN7yLr300skuIJ3VL/20EpBHXWd5H8IcAhBoJaBdTW3TCu20pHVcbE1BlZBXtV4Qah1HGW/0wk7Tnv76178ma+7pnlIvpyTy5q5EtFusjLKaYn3KKack6x6qDd136d5Uxh6J73Wr5xK9oAx3fdU9rUTt6T6tHu/J4gE26B8MMw164hh2fRFYbrnlkgFpZ59KxR5CK63XkfL+mNVOpV/2HelbdasxrNjbBNXXj1leojcKtqaK1nzRnNoLL7ww2U5ZD8WVGGZsbDJs6OMvnKy1XDSFqDOlmOFvjTXWiN+oaHqVFjrWArJaFFeiXYjCtV6Kjbsj15SMMzJY6aM1fzSWyy67LN41SYvQ6eZAHjShoaia66jYMVSTl8f5TTuORaIFmvV9omPXm6xyvNWqGT91IAABCEAAAhCoDQEZVXbZZZf4vlWhprvLu17TC7XAv7xdda+oHU31ckzrQv7iF7+IX8hoHUftwKg1IVVG22JXImpTm4RoN1at36dp6trcQDtPygCktWROO+20OE996D5O99paHzJtzUNt+qEXidrhU0afpZZaKm5LL880PqRjBHp2rDq1IQABEdDipebed++998ZrdZQi43+B2e43perkmb/88ssnY9aW0eXsYtTR/n2Pl2r689/2ySW0FqItkuVFovVSzBCktwj6EStHVM/WkFFbEjN0yMihtyedLf46JGl977rrrrFa0wy0AJwZCfRjXonkdU3JU0Try8iDRzcoJrZ9d0evI2svr7Da81vqOOx6l2FN3kQIBCAAAQhAAAKNRUD3Rrpn1eL88ojRPaW8VbRuou4DdL+jl4ESLeavj6Z+6qWPdkyVwURr/WlKlHYTlPj3D7HC+2NTnayMNnA499xzY8OPpkndfvvtsUFIGyBot0dtbKAdn3SPqucRGYL0QkxbdIcbL6htGZo0DnmY65lH3uX2DOQNg2gVBDDMVAGNKhAICeiLVovISvSllrV17jXXXBNbrVXO5n0qbtNcFJfoQUy709TSYKMx265G+tLXIrBZovmnlaw1ktWOLO0m/hbJpisVyspvU370g+Z7KlhdebaUu9aGfpz233//zIXN9FZDoh8c35BmfYWhjE36ATTDhtxWJWItkTtqaFBSWW0HXQsxVlpIzrx40vrRjj/mGWMLROqtySqrrJJWPFNX7TW1xx57uAcffDC1Xfu/UqZx7Oh1lNpRB5Q2rkrPb6nj2GmnnZKbHa11lOWNp0WbDzvsMKcF/BAIQAACEIAABOqLgAwcmtIkLxXtQikPYC2sq90U//GPfxRMb9J9pF4GygvlhhtuiNeHkaeLvSzUken+QM8IqhuKPJ+VZ/f4ypentqbla7OSm266Kb5/Vtp23dSLuKeffjpZ32/8+PGxd47GobbMIKS2Nt5443hMup/VxhHy+unqpQ40rmYQpjI1w1nkGOqCgNaZ0HQgeSeceeaZ8UOUXBLlNaF5o1onQ4t7aXqIRF+YeuC3t+F68Ne0En1pqqy/w02tDlA/EpoioQdK7SijL2WtfSLXRptOImOSFmX1DUnVjkfrC2jhMTG65ZZbYm+IUaNGxT9AMg796le/Ktq0rP8ypGg+rrhpUdhDDz00Hq946QfK3yGraGNRphZUveiii2J3UU2R0Q/d8OHDYxdNeSiYsUAGGrmD+iLD0nbbbRe/AdGitPpx1XQoMZTITVUsJTIu2FaJGr8METrXmq6jBXe1pkotRD/iMl6JlRanlcFQCzPrx17HKk8viVbt1xsb6U00xmqkmmtKhr8rr7zSbbjhhk7rHWkhYN3E6P/m8MMPT4ah/y9JR6+juJEc/1R7fss5Dr1h01Q6GczUj3hoxyoZdeRqrLzrrrsuvmb1v4xAAAIQgAAEIFC/BHR/WGqjEN0ry5Mlb9EaMbZOTNi2jC+6/ypHND5NY0LyJYBhJl+etNaNCay11lrxPE5NvZAXhKzc+mTJiBEjnBaevfXWW+OdKk4//fSColpPopqFhAsaKZGQV4TexMvQob5kZdenViKL+vbbbx+7ZmpdHRlVTGQMKmWYUVk9mGrXIFt7Q55FvmgaTKXTpDSPVvzDc6B2ZcjQWiehyJiltw76hKIfNxkazI301FNPjd8q6Jg1zenoo48uqGK7lRQoc0gceeSRToY18+TQWw4TGQbNMCOdvHvMMCMPEBlIqpFqryn9z8hwqU+ayCgjQ6ckj+sorY9qddWe33KOQ3PC9cZKhketNaP/VX0QCEAAAhCAAAQgAIHmIdCzeQ6FI4FA1xPQvEu59Wk70HC+pR7wZYk2t0GNVl4Zmt8Zih6Y5S1gbos2XzQsZ7u2hHql/S2r9eCfJUcccUTsVinPFZvO4pfVThqbbbZZsiK8n5fVv993uDWfHjTNa8hvK61vP9/iMhpoF6U111zTVEmoqU5ah8SmlmRxszHpuLTAWtbbA3koaE7v+uuvn/RhET1U+4YN6XUM8lrQtoZaFM1E3kbyjLGpRabXNaJytk209FnnKou16tjxmCFIOomuQ11jWjzOF5Xzd1BSnr8Vta5JY+jXKzde6TUlDzMx9q8b60sr/suAF073q+Q6Mj7WpsJiPP1yWXG/fkfOb6njGDRoUDwPXbsphF5bNjZ9T2h+uLYdRyBQrwT0f+j/39TrOJt1XPq90W9U2vdhsx4zxwUBCECgkQj0iAZrxhnFJX6ouH2UZ2UVmt5C6Xy9pf1QZf10ryDdM3K5fyrSIRBoeAJaOEsGhI8//jieliHDR9bDrt6G62FeD8yazuE/JHcmCE0x0pSciRMnxgt/abqEDA21uJkWFx231seQS6cWNqtUtPCY1tWQt48WV9N0nGpFc2g1pUjTmzSNRuNJOw8yyMhzQeuvaJ6wxqD5tTp3OsehwcMfjzxXNG1H3j4qt+qqq+YyRczvIy2u86q5xFqgTYY2eWvpOHzRosSa8yyRocg3LPnlKo1Xck3J00kstTCeFiLW4rea7lPMaJfHdVTpMWWV78j5Lfc4NKVJ0/V0vepcjhw5Mp4umTUm9BCAAAQgAIHuTuCuu8e4w39xRIxBHul33v7P7o6k4Y7/lltvc2ef07ohxPzRC8ex97dNv6/2YCKD9cio7ozgMz1ItwRpKy+9n2dpC1VOYqHpLVSe4pI4NEOJFIpL/FBx+yhPRhWJQtNbaAaXMG16q+OnMczEOPkDAQg0CoHQMNMo4y42Tj3sL7LIIk5TreRlY7tKFatDHgQgAAEIQAACEGgEAhhmGuEsFR9jdzDMyEiCQAACEIBANyagKXgyykh22223bkyCQ4cABCAAAQhAAAIQgEDnE8Aw0/nM6RECEIBA3RDQoruXX355PB659+633351MzYGAgEIQKArCUyZMiXeJVFTB7W7nU0L1Y56+u5EIAABCEAAAnkR6J1XQ7QDAQhAoDsRCBd3btRj165N77//fjx8rW+kHaUQCEAAAt2dgNa52mijjdzkyZPdJ598Ei/gfvXVV8c7F8oos+uuu7rTTjutu2Pi+CEAAQhAICcCeMzkBJJmIACB7kHg7rvvdg899FDRrdAbiYS2odbx6HPJJZc00tAZKwQgAIGaEbjyyivjtbf0nf/ZZ5+5HXbYId41TzsvaiH/6667rmZ90zAEIAABCHQ/AnjMdL9zzhFDAAIdILDGGmt0oHb9VdXOU2m7T9XfSBkRBCAAgc4jcP3117v999/fvf3223Gniy22mLv00kudtq7X7oXaVQ+BAAQgAAEI5EUAw0xeJGkHAhCAAAQgAAEIQKApCHz77bdu0003dRdeeGF8PFtuuaXr06dPvED6xIkT3UEHHdQUx8lBQAACEIBAfRDAMFMf54FRQAACEIAABCAAAQjUCYH77rvP9e7d2z377LPxiDTtU7L44ou7K664wjXLOmPxQfEHAhCAAAS6nABrzHT5KWAAEIAABCAAAQhAAAL1REDeMdOnT3fPPfec0451o0aNSoaHUSZBQQQCEIAABHIigGEmJ5A0AwEIQAACEIAABCDQPAS+/vpr98Ybb8SLAPfr1695DowjgUA3I9C7d6/kiNnqPkHRUJFpkaHcpFevtvNpumYIMcw0w1nkGCAAAQhAAAIQgAAEciXw2GOPua+++sott9xyrlkfBHIFRmMQqFMCA+abLxnZN9984/RBGovA5E+nJAOeu//cSbyZIhhmmulsciwQgAAEIAABCEAAArkQePTRR+N2VlllFdaUyYUojUCgawgsuOACBR3/58WXC9Ik6p/Aq6+/lgxy4IABSbyZIhhmmulsciwQgAAEIAABCEAAAh0m0NLSEq8vo4Y22GCDDrdHAxCAQNcRmC/ymBk6dOFkAPfff38SJ1L/BOS5OP7Z8clAV19jtSTeTBEMM810NjkWCEAAAhCAAAQgAIEOE5Bh5r333nNDhgxxK6ywQofbowEIQKBrCay7ztrJAMbce7/76KOPkzSR+iZw1dXXuq+/bp1+1rNnT7fJxhvV94CrHB2GmSrBUQ0CEIAABCAAAQhAoDkJ6Ob/r3/9q3v88ceddmhCIACBxiawx+67u1n79o0P4ttvv3UnnfwbN23atMY+qG4w+vHPPe/+9vcbkyPdcKMN3OBBg5J0M0UwzDTT2eRYIAABCEAAAhCAAARyITB06FA3ePDgXNqiEQhAoGsJDBo00I0evWMyiBf+86I7+rjjI0+MrxMdkfoi8NTTz7rjfn28mzp1ajywvpFh7ReHH1Jfg8xxNBhmcoRJUxCAAAQgAAEIQAACEIAABCBQfwQOP+xgt8LyyyUDe+LxJ90ee+3j7r1vrNP0RaQ+CHw6ZYo797w/uCN/dbT7/PMv40H16NHDHX/csW7hhYbUxyBrMIoeUZtmnFFc4oeK20d5Vlah6S2Uztdb2g9V1k9rE3I/3TP6p3gq0iEQgAAEIAABCEAAAhCAAAQgAIHcCHzyyWS32x57ujfeeLOgzbnmmjMy2izvBg4c6Pr1m7Ugj0TtCcgwNiUyyEx86233yssvu2nTZySdyiiz374/cwcdeECiyyMStTsyakcd+Z/pQVoWOz/f4tL7eZa2UOUkFpreQuUpLolDM5RIobjEDxW3j/JkRJEoNL2FZmAJ06a3On4aw0yMkz8QgAAEIAABCEAAAhCAAAQgUGsC2uXnl0cc5f71wIO17or2O0igX79+7oQTjnNbb7lFB1tqXx3DTKGHDIaZ9tcIGghAAAIQgAAEIAABCEAAAhCoIYGx/3rQnff7891rr71ew15ouhoCWnR9yy22cIce8nM3YMCAapooWQfDDIaZkhcJBSAAAQhAAAIQgAAEIAABCECg9gRef32Cu2fMfdH0pjfcpEmT3FcNuCDwC889l4x74YWHukGDG2vnop7RdKW5+s/t5h8w0K2y6ki34frru9lm+15NT369GWZ61/RoaRwCEIAABCAAAQhAAAIQgAAEIFCnBIYNW9zp08gyfPhw99bECfEh7PbTn7iTTjqpkQ+nW45d670gEIAABCAAAQhAAAIQgAAEIAABCDQggZ492x7rp02b1oBHwJDbziAsIAABCEAAAhCAAAQgAAEIQAACEGgoAr17t02EwTDTUKcuGSyGmQQFEQhAAAIQgAAEIAABCEAAAhCAQGMR8D1mpk/Xjs9IoxHAMNNoZ4zxQgACEIAABCAAAQhAAAIQgAAEZhLo1UubHbcKHjNGorFCDDONdb4YLQQgAAEIQAACEIAABCAAAQhAICHAVKYERcNGMMw07Klj4BCAAAQgAAEIQAACEIAABCDQ3Qn4HjNMZWrMqwHDTGOeN0YNAQhAAAIQgAAEIAABCEAAAhBwvmGGqUyNeUFgmGnM88aoIQABCEAAAhCAAAQgAAEIQAACjqlMjX8RYJhp/HPIEUAAAhCAAAQgAAEIQAACEIBANyXArkyNf+K72jDTEiH0P41PlCOAAAQgAAEIQAACEIAABCAAAQh0EgE8ZqoG7dsiFO8y6SzDjB1wlx0oHUMAAhCAAAQgAAEIQAACEIAABJqNAIaZmp3RTrNj9M75EMzK1MNrVzo/7WURhQAEIAABCEAAAhCAAAQgAAEIQCCLQEtLi9tzzz3d5MmTnXZd0keL/Fr8pZdeSqqOHTvWrbTSSkmeysyYMSNODxo0yD388MOuRw8ezxNg5UXMzmGlczfYdMQwUwuDS3jAduCEEIAABCAAAQhAAAIQgAAEIACBbkdAhpTvfe977vLLLy957JMmTXL6pMnee++NUaYNTC1sD1W3KVOZTWcys5kfKm4fHYLFLVTdrLjyLN/iFqqO4r1mhqbvGVkDn450CAQgAAEIQAACEIAABCAAAQhAAAIRgU8++cQtvvji7rPPPquKx4ABA9xbb73l+vXrV1X9ZqsUGbtWjo5pRvCZPjMtA0uYF+qUNl1a3HRRsYJ1daWXFIQyiJQjVqmcssXK+IMrVo48CEAAAhCAAAQgAAEIQAACEIAABCIC8847r5PHS7Wy7777YpQpH16edouybCnmuaIhKi7xwzCutP+RYcfSYdzSCu2jshZPC3vhMRMRQiAAAQhAAAIQgAAEIAABCEAAAh6Bzz//3C266KLu008/9bSlo/3794+9ZeaYY47ShbtJiZkeM+YhE3rHWFpGFYsr9NNmvDG95Zk+DEXWdBZPQhlH6kk0UAQCEIAABCAAAQhAAAIQgAAEIAABj8Ccc87pDjjgAE9TXnSvvfZyGGXasaor24N5sGiUikv8MIwr7X9k2ElLmzeM5Vm6ZBh5zDyjQSAQgAAEIAABCEAAAhCAAAQgAAEItBH46quvYq+Zjz76qE1ZJCZjzsSJE528ZpA2ApHHzEpRyveGKRU3bxcrp7TvLZOWtjoKJZa2eBLKUNIR8RsO27HOQz1pCEAAAhCAAAQgAAEIQAACEIAABCokoN2ZDj300LJr7brrrhhlyqZVsmCWjaOYXaRkoyogjxYzzigu8cMwrnTaR22Y3uIKw7jpTO/vyqT6WmMGj5kIBAIBCEAAAhCAAAQgAAEIQAACEAgJfPfdd7HXzHvvvRdmFaRnn312N2HCBDdw4MACPYnIeNHqMaM1ZmRUMS+YMG1684yxtNUxg4zlWzotFHbTWzwJZSAxUaG8JWzTBmL6tHTeY6A9CEAAAhCAAAQgAAEIQAACEIBAUxCYZZZZ3JFHHlnyWEaPHo1RJptSMZuE2Sn82lbe13U0nrQpLxXfOGNeL+ogLW66tNC8YNJC6Xy9pduFkcfMs+ocgQAEIAABCEAAAhCAAAQgAAEIQKA9gWnTprlhw4bFuy21z3VOU55efvllN2TIkLTsbq+LPGZWjCCYB0xWKMOJn2fptFC6Yh8xt/wwXmCUUWYeos7SJNRb2gZnYVpddBCAAAQgAAEIQAACEIAABCAAAQhEBHr37u2OPfbYTBbbbLMNRplMOnGG2R8slFJxX8K05WXpLb/iUJ4v8loxMU8YpdPivs48YEyn0NeZN4zpLc/0qWHkMTPeBkMIAQhAAAIQgAAEIAABCEAAAhCAQHsC0bOzW2qppdxrr71WkNm3b1/3wgsvxB41BRkkEgKRx8yIKOF7w6TFZYAxfRi3tEL/o/ISX6e4xHRhvMAoE5cM/lgDgZokBCAAAQhAAAIQgAAEIAABCEAAAl1FIDIuuBNOOKFd91tssQVGmXZUulxR1LZi3iw2SvN+UVpxienCtDxeJOYJo/wwbmk/VNz/WL1YF1n9nlOjCAQgAAEIQAACEIAABCAAAQhAAALFCchr5tVXX00KyVtm2WWXTdJE2hOIjForRFrzhlEow4mftrjpLbSyllZo8Sgat2E6pS2uUOKHFo8NJEmitVzyN0tvBfx8iyu0uMpZ2tdl6cMyKodAAAIQgAAEIAABCEAAAhCAAAQgkEHg9NNPT3I233xzjDIJjZIR3wZRqe3C6lqozvx4WudZ+S3yUilH1EBmI+U0MLNMWju+LquPCrqgKAQgAAEIQAACEIAABCAAAQhAoHsQ2Hbbbd3KK6/sevbs6U466aTucdAdP0qzPfj2CGs1TWd5aaG1FeaV3U6aYSar0bCTUulig7C8vPoqNRbyIQABCEAAAhCAAAQgAAEIQAACTUng1FNPdd///vfdKqus0pTH1wkHVcpGYfl5DKWdHUTru9hHHSgu8cMwbuXTQhl6TG/xtFA6/6M6cTpaY+aFKI5AAAIQgAAEIAABCEAAAhCAAAQgUCaB999/3w0ePLjM0t27WLTGzHIRgXAdGUtbKAOKrSkThn6eGW2yQsG2PIsXhDKG5CnqzMTiFpreQhuY5Vva8gkhAAEIQAACEIAABCAAAQhAAAIQKIMARpkyILUV8e0PFjfbRFup1pjpLZTWj4flK06HhplyGrcyYWidS295abowP0xbHUIIQAACEIAABCAAAQhAAAIQgAAEIFArAqE9wk/7ces/S6d85UksbE2l/y0oExpm0qu011ojYRiWVL6VUZ7FTW9py/PT0iEQgAAEIAABCEAAAhCAAAQgAAEIQCBPAmaTsDYtbTYJC5VveVbWD61cGPplSsbLMcxYB6UaK1XO8i209pT2P6YnhAAEIAABCEAAAhCAAAQgAAEIQAACeRPwbRBpNgr1F+rDMZTKt/Ily2UZZqyiheUMyspYHYV+3PIttHwLpUcgAAEIQAACEIAABCAAAQhAAAIQgEBnEDB7hB+qX6UlfpgWby2V/tfKh+20K51lmGlXcKbCb9gvE+r9tMXTQl+nuKX9tolDAAIQgAAEIAABCEAAAhCAAAQgAIG8CJj9wWwQllb7vs5Ph/G0tHQSa6M1VeJvpYaZsDl/8Gl5prNBhaHyfZ3FrR4hBCAAAQhAAAIQgAAEIAABCEAAAhDIk4BsD2Z/sFDtWzwM/TzFfVFZK+/ry473LrtkYUHrtIenNp2plGc6Py6dpS0/DK0NQghAAAIQgAAEIAABCEAAAhCAAAQgkCcB2SDSPurD1/tpP25lpDNJ01le0bBcjxl1YOLHTVcqDOvYgE0fpku1Rz4EIAABCEAAAhCAAAQgAAEIQAACEKiGQGiDCNPWptksLF1O6Nfx45l1yzXMWANpjZouLZTO11s6Tac+TG/9EUIAAhCAAAQgAAEIQAACEIAABCAAgTwJmO2hmI2iWBmNxc8Px2Z5oT41nWaYCRsI02kNWRk/tLjKp8Wls4+V8ctJh0AAAhCAAAQgAAEIQAACEIAABCAAgTwJpNkizB5hofoL45YOw2Jjs7JWJky7NMNMZmHLmBmqsXYNFinjlw/jM6ytGTNmfBW0QRICEIAABCAAAQhAAAIQgAAEIAABCHSYQGRz+HJmI7JLJLaIKB7aKZSW+PpWTfu/5ZZpXzPSFDPMhBWKDSrMs7S14Q+yWHzG1KlTP7RKhBCAAAQgAAEIQAACEIAABCAAAQhAIC8C33333QdRW9UaZMyeYTYPC214lq90mGdl2oVmmCm7QrsW2joL27ABWaiqJeOfffbZ8yl9oIIABCAAAQhAAAIQgAAEIAABCEAAAh0i8Pnnn784s4GS9omonJWx0O9bOomFranK/sZ1zTATVg0bDtNWPk2fplN56S3P4u3Cl1566W5rnBACEIAABCAAAQhAAAIQgAAEIAABCORF4LnnnrstaqudLcLTqSvLVzwU5YWSplOZUB+m43Z6RH/1kVjYmmpLmz6trOnCMr7ej8sQ5KcV93U9hwwZ0uf111+/b5ZZZhlqAyGEAAQgAAEIQAACEIAABCAAAQhAAAIdIRBNY3p7mWWW2XDChAnfRe3YdCYZS/y40lk6y7NQw7G4Qokf+nE/Ly5oZbM8ZqxQGIaNKl8604flw7SVtVD5Fo/Dd955Z+q4ceNODSuShgAEIAABCEAAAhCAAAQgAAEIQAAC1RK4//77T0gxysgWISmwTbSqSv61OlbQb8t0JUPzXrGCSptY3ELp/fKl4pafFfqeMlYm0b311lvHLLzwwvvaYAghAAEIQAACEIAABCAAAQhAAAIQgEA1BN5+++2Lhg4delpU14wp1XrJWH0No5y4lfPDgngxj5ksS4+vT4urA1/8MtL7acX9TwJmxIgRp0fgLvYbIg4BCEAAAhCAAAQgAAEIQAACEIAABCohENkWLivDKOPbKtR8mA67NFuGlc0qn6VP2itmmEkKVRixwVlogwxDy/dDlYmNM1OmTJkegTt17Nix+0bzwN5SBgIBCEAAAhCAAAQgAAEIQAACEIAABMohMG3atHfvvffefSLbwilR+dD24Kf9uJpWWuKHYZnWEjn8tSlE1pTSvljaQuX5dUzvh5afpfPz0+JmLEqmNWlB4KuuumrT4cOHbzrXXHMt36dPn/l79uz5PX+gxCEAAQhAAAIQgAAEIAABCEAAAhDovgRmzJjx9dSpUz/+4osvnol2fL53hx12uOPDDz+cFhExo4ocQSTJbJ0obnmlQtULy5guDFXOxOIWhvoCI4tlmkFF6bS46fywWFx5lm9GF9OFoeWXG4b1LW1jVzqMZ6VNH1eY+cfqmy5Mm54QAhCAAAQgAAEIQAACEIAABCAAgTYCmYaImUUs30KpFc9K+3kWD0O14RtfSqXD+pb265nOQuUVi1u+HxaLu97KLSLqLDRGhDqlJSrnx2NloLO6aaHKC6DaKTdUHbUlQ461aeNVmBW3slGRWPxyprPQ8iytME3n5xOHAAQgAAEIQAACEIAABCAAAQh0RwJ63g6lmM7Ps7gfloqbIUblqvlorH4fYdrypJdYH2E8zpyZb3ELwzZMH4cyzKhANYaGYvX8TtW2n1bHplMoiGZYUV45Yn2rvrXht5kVV9vKk1jox31dXCgoZ7qsMK1+Vln0EIAABCAAAQhAAAIQgAAEIACBRiUQPucXO460sqazUPUtXixUnp9vaQutHUsXC1XWN+yk1Q11SqeJ+qlGWkp5zKhRNS6Dg4W+TnGJDSCtnPLNYGHlpDNRnnnImC4tVF0z4Fh7Vs7G5vefFld5q2thls7a9vN9HXEIQAACEIAABCAAAQhAAAIQgAAEihNIswOohuktLKazMgqLxf183+Bi+rTQ+g3zpJeYvjWV3n+YZ/X80Mq0C9MMM+rUN1q0q+QpwrKWVigx40hrqq1dy/f1oc7yFFq7vgHHdOrD+gnjqms6xSVKSyz0474uLjTzT5beL0McAhCAAAQgAAEIQAACEIAABCAAgUICWc/6prdQtSxuoeks7YdhPC2dpZM+K099SqxMWM7y4kIz/1gZX5cVb1c2zTCTVVl6NWBGCouHoV/f8kyntERtWDxWZOiUF7YR6izf2lToxy1f9UK9r7O4wlBUD4EABCAAAQhAAAIQgAAEIAABCECgMgLhs7/V9vVpcdOlhb6uWFx5YX65OhunQmsjTWd5FmaV9+sWxLMMM2rQN0aE6YJGvIQNxDeAKDvUS2dlFJeojE1VihUzdf44pPfHUiyusqrr92NtWWhlFEp8faum9W+W3i9DHAIQgAAEIAABCEAAAhCAAAQgAIFCAmYPKNS22Qmk98tY3ELLz0pLb3lp8XJ1YT9+Pcuz0PpTupiE5cJ0XNcMDhb6DRbT+XkWLxb6edXEVaecehq/X65YWnkSKx/G48yZf/wyvp44BCAAAQhAAAIQgAAEIAABCEAAAtkEUo0RUXFf78fVkqUrCf2yYVzpUGf9VKq3emlhlk56ifXVmmr922IGBwv9zFI6P9/ixUI/rxZxjd1vNy3t64rFlWdibVqaEAIQgAAEIAABCEAAAhCAAAQgAIHyCaQZJFTb15eKW36x0M+rRdwfs9++kTCdX87yMnU2lUmVQwNEms5vsFg8rGuDUx8WT6vv16skbmXTQvVjx+b3nxX3x+WX8fXEIQABCEAAAhCAAAQgAAEIQAACECifgJ7X08TXp8WL6SzPDyuNa0yq49cLdUpLrExrqrK/aXVjnRks1Jwft+ZL6fx8i1tobWalTe+HWXFry0K/nOnSwlI6P19xX6wPX+fHS+X7ZYlDAAIQgAAEIAABCEAAAhCAAASanUCa8cE/5qx8X58WL6azPD/04+rfT2fFs8qZ3upZ2g+LxZUn8eu3ambqQuNCmFbhYrowz9IWWv1y01bOD/24tWeh5Vm6WKg8SVqd1py2v36ZNm1hXV9PHAIQgAAEIAABCEAAAhCAAAQgAIE2AmmGCOWWow/LWDortHaz8qUvJy9sJytteoUmYfumV2h5qbrQABGmVamULsy3tIXWRpg2vYVhvqUrDa09P1RcYm2F8TgzyDddVlk/nzgEIAABCEAAAhCAAAQgAAEIQAAC7QmkGSVUKk3v6/y4X97XW7yS0Mpam5YOwzDf0n6ouMTqhvE4M8hvp/MNFcoM01YhTe/r/Ljfjq+3eF5hWj/Wtp9XLK48iV+vVZOuszxCCEAAAhCAAAQgAAEIQAACEIAABCoj4BswrGYpnZ+fFjedhWrX4nmFaW2mjd/6szy/nq8r0JdrkEgrp4Z8vR/383y9xS20cmHa9GlhNTq/juImfr/ShWkrRwgBCEAAAhCAAAQgAAEIQAACEIBAfgRCI0aYVk++Li1eqc7KW2h9hGnTK5RYvoWt2ja9X8byLAzrtCubZohI06liOfqwjKUt9NupVGflLcxqy9eH8XLSKhOK32eYRxoCEIAABCAAAQhAAAIQgAAEIACBdAJphomwZFimWDorz9dbPCtU/2FeJTq/bBhX2sT6sLSFBfosg0NH9GFdS1toA7G0hdJb3MJKdFllpZektdma0/6vX7Z9LhoIQAACEIAABCAAAQhAAAIQgAAEqiFQYJRIacDP9+NW1HQWFtNbGQtV1uIWZunK0ftlFPfFb7+oPssAUalenfh1/HixPCtnoQ3W0hb6bfi6Yno/L4wrbRK2Z3qFxfL8csQhAAEIQAACEIAABCAAAQhAAAIQyCaQZahQjaw8X+/HrRfTWVhMb2UsLKesymSVT8uzNovlhe0VNTxkGSWy9OrYz/Pj5eZl1alUH/antEnYlvRpOitPCAEIQAACEIAABCAAAQhAAAIQgEBtCLQzVETdpOnUu6/3435eXnq/TcUlftt+vDW37W9WXqq+mEEij7y0NnydH9chWNpCOyw/7cf9OmE8rW5WGStrYdiH6QkhAAEIQAACEIAABCAAAQhAAAIQqJ5AqnEiaC4sE6ZV3Nf58XLzKqlTqk3lm4Ttml5hal4vv0RKvJiBopK8sKyf9uPhEIrlqWw1+QKRCsPrvFS+V5QoBCAAAQhAAAIQgAAEIAABCEAAAmUQKPWsXex5PaxbLB3maWims9Afrq/z4349Kx/mmz6tbFl5pQwbaqRYmUry0sr6Oj9ug/d1frzc/GLjT2vP2i0VdqRuqbbJhwAEIAABCEAAAhCAAAQgAAEINCqBYoaLUseUVbccfVoZX+fHbRy+zo+n5UuXViarrOlL1StqdLFGShkhiuWn5ZXSlcrXuNLKpOmzytmxpdXx88J4Oe2FdUhDAAIQgAAEIAABCEAAAhCAAAS6G4FiRoyQRTllwzJh2toM9WFa5XydH89qI6xj5SxMa8PyStXNNHD4DSheyiBRaX5W+VAfprPGklbOjiErL0tv9QghAAEIQAACEIAABCAAAQhAAAIQ6DwCWQaOLL1GlpZXji6tTFp7WeWMSkfzSxpcrCOFpQwZpfLT2ihWJ8wL0za2NH2azsr7Ybnl/DrEIQABCEAAAhCAAAQgAAEIQAACEMiXQCkDh/WWVi5Np/KhPkxbm5WWtXrF2ktr0+oVhKUW/y0oHCXKMWRUU6ZYnbS8NF041qx0R+pmtYkeAhCAAAQgAAEIQAACEIAABCAAgXwIFDN4FMtT72n5aTobaZgXpq2cH+ZVJm6zUsOMKpVj2CinTFZbpeqm5afp4gPM8U9n9JHjcGkKAhCAAAQgAAEIQAACEIAABCDQpQTKMWCkDbCSemll03R+P2n5aTq/jsXLKVdOGWuvLCNLUtiLlGuk6Gi5cuoXK1MszzuciqK1aLOiAVAYAhCAAAQgAAEIQAACEIAABCBQxwQqMkyUeRzF2iyWZ81nlcnSWz0L8y5n7VZtmLEGyjVSlFtO7WaVzdLbWPywVmX9PohDAAIQgAAEIAABCEAAAhCAAAQg0HEC5Ro91FMeZfNoIzzqStosqFuJAaOgopeopI1KyqqLUuVL5XvDbBftSN12jaGAAAQgAAEIQAACEIAABCAAAQhAoEMEqjZuRL2WqlsqPxx4JeUrKRv2U9Lw0a5CEUUlho5KyvpdllOvnDJ+m8QhAAEIQAACEIAABCAAAQhAAAIQaBwC5RhCyimTdsSV1KukbFpfsa4WRoxK26y0fHgw1davtl7YP2kIQAACEIAABCAAAQhAAAIQgAAEOk6gWkNHtfVsxJXWr7S89ZMa1tI4UW3b1dZLO8A820prHx0EIAABCEAAAhCAAAQgAAEIQAACtSeQpzGk2raqrVeUTmcZLjrST0fqFj34MjK7su8yhkcRCEAAAhCAAAQgAAEIQAACEIBAQxCoiVGjzCPvSN8dqVvW8LrC8JBXn3m1UxYoCkEAAhCAAAQgAAEIQAACEIAABCBQ1wTyMqLk1U5ZsOrBuFHrMdS6/bJAUwgCEIAABCAAAQhAAAIQgAAEIACBqgjU2lBS6/aLHvT/A2143FfyUMTvAAAAAElFTkSuQmCC;" parent="1" vertex="1">
          <mxGeometry x="340" y="790" width="317.19" height="120" as="geometry" />
        </mxCell>
        <mxCell id="C8oowRiF8RS0OOutvdNS-3" value="" style="rounded=0;whiteSpace=wrap;html=1;fillColor=none;dashed=1;strokeColor=#0FFF6F;strokeWidth=3;" parent="1" vertex="1">
          <mxGeometry x="528.25" y="110" width="290" height="160" as="geometry" />
        </mxCell>
        <mxCell id="C8oowRiF8RS0OOutvdNS-4" value="" style="group" parent="1" vertex="1" connectable="0">
          <mxGeometry x="-230" y="110" width="75" height="75" as="geometry" />
        </mxCell>
        <mxCell id="C8oowRiF8RS0OOutvdNS-5" value="" style="shape=image;imageAspect=0;aspect=fixed;verticalLabelPosition=bottom;verticalAlign=top;image=data:image/png,iVBORw0KGgoAAAANSUhEUgAAAIAAAACACAMAAAD04JH5AAAC+lBMVEUAAAAPDAAEAwEAAAAFBQUCAgACAQAAAAAAAAACAQACAQACAQAFAgEAAAADAwICAQACAgIAAAAAAAADAgEAAAAAAAAAAAAEAgEAAAACAgAAAAAAAAAAAAAAAAABAQEAAAAAAAAvLy8FBAMAAAD29vYQCgYEAgH19fUEBATFxcXr6+vg4ODr6+saEAjv7+8bEwwAAADZ2dne3t7HxsVaOR/q6updOx9iYmLBwcEDAwPo6OjS0tLh4eARCgUZDwfd3Nvr6+tVNRrn5+fe3t7p6elXPCicjoLV09Hf39/Qz824uLjJycne3t7Ly8ttbW0cEwtTOidbOh5TS0Xu7u5BQUF3XEhuTjRgPiLr6+vz8/NnRSqciHjw8PCvr69fPSHh4eGqqqrv7+8jFgvIyMgcHBzx8fGWlpaJiYnx8fHJyclEREQRERHb29ve3t5RPjEiGhNdOx3Qz8/d3d2BZE+5sqzo5eKPj4+CgoJlQibX19elpaWdnZ1qampmQidHR0ejo6N4eHgjFgrCwsJaOR0tLS07IhNbW1tzc3O0tLQzMzMiFQqoqKhVVVXi4uLm5ubk5OTg4ODd3d3r6+sAAADt7e3f39/o6OjLy8vPz8/FxcUbGxsfHx/CwsIjIyPb29vR0dHT09PNzc3v7+8XFxfJyMjZ2dkoKCjX19fV1dVuSy7Hx8dzTzFlQiZ4UzVxTTCPaEV1UTNoRSiXb0uZcU1tSSySa0hqRyrx8fGGYD6DXT17VjYmJiYSEhJ+WDi/v7+LZEK7u7uheFOJYkFfPSHz8/OrgVucdFCfdlGUbEmuhF2ke1aNZkOAWju4uLi1imNhPyOmfVeCXDssLCyyh2AIBgS6jmaoflm+kml6VTjEl2719fWsrKxZOB4ODg5PNiFwcHAyHxKysrIZEAmOjo5ZWVlPT086OjqUlJR9fX1AKhqlpaWampooGhC0xOd6ldZRd9VCatA4Yc2Hh4dHR0dJLxy7yuudsuPN09+lstKwuMtVOyUhFg3D0e9nfsBlPf9PAAAAjXRSTlMAAg42EglBLCEoJBgVTB49RhtVWy8MUUleBwUxfDl0aTP+h24E/mUBkOogEezLyKNhLBnblYJ6/fmZcwn48eff2qiUaDsy/fLt4M3EsaCbhG1fWE7+/Pv49e/u6NzVz8rGvLi1sa6tqZWFgnRfS0Y1IPz18ufa1czEwry4tKuqjodZRt/a1rKsqqp6dW2aGIv9AAAMUUlEQVR42uyYSUwTURjHH4kat5sHoxcvNhoVjIoeFFRUUBMSt7gnmnh2XxI9eDDGiwnYdoBCQsCSEhhn6Uw7HTpNSmmb7mOnTQuU2JCmnkg4ctKL3+sAIlRPvDEx/k7Qy/fL//veNug//wg167duWYf+Dpsv1DaaKEzj/k3IaDbea6SWUrsZGcqbPLUM0w5kIPupKtTWIIOA+lXZjwziPVWd/CNkCFvz1G84jgzhOKVTxWM3MoB18+VnaH7atLwJRizGWn3VaTwjcMLMEgUTPU3VIuKs1YuxEsP5fH5VZUvlfN5kKpdnaU9oltqASPOGwkzLNAfls4qiZFW/j2N4mdW40DR1ARFG3wPKosT7/FnFi1Gy2IAW2bBSKN9DhNFHYFamGX/W6w0FgJAXDAReYjVanSG+EnWBksQzKpRPOYEUNtAjUL/lEWH0FuRFRlBCKafHE/d4sIEKEchsmNOo7YgwF/QhZDhvwOmJu1yueBwMFIhAEjVaJJ/AFgrzTeBCTo/L7Y663a64M4AjgB7I10yINI8ojCYUAlA/GovFom6Xx4kjgB6wXCMizTa9BVwhFXdHg8FkMBgDAxwBI7HhggHnUZ4C5riC0xUNJjOZTDIYdcedoSzugSYYsBebcAAC54+7Y8mJSCQyAQYuZwD3QNQY4hvRw6YyRX3nhYICAWQiiUQCDGJuT8pbGQK+HhGmsTQHAYBACgKIJHK5XCKSCbrjKa/KwWYoHUGEOV4MmyjYhtS4GwLIpdPpXGIiGMVDgKdQu4gI864YLuVphkvFo8mJRHp8fDydiySjrnmB8CVEmKbi3PR3mlFhDSQhgMnJyfFcJBODhaj4BEkkL3BxplycoRnF6YqBwPjk1OR4OpGJuSsCtBgmPgPNpVlW1AUy0IGpqanJNAwBFvBjAeKroKZUYuU/CDQh0twpaSCgYoHIXxGoL+IECr+bgXpEmubrrIiXYfVVAALEuXxdpHkuFI8Gq+0DRxB5mmWJF5TqO2H4IjKAWyCgeqqcBTLeCQ3gpUwLfufS09C1cBqGHyIDeF1ZBpX7wMSy+0BxDSIPFuC5lGfpjSg1fyN6i4ygXoQhCDmX3AnxtZjDM9iEjKCelWgmm1p5KzZmFd592sJCDwqBKu+C648RcU4PfLnF4h4oCy8jz8+XkREBnDA/CWv4OOC8K96Gd2oQcfb0263PQEDimYK38jpOBRZfx82IPA/sNnvHVVaUaXw1D+HPA4vfB4xowLFXtk89tq5rEAHNCJz68wuJJL40oAG7WtvO9vSO9nbexhGAgT87/42Ilm89RuQ5bG7rdvSOjo0Nn70mVQx8fr8P6vOSaMQxdN9sbut09PQCjobbugHn4yr17yDynGkAgbZPtp4Kg+d5MGAEQYD6sgETeODwOTMW6Ot1YGy27nO3aZ5neJ6G+izpCThz1wxggbaeJ3abzWa3d/c3HKIBSRZZ9uoVRJI9rVB7QcAy1t8N9Pd/HLLseybLoshq4ZaTBA32Hm7oXBQAHPbhjx+Hh4eHBvvMA89FFuqHHda6U3sQEXaePtfZ+YtA5+fhoaGhwcE+i/lD+8gJKF+8arbWde07uhOtPg9OWCxLBTD2TxaMue1De5d14IVWLLa0W2/e6LKePL1rtdNvhUIrBMyf++CPD1C+y2rtwAaOdutIHfxjPdl6dC9aPQ7etawUAPp726E4APU7BgbOtlh0AaDdvu/A6g0/xF9FABgdtOLqev2Bjq9fR60jN+EHoG+wbucqxf+jHTt5bSKK4wBOt3SPTW3VtlZbFWu1uBWpGyguuOGCelBQUNx3EFFcUBFxQTPphOwmL4lxzJB/IAdDyCHXXMSToYRiNxR33EDB33szk5mkndfOxKM/emhz+X3ed37vzUtXbmbVAOEEtBL6Qw0/8T0ftL9eayUVYNb9m4P/ImJVARav34brKa6gDwAv37EHrEL5rf/gTLhzBCEaAKUc0J0U7wthwEgqKgIYrmtpofeOdbw35acBLO5nYn9ze58HAzL9VqlYy+GOwoZ/ix+hsDvOUwD2lJn0t/WHQgTQk2CeSgLOurKge0/3M6eLQ4hLBNUBFqeX9Eeo30cAA04HAMTirYU8hO0R/LJFUKmgOgBOI+jP8cjsbceAvYzNJgN6l+lf/xI3BgQDMIRcKqAKsLjiNlvYxSOG4WMejyfkt8oAR7BL/2GwTQC4wogFARoNsMAPrjjPO128mWGYWKwv1jeMDyJ5CjbonkC3CPBz0NsfV03AEo67na4wA+WJvQr1ZQCQNTjQMt0TIAFcJP64ezTAAgBcEQD0YsCL2KtY3xB0l4s7rBfQmQWQgwDGQC0BC3I7SQBMCACxkFPR38bt0zkE870ygJwDzoRqAhZX0IL7szABAPiiBDBI50vxlAIQ4LAg5VdLwNKLSAAcBoRCX5UAG7te5x5QAviwEIFaAoxQZrz+kMcTUAIsJ/UBunMAfBjhCNQSYMTyCIBhJcC6sEPfDOYmEOYQ6/ay9ASYQQEwqATY9um7m3lzAIiF4hKBcRL4IgCeIBkAdU7XF7BcAMfiSkRYegJxEfAuB7Byla5NkD+EUH4vT0+AeSIABnIA6/S8EY/kAqQInHZqAo4BAfCiVziHvxPAsSV6ZjAPQCKwu5+FqQk43giAJ29xf8v7T2YMWKsD0LE8PwEOA/zeID2BiAjowQD/z0/fbLiWaB+CO/GxhtCOEkGOmoDjhQB4zgIg/OvzdwLYsFT7DOYBpCtZKui30xJwfBUAPrwPzJHPH3B/x/azmiPYlgsIS4AEXBKpCfSIAHIWuT5/tNp4tyu6TPNZ1J2XABIBbq8rQE1gRAT4IgDgPn38leJttuRJzYDOPEAYCQBXAi5ItATeSYARADj/fPxhg0oeW1ooAAQEwPXD7YCWQEoCtDNWPsF++I2/tyUXzi8UwCGEMMDeH/QHECWBgAR4kYYImA/fCOCAZsDyXADKfjFJReB6QkmA8UiAjBXq53sC2F8gQPHVzO2FPUFJwDEkAYYw4IcAiM7vKAiAZIAzAQBWPQHHoAR47pZeRtFkdENBgAArAwIpDKAk0JMFvFEA9mgFxJUAXgEIp/EjoCSQyQJ6oD0BJJPRlXMKSYBTANi0i7oLHF+yADwEEmCZVsB6JQApAPZ0BACUBIazgOesCHidjK6bU8CFxI9yHsGzAEdLIC0DEjLgpGZAh3wt55UAfzoIAEoCcRkwLACeAuAYADTWgk4JEFYCnOlxzgGXDMjIgMMA0CzoHgvg7R/nHDDLgEEBEAWArv9Zztk2BiCRAgCiJODwZQEvuSzggPZLWVFzWfH2MQAJAHB29QQcQzLgbfYRdJU2lhVpal/WWFpTbXzUmT+ECS8GsJQEvsqATHYX2IzVpcVlTUUTbl9cWmMyVlWWX3jgdAVGAxAlgQEZsDcLiG6sMFbXFDdOiFDURFYP7VtKWg27t/pVACoJZGRAe1A6CaPnyysrTDiF5on1N1VUVTa0tU4y1NVOud09GsD2qiYwogCkpJfR1ZKW8soqCEEpoPcvl/rXT158+tqmXICdVU/gjQLwlgCeJrt2T5qwAIa/tNpYgfMX+0+bO3P2jB1bEQaw/eIQqifwVgF4AwAsuFVnaC1pwE+hppTMAR1ABkARAAZMnz7r5o3LV26mx90FCQVghAC6bu2uM0AE0hhMCJCfAABmzZu3YsXlcXdBWAHIYMCax7VTSQIioKlIwwxMJREoBVec1F0A5ZMBA1bbltv1U2ohAA1TiIfABEMgC0gGEuHhJXoCjiEZsPf4rsnK/rkjQM8AjwF5ClNr6yEEkUAM9w4G7JQEBmTAXdx+qmGSkD9Zf5OiE30nCI+BEEgK2CAhZt04iNQATI8IaD96Rlh9q7x8MoBaCPAgSlpFg4CAJIhi5/1DnWweYPWWrcd3nJm1YtGio0fnCd0h/Da8ekp72uuIGEgOAoIogIEdUDNO7zhx/dDWg4euXT9+4sSO0zNnzp27eNrkyfU4+Dph7Q1k8ZRXEd2AczASBLwXsAIY2AEQqGmKwn/XQ+cptXjT4d5tpDl+8vgVQOtOvxUAokZUYAZxGAx1QIGqFQr/Cp8YoPEksTXpbYLmlKVrVRBGVSWGNDS0tLWVKKutraWloaEcGkNnoXUpvH4pK9fOaMKO0hosMRmNxgpcVaTwb/CJyWSqJo2LG2HZlNYFSoqKmgFTBhy5GhvLypqampuLoO//0lZ/AeUZMKZshpPEAAAAAElFTkSuQmCC" parent="C8oowRiF8RS0OOutvdNS-4" vertex="1">
          <mxGeometry y="5" width="70" height="70" as="geometry" />
        </mxCell>
        <mxCell id="C8oowRiF8RS0OOutvdNS-6" value="" style="whiteSpace=wrap;html=1;aspect=fixed;fillColor=none;" parent="C8oowRiF8RS0OOutvdNS-4" vertex="1">
          <mxGeometry width="75" height="75" as="geometry" />
        </mxCell>
        <mxCell id="C8oowRiF8RS0OOutvdNS-7" style="edgeStyle=orthogonalEdgeStyle;rounded=0;orthogonalLoop=1;jettySize=auto;html=1;exitX=0.5;exitY=1;exitDx=0;exitDy=0;entryX=0.5;entryY=0;entryDx=0;entryDy=0;" parent="1" source="C8oowRiF8RS0OOutvdNS-8" target="C8oowRiF8RS0OOutvdNS-14" edge="1">
          <mxGeometry relative="1" as="geometry" />
        </mxCell>
        <mxCell id="C8oowRiF8RS0OOutvdNS-8" value="" style="shape=parallelogram;perimeter=parallelogramPerimeter;whiteSpace=wrap;html=1;rotation=-90;flipH=1;horizontal=1;direction=east;textDirection=rtl;size=0.19047619047619047;" parent="1" vertex="1">
          <mxGeometry x="-160" y="165" width="70" height="40" as="geometry" />
        </mxCell>
        <mxCell id="C8oowRiF8RS0OOutvdNS-9" value="conv1" style="text;html=1;strokeColor=none;fillColor=none;align=center;verticalAlign=middle;whiteSpace=wrap;rounded=0;" parent="1" vertex="1">
          <mxGeometry x="-145" y="130" width="40" height="20" as="geometry" />
        </mxCell>
        <mxCell id="C8oowRiF8RS0OOutvdNS-10" value="" style="edgeStyle=orthogonalEdgeStyle;rounded=0;orthogonalLoop=1;jettySize=auto;html=1;" parent="1" source="C8oowRiF8RS0OOutvdNS-11" target="C8oowRiF8RS0OOutvdNS-13" edge="1">
          <mxGeometry relative="1" as="geometry" />
        </mxCell>
        <mxCell id="C8oowRiF8RS0OOutvdNS-11" value="H*W&lt;br /&gt;3" style="text;html=1;strokeColor=none;fillColor=none;align=center;verticalAlign=middle;whiteSpace=wrap;rounded=0;" parent="1" vertex="1">
          <mxGeometry x="-215" y="260" width="40" height="20" as="geometry" />
        </mxCell>
        <mxCell id="C8oowRiF8RS0OOutvdNS-12" style="edgeStyle=orthogonalEdgeStyle;rounded=0;orthogonalLoop=1;jettySize=auto;html=1;exitX=1;exitY=0.5;exitDx=0;exitDy=0;entryX=0;entryY=0.5;entryDx=0;entryDy=0;" parent="1" source="C8oowRiF8RS0OOutvdNS-13" target="C8oowRiF8RS0OOutvdNS-34" edge="1">
          <mxGeometry relative="1" as="geometry" />
        </mxCell>
        <mxCell id="C8oowRiF8RS0OOutvdNS-13" value="H/2*W/2&lt;br /&gt;64" style="text;html=1;strokeColor=none;fillColor=none;align=center;verticalAlign=middle;whiteSpace=wrap;rounded=0;" parent="1" vertex="1">
          <mxGeometry x="-105" y="260" width="40" height="20" as="geometry" />
        </mxCell>
        <mxCell id="C8oowRiF8RS0OOutvdNS-14" value="" style="shape=parallelogram;perimeter=parallelogramPerimeter;whiteSpace=wrap;html=1;rotation=-90;flipH=1;horizontal=1;direction=east;textDirection=rtl;size=0.19047619047619047;" parent="1" vertex="1">
          <mxGeometry x="-80" y="165" width="70" height="40" as="geometry" />
        </mxCell>
        <mxCell id="C8oowRiF8RS0OOutvdNS-15" value="layer1" style="text;html=1;strokeColor=none;fillColor=none;align=center;verticalAlign=middle;whiteSpace=wrap;rounded=0;" parent="1" vertex="1">
          <mxGeometry x="-55" y="130" width="40" height="20" as="geometry" />
        </mxCell>
        <mxCell id="C8oowRiF8RS0OOutvdNS-16" style="edgeStyle=orthogonalEdgeStyle;rounded=0;orthogonalLoop=1;jettySize=auto;html=1;exitX=0.5;exitY=1;exitDx=0;exitDy=0;entryX=0.5;entryY=0;entryDx=0;entryDy=0;" parent="1" source="C8oowRiF8RS0OOutvdNS-17" target="C8oowRiF8RS0OOutvdNS-18" edge="1">
          <mxGeometry relative="1" as="geometry" />
        </mxCell>
        <mxCell id="C8oowRiF8RS0OOutvdNS-17" value="" style="shape=parallelogram;perimeter=parallelogramPerimeter;whiteSpace=wrap;html=1;rotation=-90;flipH=1;horizontal=1;direction=east;textDirection=rtl;size=0.19047619047619047;" parent="1" vertex="1">
          <mxGeometry x="-65" y="165" width="70" height="40" as="geometry" />
        </mxCell>
        <mxCell id="C8oowRiF8RS0OOutvdNS-18" value="" style="shape=parallelogram;perimeter=parallelogramPerimeter;whiteSpace=wrap;html=1;rotation=-90;flipH=1;horizontal=1;direction=east;textDirection=rtl;size=0.19047619047619047;" parent="1" vertex="1">
          <mxGeometry x="5" y="165" width="70" height="40" as="geometry" />
        </mxCell>
        <mxCell id="C8oowRiF8RS0OOutvdNS-19" value="layer2" style="text;html=1;strokeColor=none;fillColor=none;align=center;verticalAlign=middle;whiteSpace=wrap;rounded=0;" parent="1" vertex="1">
          <mxGeometry x="30" y="130" width="40" height="20" as="geometry" />
        </mxCell>
        <mxCell id="C8oowRiF8RS0OOutvdNS-20" style="edgeStyle=orthogonalEdgeStyle;rounded=0;orthogonalLoop=1;jettySize=auto;html=1;exitX=0.5;exitY=1;exitDx=0;exitDy=0;entryX=0.5;entryY=0;entryDx=0;entryDy=0;" parent="1" source="C8oowRiF8RS0OOutvdNS-21" target="C8oowRiF8RS0OOutvdNS-22" edge="1">
          <mxGeometry relative="1" as="geometry" />
        </mxCell>
        <mxCell id="C8oowRiF8RS0OOutvdNS-21" value="" style="shape=parallelogram;perimeter=parallelogramPerimeter;whiteSpace=wrap;html=1;rotation=-90;flipH=1;horizontal=1;direction=east;textDirection=rtl;size=0.19047619047619047;" parent="1" vertex="1">
          <mxGeometry x="20" y="165" width="70" height="40" as="geometry" />
        </mxCell>
        <mxCell id="C8oowRiF8RS0OOutvdNS-22" value="" style="shape=parallelogram;perimeter=parallelogramPerimeter;whiteSpace=wrap;html=1;rotation=-90;flipH=1;horizontal=1;direction=east;textDirection=rtl;size=0.19047619047619047;" parent="1" vertex="1">
          <mxGeometry x="85" y="165" width="70" height="40" as="geometry" />
        </mxCell>
        <mxCell id="C8oowRiF8RS0OOutvdNS-23" value="layer3" style="text;html=1;strokeColor=none;fillColor=none;align=center;verticalAlign=middle;whiteSpace=wrap;rounded=0;" parent="1" vertex="1">
          <mxGeometry x="110" y="130" width="40" height="20" as="geometry" />
        </mxCell>
        <mxCell id="C8oowRiF8RS0OOutvdNS-24" style="edgeStyle=orthogonalEdgeStyle;rounded=0;orthogonalLoop=1;jettySize=auto;html=1;exitX=0.5;exitY=1;exitDx=0;exitDy=0;entryX=0.5;entryY=0;entryDx=0;entryDy=0;" parent="1" source="C8oowRiF8RS0OOutvdNS-25" target="C8oowRiF8RS0OOutvdNS-26" edge="1">
          <mxGeometry relative="1" as="geometry" />
        </mxCell>
        <mxCell id="C8oowRiF8RS0OOutvdNS-25" value="" style="shape=parallelogram;perimeter=parallelogramPerimeter;whiteSpace=wrap;html=1;rotation=-90;flipH=1;horizontal=1;direction=east;textDirection=rtl;size=0.19047619047619047;" parent="1" vertex="1">
          <mxGeometry x="100" y="165" width="70" height="40" as="geometry" />
        </mxCell>
        <mxCell id="C8oowRiF8RS0OOutvdNS-26" value="" style="shape=parallelogram;perimeter=parallelogramPerimeter;whiteSpace=wrap;html=1;rotation=-90;flipH=1;horizontal=1;direction=east;textDirection=rtl;size=0.19047619047619047;" parent="1" vertex="1">
          <mxGeometry x="170" y="165" width="70" height="40" as="geometry" />
        </mxCell>
        <mxCell id="C8oowRiF8RS0OOutvdNS-27" value="layer4" style="text;html=1;strokeColor=none;fillColor=none;align=center;verticalAlign=middle;whiteSpace=wrap;rounded=0;" parent="1" vertex="1">
          <mxGeometry x="195" y="130" width="40" height="20" as="geometry" />
        </mxCell>
        <mxCell id="C8oowRiF8RS0OOutvdNS-28" style="edgeStyle=orthogonalEdgeStyle;rounded=0;orthogonalLoop=1;jettySize=auto;html=1;exitX=0.5;exitY=1;exitDx=0;exitDy=0;" parent="1" source="C8oowRiF8RS0OOutvdNS-29" target="C8oowRiF8RS0OOutvdNS-30" edge="1">
          <mxGeometry relative="1" as="geometry" />
        </mxCell>
        <mxCell id="C8oowRiF8RS0OOutvdNS-29" value="" style="shape=parallelogram;perimeter=parallelogramPerimeter;whiteSpace=wrap;html=1;rotation=-90;flipH=1;horizontal=1;direction=east;textDirection=rtl;size=0.19047619047619047;" parent="1" vertex="1">
          <mxGeometry x="185" y="165" width="70" height="40" as="geometry" />
        </mxCell>
        <mxCell id="C8oowRiF8RS0OOutvdNS-30" value="" style="shape=parallelogram;perimeter=parallelogramPerimeter;whiteSpace=wrap;html=1;rotation=-90;flipH=1;horizontal=1;direction=east;textDirection=rtl;size=0.19047619047619047;" parent="1" vertex="1">
          <mxGeometry x="260" y="165" width="70" height="40" as="geometry" />
        </mxCell>
        <mxCell id="C8oowRiF8RS0OOutvdNS-31" value="layer5" style="text;html=1;strokeColor=none;fillColor=none;align=center;verticalAlign=middle;whiteSpace=wrap;rounded=0;" parent="1" vertex="1">
          <mxGeometry x="285" y="130" width="40" height="20" as="geometry" />
        </mxCell>
        <mxCell id="C8oowRiF8RS0OOutvdNS-32" value="" style="shape=parallelogram;perimeter=parallelogramPerimeter;whiteSpace=wrap;html=1;rotation=-90;flipH=1;horizontal=1;direction=east;textDirection=rtl;size=0.19047619047619047;" parent="1" vertex="1">
          <mxGeometry x="275" y="165" width="70" height="40" as="geometry" />
        </mxCell>
        <mxCell id="C8oowRiF8RS0OOutvdNS-33" style="edgeStyle=orthogonalEdgeStyle;rounded=0;orthogonalLoop=1;jettySize=auto;html=1;exitX=1;exitY=0.5;exitDx=0;exitDy=0;entryX=0;entryY=0.5;entryDx=0;entryDy=0;" parent="1" source="C8oowRiF8RS0OOutvdNS-34" target="C8oowRiF8RS0OOutvdNS-39" edge="1">
          <mxGeometry relative="1" as="geometry" />
        </mxCell>
        <mxCell id="C8oowRiF8RS0OOutvdNS-34" value="H/2*W/2&lt;br /&gt;64" style="text;html=1;strokeColor=none;fillColor=none;align=center;verticalAlign=middle;whiteSpace=wrap;rounded=0;" parent="1" vertex="1">
          <mxGeometry x="-15" y="260" width="40" height="20" as="geometry" />
        </mxCell>
        <mxCell id="C8oowRiF8RS0OOutvdNS-35" value="" style="group" parent="1" vertex="1" connectable="0">
          <mxGeometry x="-260" y="155" width="75" height="75" as="geometry" />
        </mxCell>
        <mxCell id="C8oowRiF8RS0OOutvdNS-36" value="" style="shape=image;imageAspect=0;aspect=fixed;verticalLabelPosition=bottom;verticalAlign=top;image=data:image/png,iVBORw0KGgoAAAANSUhEUgAAAIAAAACACAMAAAD04JH5AAAC+lBMVEUAAAAPDAAEAwEAAAAFBQUCAgACAQAAAAAAAAACAQACAQACAQAFAgEAAAADAwICAQACAgIAAAAAAAADAgEAAAAAAAAAAAAEAgEAAAACAgAAAAAAAAAAAAAAAAABAQEAAAAAAAAvLy8FBAMAAAD29vYQCgYEAgH19fUEBATFxcXr6+vg4ODr6+saEAjv7+8bEwwAAADZ2dne3t7HxsVaOR/q6updOx9iYmLBwcEDAwPo6OjS0tLh4eARCgUZDwfd3Nvr6+tVNRrn5+fe3t7p6elXPCicjoLV09Hf39/Qz824uLjJycne3t7Ly8ttbW0cEwtTOidbOh5TS0Xu7u5BQUF3XEhuTjRgPiLr6+vz8/NnRSqciHjw8PCvr69fPSHh4eGqqqrv7+8jFgvIyMgcHBzx8fGWlpaJiYnx8fHJyclEREQRERHb29ve3t5RPjEiGhNdOx3Qz8/d3d2BZE+5sqzo5eKPj4+CgoJlQibX19elpaWdnZ1qampmQidHR0ejo6N4eHgjFgrCwsJaOR0tLS07IhNbW1tzc3O0tLQzMzMiFQqoqKhVVVXi4uLm5ubk5OTg4ODd3d3r6+sAAADt7e3f39/o6OjLy8vPz8/FxcUbGxsfHx/CwsIjIyPb29vR0dHT09PNzc3v7+8XFxfJyMjZ2dkoKCjX19fV1dVuSy7Hx8dzTzFlQiZ4UzVxTTCPaEV1UTNoRSiXb0uZcU1tSSySa0hqRyrx8fGGYD6DXT17VjYmJiYSEhJ+WDi/v7+LZEK7u7uheFOJYkFfPSHz8/OrgVucdFCfdlGUbEmuhF2ke1aNZkOAWju4uLi1imNhPyOmfVeCXDssLCyyh2AIBgS6jmaoflm+kml6VTjEl2719fWsrKxZOB4ODg5PNiFwcHAyHxKysrIZEAmOjo5ZWVlPT086OjqUlJR9fX1AKhqlpaWampooGhC0xOd6ldZRd9VCatA4Yc2Hh4dHR0dJLxy7yuudsuPN09+lstKwuMtVOyUhFg3D0e9nfsBlPf9PAAAAjXRSTlMAAg42EglBLCEoJBgVTB49RhtVWy8MUUleBwUxfDl0aTP+h24E/mUBkOogEezLyKNhLBnblYJ6/fmZcwn48eff2qiUaDsy/fLt4M3EsaCbhG1fWE7+/Pv49e/u6NzVz8rGvLi1sa6tqZWFgnRfS0Y1IPz18ufa1czEwry4tKuqjodZRt/a1rKsqqp6dW2aGIv9AAAMUUlEQVR42uyYSUwTURjHH4kat5sHoxcvNhoVjIoeFFRUUBMSt7gnmnh2XxI9eDDGiwnYdoBCQsCSEhhn6Uw7HTpNSmmb7mOnTQuU2JCmnkg4ctKL3+sAIlRPvDEx/k7Qy/fL//veNug//wg167duWYf+Dpsv1DaaKEzj/k3IaDbea6SWUrsZGcqbPLUM0w5kIPupKtTWIIOA+lXZjwziPVWd/CNkCFvz1G84jgzhOKVTxWM3MoB18+VnaH7atLwJRizGWn3VaTwjcMLMEgUTPU3VIuKs1YuxEsP5fH5VZUvlfN5kKpdnaU9oltqASPOGwkzLNAfls4qiZFW/j2N4mdW40DR1ARFG3wPKosT7/FnFi1Gy2IAW2bBSKN9DhNFHYFamGX/W6w0FgJAXDAReYjVanSG+EnWBksQzKpRPOYEUNtAjUL/lEWH0FuRFRlBCKafHE/d4sIEKEchsmNOo7YgwF/QhZDhvwOmJu1yueBwMFIhAEjVaJJ/AFgrzTeBCTo/L7Y663a64M4AjgB7I10yINI8ojCYUAlA/GovFom6Xx4kjgB6wXCMizTa9BVwhFXdHg8FkMBgDAxwBI7HhggHnUZ4C5riC0xUNJjOZTDIYdcedoSzugSYYsBebcAAC54+7Y8mJSCQyAQYuZwD3QNQY4hvRw6YyRX3nhYICAWQiiUQCDGJuT8pbGQK+HhGmsTQHAYBACgKIJHK5XCKSCbrjKa/KwWYoHUGEOV4MmyjYhtS4GwLIpdPpXGIiGMVDgKdQu4gI864YLuVphkvFo8mJRHp8fDydiySjrnmB8CVEmKbi3PR3mlFhDSQhgMnJyfFcJBODhaj4BEkkL3BxplycoRnF6YqBwPjk1OR4OpGJuSsCtBgmPgPNpVlW1AUy0IGpqanJNAwBFvBjAeKroKZUYuU/CDQh0twpaSCgYoHIXxGoL+IECr+bgXpEmubrrIiXYfVVAALEuXxdpHkuFI8Gq+0DRxB5mmWJF5TqO2H4IjKAWyCgeqqcBTLeCQ3gpUwLfufS09C1cBqGHyIDeF1ZBpX7wMSy+0BxDSIPFuC5lGfpjSg1fyN6i4ygXoQhCDmX3AnxtZjDM9iEjKCelWgmm1p5KzZmFd592sJCDwqBKu+C648RcU4PfLnF4h4oCy8jz8+XkREBnDA/CWv4OOC8K96Gd2oQcfb0263PQEDimYK38jpOBRZfx82IPA/sNnvHVVaUaXw1D+HPA4vfB4xowLFXtk89tq5rEAHNCJz68wuJJL40oAG7WtvO9vSO9nbexhGAgT87/42Ilm89RuQ5bG7rdvSOjo0Nn70mVQx8fr8P6vOSaMQxdN9sbut09PQCjobbugHn4yr17yDynGkAgbZPtp4Kg+d5MGAEQYD6sgETeODwOTMW6Ot1YGy27nO3aZ5neJ6G+izpCThz1wxggbaeJ3abzWa3d/c3HKIBSRZZ9uoVRJI9rVB7QcAy1t8N9Pd/HLLseybLoshq4ZaTBA32Hm7oXBQAHPbhjx+Hh4eHBvvMA89FFuqHHda6U3sQEXaePtfZ+YtA5+fhoaGhwcE+i/lD+8gJKF+8arbWde07uhOtPg9OWCxLBTD2TxaMue1De5d14IVWLLa0W2/e6LKePL1rtdNvhUIrBMyf++CPD1C+y2rtwAaOdutIHfxjPdl6dC9aPQ7etawUAPp726E4APU7BgbOtlh0AaDdvu/A6g0/xF9FABgdtOLqev2Bjq9fR60jN+EHoG+wbucqxf+jHTt5bSKK4wBOt3SPTW3VtlZbFWu1uBWpGyguuOGCelBQUNx3EFFcUBFxQTPphOwmL4lxzJB/IAdDyCHXXMSToYRiNxR33EDB33szk5mkndfOxKM/emhz+X3ed37vzUtXbmbVAOEEtBL6Qw0/8T0ftL9eayUVYNb9m4P/ImJVARav34brKa6gDwAv37EHrEL5rf/gTLhzBCEaAKUc0J0U7wthwEgqKgIYrmtpofeOdbw35acBLO5nYn9ze58HAzL9VqlYy+GOwoZ/ix+hsDvOUwD2lJn0t/WHQgTQk2CeSgLOurKge0/3M6eLQ4hLBNUBFqeX9Eeo30cAA04HAMTirYU8hO0R/LJFUKmgOgBOI+jP8cjsbceAvYzNJgN6l+lf/xI3BgQDMIRcKqAKsLjiNlvYxSOG4WMejyfkt8oAR7BL/2GwTQC4wogFARoNsMAPrjjPO128mWGYWKwv1jeMDyJ5CjbonkC3CPBz0NsfV03AEo67na4wA+WJvQr1ZQCQNTjQMt0TIAFcJP64ezTAAgBcEQD0YsCL2KtY3xB0l4s7rBfQmQWQgwDGQC0BC3I7SQBMCACxkFPR38bt0zkE870ygJwDzoRqAhZX0IL7szABAPiiBDBI50vxlAIQ4LAg5VdLwNKLSAAcBoRCX5UAG7te5x5QAviwEIFaAoxQZrz+kMcTUAIsJ/UBunMAfBjhCNQSYMTyCIBhJcC6sEPfDOYmEOYQ6/ay9ASYQQEwqATY9um7m3lzAIiF4hKBcRL4IgCeIBkAdU7XF7BcAMfiSkRYegJxEfAuB7Byla5NkD+EUH4vT0+AeSIABnIA6/S8EY/kAqQInHZqAo4BAfCiVziHvxPAsSV6ZjAPQCKwu5+FqQk43giAJ29xf8v7T2YMWKsD0LE8PwEOA/zeID2BiAjowQD/z0/fbLiWaB+CO/GxhtCOEkGOmoDjhQB4zgIg/OvzdwLYsFT7DOYBpCtZKui30xJwfBUAPrwPzJHPH3B/x/azmiPYlgsIS4AEXBKpCfSIAHIWuT5/tNp4tyu6TPNZ1J2XABIBbq8rQE1gRAT4IgDgPn38leJttuRJzYDOPEAYCQBXAi5ItATeSYARADj/fPxhg0oeW1ooAAQEwPXD7YCWQEoCtDNWPsF++I2/tyUXzi8UwCGEMMDeH/QHECWBgAR4kYYImA/fCOCAZsDyXADKfjFJReB6QkmA8UiAjBXq53sC2F8gQPHVzO2FPUFJwDEkAYYw4IcAiM7vKAiAZIAzAQBWPQHHoAR47pZeRtFkdENBgAArAwIpDKAk0JMFvFEA9mgFxJUAXgEIp/EjoCSQyQJ6oD0BJJPRlXMKSYBTANi0i7oLHF+yADwEEmCZVsB6JQApAPZ0BACUBIazgOesCHidjK6bU8CFxI9yHsGzAEdLIC0DEjLgpGZAh3wt55UAfzoIAEoCcRkwLACeAuAYADTWgk4JEFYCnOlxzgGXDMjIgMMA0CzoHgvg7R/nHDDLgEEBEAWArv9Zztk2BiCRAgCiJODwZQEvuSzggPZLWVFzWfH2MQAJAHB29QQcQzLgbfYRdJU2lhVpal/WWFpTbXzUmT+ECS8GsJQEvsqATHYX2IzVpcVlTUUTbl9cWmMyVlWWX3jgdAVGAxAlgQEZsDcLiG6sMFbXFDdOiFDURFYP7VtKWg27t/pVACoJZGRAe1A6CaPnyysrTDiF5on1N1VUVTa0tU4y1NVOud09GsD2qiYwogCkpJfR1ZKW8soqCEEpoPcvl/rXT158+tqmXICdVU/gjQLwlgCeJrt2T5qwAIa/tNpYgfMX+0+bO3P2jB1bEQaw/eIQqifwVgF4AwAsuFVnaC1pwE+hppTMAR1ABkARAAZMnz7r5o3LV26mx90FCQVghAC6bu2uM0AE0hhMCJCfAABmzZu3YsXlcXdBWAHIYMCax7VTSQIioKlIwwxMJREoBVec1F0A5ZMBA1bbltv1U2ohAA1TiIfABEMgC0gGEuHhJXoCjiEZsPf4rsnK/rkjQM8AjwF5ClNr6yEEkUAM9w4G7JQEBmTAXdx+qmGSkD9Zf5OiE30nCI+BEEgK2CAhZt04iNQATI8IaD96Rlh9q7x8MoBaCPAgSlpFg4CAJIhi5/1DnWweYPWWrcd3nJm1YtGio0fnCd0h/Da8ekp72uuIGEgOAoIogIEdUDNO7zhx/dDWg4euXT9+4sSO0zNnzp27eNrkyfU4+Dph7Q1k8ZRXEd2AczASBLwXsAIY2AEQqGmKwn/XQ+cptXjT4d5tpDl+8vgVQOtOvxUAokZUYAZxGAx1QIGqFQr/Cp8YoPEksTXpbYLmlKVrVRBGVSWGNDS0tLWVKKutraWloaEcGkNnoXUpvH4pK9fOaMKO0hosMRmNxgpcVaTwb/CJyWSqJo2LG2HZlNYFSoqKmgFTBhy5GhvLypqampuLoO//0lZ/AeUZMKZshpPEAAAAAElFTkSuQmCC" parent="C8oowRiF8RS0OOutvdNS-35" vertex="1">
          <mxGeometry y="5" width="70" height="70" as="geometry" />
        </mxCell>
        <mxCell id="C8oowRiF8RS0OOutvdNS-37" value="" style="whiteSpace=wrap;html=1;aspect=fixed;fillColor=none;" parent="C8oowRiF8RS0OOutvdNS-35" vertex="1">
          <mxGeometry width="75" height="75" as="geometry" />
        </mxCell>
        <mxCell id="C8oowRiF8RS0OOutvdNS-38" style="edgeStyle=orthogonalEdgeStyle;rounded=0;orthogonalLoop=1;jettySize=auto;html=1;exitX=1;exitY=0.5;exitDx=0;exitDy=0;entryX=0;entryY=0.5;entryDx=0;entryDy=0;" parent="1" source="C8oowRiF8RS0OOutvdNS-39" target="C8oowRiF8RS0OOutvdNS-42" edge="1">
          <mxGeometry relative="1" as="geometry" />
        </mxCell>
        <mxCell id="C8oowRiF8RS0OOutvdNS-39" value="H/4*W/4&lt;br /&gt;96" style="text;html=1;strokeColor=none;fillColor=none;align=center;verticalAlign=middle;whiteSpace=wrap;rounded=0;" parent="1" vertex="1">
          <mxGeometry x="65" y="260" width="40" height="20" as="geometry" />
        </mxCell>
        <mxCell id="C8oowRiF8RS0OOutvdNS-40" style="edgeStyle=orthogonalEdgeStyle;rounded=0;orthogonalLoop=1;jettySize=auto;html=1;exitX=1;exitY=0.5;exitDx=0;exitDy=0;entryX=0;entryY=0.5;entryDx=0;entryDy=0;" parent="1" source="C8oowRiF8RS0OOutvdNS-42" target="C8oowRiF8RS0OOutvdNS-45" edge="1">
          <mxGeometry relative="1" as="geometry" />
        </mxCell>
        <mxCell id="C8oowRiF8RS0OOutvdNS-41" style="edgeStyle=orthogonalEdgeStyle;rounded=0;orthogonalLoop=1;jettySize=auto;html=1;exitX=0.5;exitY=1;exitDx=0;exitDy=0;entryX=0;entryY=0.5;entryDx=0;entryDy=0;" parent="1" source="C8oowRiF8RS0OOutvdNS-42" target="C8oowRiF8RS0OOutvdNS-53" edge="1">
          <mxGeometry relative="1" as="geometry" />
        </mxCell>
        <mxCell id="C8oowRiF8RS0OOutvdNS-42" value="H/8*W/8&lt;br /&gt;128" style="text;html=1;strokeColor=none;fillColor=none;align=center;verticalAlign=middle;whiteSpace=wrap;rounded=0;" parent="1" vertex="1">
          <mxGeometry x="150" y="260" width="40" height="20" as="geometry" />
        </mxCell>
        <mxCell id="C8oowRiF8RS0OOutvdNS-43" style="edgeStyle=orthogonalEdgeStyle;rounded=0;orthogonalLoop=1;jettySize=auto;html=1;exitX=1;exitY=0.5;exitDx=0;exitDy=0;entryX=0;entryY=0.5;entryDx=0;entryDy=0;" parent="1" source="C8oowRiF8RS0OOutvdNS-45" target="C8oowRiF8RS0OOutvdNS-47" edge="1">
          <mxGeometry relative="1" as="geometry" />
        </mxCell>
        <mxCell id="C8oowRiF8RS0OOutvdNS-44" style="edgeStyle=orthogonalEdgeStyle;rounded=0;orthogonalLoop=1;jettySize=auto;html=1;exitX=0.5;exitY=1;exitDx=0;exitDy=0;entryX=0.929;entryY=0.63;entryDx=0;entryDy=0;entryPerimeter=0;" parent="1" source="C8oowRiF8RS0OOutvdNS-45" target="C8oowRiF8RS0OOutvdNS-55" edge="1">
          <mxGeometry relative="1" as="geometry" />
        </mxCell>
        <mxCell id="C8oowRiF8RS0OOutvdNS-45" value="H/16*W/16&lt;br /&gt;128" style="text;html=1;strokeColor=none;fillColor=none;align=center;verticalAlign=middle;whiteSpace=wrap;rounded=0;" parent="1" vertex="1">
          <mxGeometry x="240" y="260" width="40" height="20" as="geometry" />
        </mxCell>
        <mxCell id="C8oowRiF8RS0OOutvdNS-46" style="edgeStyle=orthogonalEdgeStyle;rounded=0;orthogonalLoop=1;jettySize=auto;html=1;exitX=0.5;exitY=1;exitDx=0;exitDy=0;entryX=0;entryY=0.5;entryDx=0;entryDy=0;" parent="1" source="C8oowRiF8RS0OOutvdNS-47" target="C8oowRiF8RS0OOutvdNS-57" edge="1">
          <mxGeometry relative="1" as="geometry" />
        </mxCell>
        <mxCell id="C8oowRiF8RS0OOutvdNS-47" value="H/32*W/32&lt;br /&gt;128" style="text;html=1;strokeColor=none;fillColor=none;align=center;verticalAlign=middle;whiteSpace=wrap;rounded=0;" parent="1" vertex="1">
          <mxGeometry x="345" y="260" width="40" height="20" as="geometry" />
        </mxCell>
        <mxCell id="C8oowRiF8RS0OOutvdNS-48" value="offical ds3" style="rounded=1;whiteSpace=wrap;html=1;" parent="1" vertex="1">
          <mxGeometry x="-350" y="260" width="100" height="20" as="geometry" />
        </mxCell>
        <mxCell id="C8oowRiF8RS0OOutvdNS-49" value="output08&lt;br /&gt;" style="ellipse;whiteSpace=wrap;html=1;" parent="1" vertex="1">
          <mxGeometry x="133.75" y="410" width="76.25" height="20" as="geometry" />
        </mxCell>
        <mxCell id="C8oowRiF8RS0OOutvdNS-50" value="output16" style="ellipse;whiteSpace=wrap;html=1;" parent="1" vertex="1">
          <mxGeometry x="228.75" y="410" width="72.5" height="20" as="geometry" />
        </mxCell>
        <mxCell id="C8oowRiF8RS0OOutvdNS-51" value="output32" style="ellipse;whiteSpace=wrap;html=1;" parent="1" vertex="1">
          <mxGeometry x="328.75" y="410" width="72.5" height="20" as="geometry" />
        </mxCell>
        <mxCell id="C8oowRiF8RS0OOutvdNS-52" style="edgeStyle=orthogonalEdgeStyle;rounded=0;orthogonalLoop=1;jettySize=auto;html=1;exitX=1;exitY=0.5;exitDx=0;exitDy=0;entryX=0.5;entryY=0;entryDx=0;entryDy=0;" parent="1" source="C8oowRiF8RS0OOutvdNS-53" target="C8oowRiF8RS0OOutvdNS-49" edge="1">
          <mxGeometry relative="1" as="geometry" />
        </mxCell>
        <mxCell id="C8oowRiF8RS0OOutvdNS-53" value="ResBlock&lt;br /&gt;bn" style="shape=parallelogram;perimeter=parallelogramPerimeter;whiteSpace=wrap;html=1;rotation=90;flipH=1;horizontal=0;direction=east;textDirection=rtl;size=0.19047619047619047;verticalAlign=middle;" parent="1" vertex="1">
          <mxGeometry x="135" y="320" width="70" height="40" as="geometry" />
        </mxCell>
        <mxCell id="C8oowRiF8RS0OOutvdNS-54" style="edgeStyle=orthogonalEdgeStyle;rounded=0;orthogonalLoop=1;jettySize=auto;html=1;exitX=1;exitY=0.5;exitDx=0;exitDy=0;entryX=0.5;entryY=0;entryDx=0;entryDy=0;" parent="1" source="C8oowRiF8RS0OOutvdNS-55" target="C8oowRiF8RS0OOutvdNS-50" edge="1">
          <mxGeometry relative="1" as="geometry" />
        </mxCell>
        <mxCell id="C8oowRiF8RS0OOutvdNS-55" value="ResBlock&lt;br /&gt;bn" style="shape=parallelogram;perimeter=parallelogramPerimeter;whiteSpace=wrap;html=1;rotation=90;flipH=1;horizontal=0;direction=east;textDirection=rtl;size=0.19047619047619047;verticalAlign=middle;" parent="1" vertex="1">
          <mxGeometry x="230" y="320" width="70" height="40" as="geometry" />
        </mxCell>
        <mxCell id="C8oowRiF8RS0OOutvdNS-56" style="edgeStyle=orthogonalEdgeStyle;rounded=0;orthogonalLoop=1;jettySize=auto;html=1;exitX=1;exitY=0.5;exitDx=0;exitDy=0;entryX=0.5;entryY=0;entryDx=0;entryDy=0;" parent="1" source="C8oowRiF8RS0OOutvdNS-57" target="C8oowRiF8RS0OOutvdNS-51" edge="1">
          <mxGeometry relative="1" as="geometry" />
        </mxCell>
        <mxCell id="C8oowRiF8RS0OOutvdNS-57" value="ResBlock&lt;br /&gt;bn" style="shape=parallelogram;perimeter=parallelogramPerimeter;whiteSpace=wrap;html=1;rotation=90;flipH=1;horizontal=0;direction=east;textDirection=rtl;size=0.19047619047619047;verticalAlign=middle;" parent="1" vertex="1">
          <mxGeometry x="330" y="320" width="70" height="40" as="geometry" />
        </mxCell>
        <mxCell id="C8oowRiF8RS0OOutvdNS-58" value="&lt;meta charset=&quot;utf-8&quot;&gt;&lt;meta&gt;&lt;span style=&quot;color: rgb(0, 0, 0); font-family: Helvetica; font-size: 12px; font-style: normal; font-variant-ligatures: no-common-ligatures; font-variant-caps: normal; font-weight: 400; letter-spacing: normal; orphans: 2; text-indent: 0px; text-transform: none; widows: 2; word-spacing: 0px; -webkit-text-stroke-width: 0px; background-color: rgb(248, 249, 250); text-decoration-thickness: initial; text-decoration-style: initial; text-decoration-color: initial; float: none; display: inline !important;&quot;&gt;dim[0] 128&lt;/span&gt;" style="text;whiteSpace=wrap;html=1;align=center;verticalAlign=middle;" parent="1" vertex="1">
          <mxGeometry x="133.75" y="430" width="80" height="30" as="geometry" />
        </mxCell>
        <mxCell id="C8oowRiF8RS0OOutvdNS-59" value="&lt;meta /&gt;&lt;meta /&gt;&lt;span style=&quot;color: rgb(0, 0, 0); font-family: Helvetica; font-size: 12px; font-style: normal; font-variant-ligatures: no-common-ligatures; font-variant-caps: normal; font-weight: 400; letter-spacing: normal; orphans: 2; text-indent: 0px; text-transform: none; widows: 2; word-spacing: 0px; -webkit-text-stroke-width: 0px; background-color: rgb(248, 249, 250); text-decoration-thickness: initial; text-decoration-style: initial; text-decoration-color: initial; float: none; display: inline !important;&quot;&gt;dim[1] 128&lt;/span&gt;" style="text;whiteSpace=wrap;html=1;align=center;verticalAlign=middle;" parent="1" vertex="1">
          <mxGeometry x="230" y="430" width="80" height="30" as="geometry" />
        </mxCell>
        <mxCell id="C8oowRiF8RS0OOutvdNS-60" value="&lt;meta /&gt;&lt;meta /&gt;&lt;span style=&quot;color: rgb(0, 0, 0); font-family: Helvetica; font-size: 12px; font-style: normal; font-variant-ligatures: no-common-ligatures; font-variant-caps: normal; font-weight: 400; letter-spacing: normal; orphans: 2; text-indent: 0px; text-transform: none; widows: 2; word-spacing: 0px; -webkit-text-stroke-width: 0px; background-color: rgb(248, 249, 250); text-decoration-thickness: initial; text-decoration-style: initial; text-decoration-color: initial; float: none; display: inline !important;&quot;&gt;dim[2] 128&lt;/span&gt;" style="text;whiteSpace=wrap;html=1;align=center;verticalAlign=middle;" parent="1" vertex="1">
          <mxGeometry x="330" y="430" width="80" height="30" as="geometry" />
        </mxCell>
        <mxCell id="C8oowRiF8RS0OOutvdNS-61" style="edgeStyle=orthogonalEdgeStyle;rounded=0;orthogonalLoop=1;jettySize=auto;html=1;exitX=0.5;exitY=1;exitDx=0;exitDy=0;entryX=0;entryY=0.5;entryDx=0;entryDy=0;" parent="1" source="C8oowRiF8RS0OOutvdNS-63" target="C8oowRiF8RS0OOutvdNS-71" edge="1">
          <mxGeometry relative="1" as="geometry" />
        </mxCell>
        <mxCell id="C8oowRiF8RS0OOutvdNS-62" style="edgeStyle=orthogonalEdgeStyle;rounded=0;orthogonalLoop=1;jettySize=auto;html=1;exitX=1;exitY=0.5;exitDx=0;exitDy=0;entryX=0.5;entryY=1;entryDx=0;entryDy=0;" parent="1" source="C8oowRiF8RS0OOutvdNS-63" target="C8oowRiF8RS0OOutvdNS-64" edge="1">
          <mxGeometry relative="1" as="geometry">
            <Array as="points">
              <mxPoint x="235" y="550" />
            </Array>
          </mxGeometry>
        </mxCell>
        <mxCell id="C8oowRiF8RS0OOutvdNS-63" value="v" style="ellipse;whiteSpace=wrap;html=1;" parent="1" vertex="1">
          <mxGeometry x="136.89999999999998" y="540" width="73.11" height="20" as="geometry" />
        </mxCell>
        <mxCell id="C8oowRiF8RS0OOutvdNS-64" value="only left" style="rounded=1;whiteSpace=wrap;html=1;" parent="1" vertex="1">
          <mxGeometry x="195" y="470" width="80" height="20" as="geometry" />
        </mxCell>
        <mxCell id="C8oowRiF8RS0OOutvdNS-65" style="edgeStyle=orthogonalEdgeStyle;rounded=0;orthogonalLoop=1;jettySize=auto;html=1;exitX=0.5;exitY=1;exitDx=0;exitDy=0;entryX=1.038;entryY=0.799;entryDx=0;entryDy=0;entryPerimeter=0;" parent="1" source="C8oowRiF8RS0OOutvdNS-66" target="C8oowRiF8RS0OOutvdNS-99" edge="1">
          <mxGeometry relative="1" as="geometry" />
        </mxCell>
        <mxCell id="C8oowRiF8RS0OOutvdNS-66" value="fmap1" style="ellipse;whiteSpace=wrap;html=1;" parent="1" vertex="1">
          <mxGeometry x="136.57" y="675" width="76.25" height="20" as="geometry" />
        </mxCell>
        <mxCell id="C8oowRiF8RS0OOutvdNS-67" style="edgeStyle=orthogonalEdgeStyle;rounded=0;orthogonalLoop=1;jettySize=auto;html=1;exitX=0.5;exitY=1;exitDx=0;exitDy=0;entryX=1;entryY=0.195;entryDx=0;entryDy=0;entryPerimeter=0;" parent="1" source="C8oowRiF8RS0OOutvdNS-68" target="C8oowRiF8RS0OOutvdNS-99" edge="1">
          <mxGeometry relative="1" as="geometry" />
        </mxCell>
        <mxCell id="C8oowRiF8RS0OOutvdNS-68" value="fmap2" style="ellipse;whiteSpace=wrap;html=1;" parent="1" vertex="1">
          <mxGeometry x="227.19" y="675" width="76.25" height="20" as="geometry" />
        </mxCell>
        <mxCell id="C8oowRiF8RS0OOutvdNS-69" style="edgeStyle=orthogonalEdgeStyle;rounded=0;orthogonalLoop=1;jettySize=auto;html=1;exitX=1;exitY=0.5;exitDx=0;exitDy=0;entryX=0.5;entryY=0;entryDx=0;entryDy=0;" parent="1" source="C8oowRiF8RS0OOutvdNS-71" target="C8oowRiF8RS0OOutvdNS-66" edge="1">
          <mxGeometry relative="1" as="geometry" />
        </mxCell>
        <mxCell id="C8oowRiF8RS0OOutvdNS-70" style="edgeStyle=orthogonalEdgeStyle;rounded=0;orthogonalLoop=1;jettySize=auto;html=1;exitX=1;exitY=0.5;exitDx=0;exitDy=0;entryX=0.5;entryY=0;entryDx=0;entryDy=0;" parent="1" edge="1">
          <mxGeometry relative="1" as="geometry">
            <mxPoint x="174.07999999999993" y="648.3333333333333" as="sourcePoint" />
            <mxPoint x="265.93499999999995" y="675.0000000000002" as="targetPoint" />
            <Array as="points">
              <mxPoint x="174.01" y="660" />
              <mxPoint x="266.01" y="660" />
            </Array>
          </mxGeometry>
        </mxCell>
        <mxCell id="C8oowRiF8RS0OOutvdNS-71" value="ResBlock&lt;br /&gt;in&lt;br /&gt;" style="shape=parallelogram;perimeter=parallelogramPerimeter;whiteSpace=wrap;html=1;rotation=90;flipH=1;horizontal=0;direction=east;textDirection=rtl;size=0.19047619047619047;verticalAlign=middle;" parent="1" vertex="1">
          <mxGeometry x="138.45999999999998" y="600" width="70" height="40" as="geometry" />
        </mxCell>
        <mxCell id="C8oowRiF8RS0OOutvdNS-72" value="output08&lt;br /&gt;" style="ellipse;whiteSpace=wrap;html=1;" parent="1" vertex="1">
          <mxGeometry x="537" y="135" width="76.25" height="20" as="geometry" />
        </mxCell>
        <mxCell id="C8oowRiF8RS0OOutvdNS-73" value="output16" style="ellipse;whiteSpace=wrap;html=1;" parent="1" vertex="1">
          <mxGeometry x="632" y="135" width="72.5" height="20" as="geometry" />
        </mxCell>
        <mxCell id="C8oowRiF8RS0OOutvdNS-74" value="output32" style="ellipse;whiteSpace=wrap;html=1;" parent="1" vertex="1">
          <mxGeometry x="732" y="135" width="72.5" height="20" as="geometry" />
        </mxCell>
        <mxCell id="C8oowRiF8RS0OOutvdNS-75" value="&lt;meta charset=&quot;utf-8&quot;&gt;&lt;meta&gt;&lt;span style=&quot;color: rgb(0, 0, 0); font-family: Helvetica; font-size: 12px; font-style: normal; font-variant-ligatures: no-common-ligatures; font-variant-caps: normal; font-weight: 400; letter-spacing: normal; orphans: 2; text-indent: 0px; text-transform: none; widows: 2; word-spacing: 0px; -webkit-text-stroke-width: 0px; background-color: rgb(248, 249, 250); text-decoration-thickness: initial; text-decoration-style: initial; text-decoration-color: initial; float: none; display: inline !important;&quot;&gt;dim[0] 128&lt;/span&gt;" style="text;whiteSpace=wrap;html=1;align=center;verticalAlign=middle;" parent="1" vertex="1">
          <mxGeometry x="537" y="155" width="80" height="30" as="geometry" />
        </mxCell>
        <mxCell id="C8oowRiF8RS0OOutvdNS-76" value="&lt;meta /&gt;&lt;meta /&gt;&lt;span style=&quot;color: rgb(0, 0, 0); font-family: Helvetica; font-size: 12px; font-style: normal; font-variant-ligatures: no-common-ligatures; font-variant-caps: normal; font-weight: 400; letter-spacing: normal; orphans: 2; text-indent: 0px; text-transform: none; widows: 2; word-spacing: 0px; -webkit-text-stroke-width: 0px; background-color: rgb(248, 249, 250); text-decoration-thickness: initial; text-decoration-style: initial; text-decoration-color: initial; float: none; display: inline !important;&quot;&gt;dim[1] 128&lt;/span&gt;" style="text;whiteSpace=wrap;html=1;align=center;verticalAlign=middle;" parent="1" vertex="1">
          <mxGeometry x="633.25" y="150" width="80" height="35" as="geometry" />
        </mxCell>
        <mxCell id="C8oowRiF8RS0OOutvdNS-77" value="&lt;meta /&gt;&lt;meta /&gt;&lt;span style=&quot;color: rgb(0, 0, 0); font-family: Helvetica; font-size: 12px; font-style: normal; font-variant-ligatures: no-common-ligatures; font-variant-caps: normal; font-weight: 400; letter-spacing: normal; orphans: 2; text-indent: 0px; text-transform: none; widows: 2; word-spacing: 0px; -webkit-text-stroke-width: 0px; background-color: rgb(248, 249, 250); text-decoration-thickness: initial; text-decoration-style: initial; text-decoration-color: initial; float: none; display: inline !important;&quot;&gt;dim[2] 128&lt;/span&gt;" style="text;whiteSpace=wrap;html=1;align=center;verticalAlign=middle;" parent="1" vertex="1">
          <mxGeometry x="733.25" y="155" width="80" height="30" as="geometry" />
        </mxCell>
        <mxCell id="C8oowRiF8RS0OOutvdNS-78" value="" style="group" parent="1" vertex="1" connectable="0">
          <mxGeometry x="539.5" y="205" width="75" height="30" as="geometry" />
        </mxCell>
        <mxCell id="C8oowRiF8RS0OOutvdNS-79" value="" style="rounded=0;whiteSpace=wrap;html=1;strokeColor=#000000;strokeWidth=1;fillColor=#1FFF44;" parent="C8oowRiF8RS0OOutvdNS-78" vertex="1">
          <mxGeometry width="40" height="30" as="geometry" />
        </mxCell>
        <mxCell id="C8oowRiF8RS0OOutvdNS-80" value="" style="rounded=0;whiteSpace=wrap;html=1;strokeColor=#000000;strokeWidth=1;fillColor=#FFFF66;" parent="C8oowRiF8RS0OOutvdNS-78" vertex="1">
          <mxGeometry x="37.5" width="37.5" height="30" as="geometry" />
        </mxCell>
        <mxCell id="C8oowRiF8RS0OOutvdNS-81" value="" style="group" parent="1" vertex="1" connectable="0">
          <mxGeometry x="627" y="205" width="75" height="30" as="geometry" />
        </mxCell>
        <mxCell id="C8oowRiF8RS0OOutvdNS-82" value="" style="rounded=0;whiteSpace=wrap;html=1;strokeColor=#000000;strokeWidth=1;fillColor=#1FFF44;" parent="C8oowRiF8RS0OOutvdNS-81" vertex="1">
          <mxGeometry width="40" height="30" as="geometry" />
        </mxCell>
        <mxCell id="C8oowRiF8RS0OOutvdNS-83" value="" style="rounded=0;whiteSpace=wrap;html=1;strokeColor=#000000;strokeWidth=1;fillColor=#FFFF66;" parent="C8oowRiF8RS0OOutvdNS-81" vertex="1">
          <mxGeometry x="37.5" width="37.5" height="30" as="geometry" />
        </mxCell>
        <mxCell id="C8oowRiF8RS0OOutvdNS-84" value="" style="group" parent="1" vertex="1" connectable="0">
          <mxGeometry x="727" y="205" width="75" height="30" as="geometry" />
        </mxCell>
        <mxCell id="C8oowRiF8RS0OOutvdNS-85" value="" style="rounded=0;whiteSpace=wrap;html=1;strokeColor=#000000;strokeWidth=1;fillColor=#1FFF44;" parent="C8oowRiF8RS0OOutvdNS-84" vertex="1">
          <mxGeometry width="40" height="30" as="geometry" />
        </mxCell>
        <mxCell id="C8oowRiF8RS0OOutvdNS-86" value="" style="rounded=0;whiteSpace=wrap;html=1;strokeColor=#000000;strokeWidth=1;fillColor=#FFFF66;" parent="C8oowRiF8RS0OOutvdNS-84" vertex="1">
          <mxGeometry x="37.5" width="37.5" height="30" as="geometry" />
        </mxCell>
        <mxCell id="C8oowRiF8RS0OOutvdNS-87" style="edgeStyle=orthogonalEdgeStyle;rounded=0;orthogonalLoop=1;jettySize=auto;html=1;exitX=1;exitY=0.5;exitDx=0;exitDy=0;entryX=1;entryY=0.493;entryDx=0;entryDy=0;entryPerimeter=0;strokeColor=#000000;" parent="1" source="C8oowRiF8RS0OOutvdNS-88" target="C8oowRiF8RS0OOutvdNS-96" edge="1">
          <mxGeometry relative="1" as="geometry">
            <Array as="points">
              <mxPoint x="563" y="360" />
              <mxPoint x="642" y="360" />
              <mxPoint x="642" y="380" />
            </Array>
          </mxGeometry>
        </mxCell>
        <mxCell id="C8oowRiF8RS0OOutvdNS-88" value="relu" style="shape=parallelogram;perimeter=parallelogramPerimeter;whiteSpace=wrap;html=1;rotation=90;flipH=1;horizontal=0;direction=east;size=0.19047619047619047;verticalAlign=middle;" parent="1" vertex="1">
          <mxGeometry x="528.25" y="290" width="70" height="40" as="geometry" />
        </mxCell>
        <mxCell id="C8oowRiF8RS0OOutvdNS-89" value="" style="edgeStyle=orthogonalEdgeStyle;rounded=0;orthogonalLoop=1;jettySize=auto;html=1;strokeColor=#0FFF6F;" parent="1" source="C8oowRiF8RS0OOutvdNS-79" target="C8oowRiF8RS0OOutvdNS-88" edge="1">
          <mxGeometry relative="1" as="geometry" />
        </mxCell>
        <mxCell id="C8oowRiF8RS0OOutvdNS-90" value="&lt;b style=&quot;background-color: rgb(0, 0, 0);&quot;&gt;&lt;span style=&quot;font-family: Helvetica; font-size: 12px; font-style: normal; font-variant-ligatures: no-common-ligatures; font-variant-caps: normal; letter-spacing: normal; orphans: 2; text-align: center; text-indent: 0px; text-transform: none; widows: 2; word-spacing: 0px; -webkit-text-stroke-width: 0px; text-decoration-thickness: initial; text-decoration-style: initial; text-decoration-color: initial; float: none; display: inline !important;&quot;&gt;&lt;font color=&quot;#0fff6f&quot; style&gt;inp_lists&lt;/font&gt;&lt;/span&gt;&lt;span style=&quot;color: rgb(0, 0, 0); font-family: Helvetica; font-size: 12px; font-style: normal; font-variant-ligatures: no-common-ligatures; font-variant-caps: normal; letter-spacing: normal; orphans: 2; text-align: center; text-indent: 0px; text-transform: none; widows: 2; word-spacing: 0px; -webkit-text-stroke-width: 0px; text-decoration-thickness: initial; text-decoration-style: initial; text-decoration-color: initial; float: none; display: inline !important;&quot;&gt; |  &lt;/span&gt;&lt;span style=&quot;font-family: Helvetica; font-size: 12px; font-style: normal; font-variant-ligatures: no-common-ligatures; font-variant-caps: normal; letter-spacing: normal; orphans: 2; text-align: center; text-indent: 0px; text-transform: none; widows: 2; word-spacing: 0px; -webkit-text-stroke-width: 0px; text-decoration-thickness: initial; text-decoration-style: initial; text-decoration-color: initial; float: none; display: inline !important;&quot;&gt;&lt;font color=&quot;#ffff66&quot;&gt;net&lt;/font&gt;&lt;/span&gt;&lt;span style=&quot;font-family: Helvetica; font-size: 12px; font-style: normal; font-variant-ligatures: no-common-ligatures; font-variant-caps: normal; letter-spacing: normal; orphans: 2; text-align: center; text-indent: 0px; text-transform: none; widows: 2; word-spacing: 0px; -webkit-text-stroke-width: 0px; text-decoration-thickness: initial; text-decoration-style: initial; text-decoration-color: initial; float: none; display: inline !important;&quot;&gt;&lt;font color=&quot;#ffff66&quot; style&gt;_lists&lt;/font&gt;&lt;/span&gt;&lt;/b&gt;" style="text;whiteSpace=wrap;html=1;fillColor=#ffffff;" parent="1" vertex="1">
          <mxGeometry x="420" y="205" width="117" height="30" as="geometry" />
        </mxCell>
        <mxCell id="C8oowRiF8RS0OOutvdNS-91" value="&lt;div style&gt;conv2&lt;/div&gt;" style="text;whiteSpace=wrap;html=1;align=center;" parent="1" vertex="1">
          <mxGeometry x="200" y="605" width="80" height="30" as="geometry" />
        </mxCell>
        <mxCell id="C8oowRiF8RS0OOutvdNS-92" value="&lt;div style=&quot;text-align: center;&quot;&gt;&lt;font color=&quot;#0fff6f&quot;&gt;&lt;span style=&quot;background-color: rgb(0, 0, 0);&quot;&gt;&lt;b&gt;cnet_list&lt;/b&gt;&lt;/span&gt;&lt;/font&gt;&lt;/div&gt;" style="text;whiteSpace=wrap;html=1;fillColor=#ffffff;" parent="1" vertex="1">
          <mxGeometry x="518.5" y="70" width="117" height="30" as="geometry" />
        </mxCell>
        <mxCell id="C8oowRiF8RS0OOutvdNS-93" style="edgeStyle=orthogonalEdgeStyle;rounded=0;orthogonalLoop=1;jettySize=auto;html=1;exitX=0;exitY=0.5;exitDx=0;exitDy=0;entryX=0.5;entryY=0;entryDx=0;entryDy=0;strokeColor=#000000;" parent="1" source="C8oowRiF8RS0OOutvdNS-96" target="C8oowRiF8RS0OOutvdNS-119" edge="1">
          <mxGeometry relative="1" as="geometry">
            <Array as="points">
              <mxPoint x="641" y="420" />
              <mxPoint x="747" y="420" />
            </Array>
          </mxGeometry>
        </mxCell>
        <mxCell id="C8oowRiF8RS0OOutvdNS-94" style="edgeStyle=orthogonalEdgeStyle;rounded=0;orthogonalLoop=1;jettySize=auto;html=1;exitX=0;exitY=0.5;exitDx=0;exitDy=0;entryX=0.5;entryY=0;entryDx=0;entryDy=0;strokeColor=#000000;" parent="1" source="C8oowRiF8RS0OOutvdNS-96" target="C8oowRiF8RS0OOutvdNS-106" edge="1">
          <mxGeometry relative="1" as="geometry" />
        </mxCell>
        <mxCell id="C8oowRiF8RS0OOutvdNS-95" style="edgeStyle=orthogonalEdgeStyle;rounded=0;orthogonalLoop=1;jettySize=auto;html=1;exitX=0;exitY=0.5;exitDx=0;exitDy=0;entryX=0.5;entryY=0;entryDx=0;entryDy=0;" parent="1" source="C8oowRiF8RS0OOutvdNS-96" target="C8oowRiF8RS0OOutvdNS-113" edge="1">
          <mxGeometry relative="1" as="geometry" />
        </mxCell>
        <mxCell id="C8oowRiF8RS0OOutvdNS-96" value="&lt;pre style=&quot;color: rgb(8, 8, 8); font-family: &amp;quot;JetBrains Mono&amp;quot;, monospace; font-size: 9.8pt;&quot;&gt;context_zqr_convs&lt;/pre&gt;" style="shape=parallelogram;perimeter=parallelogramPerimeter;whiteSpace=wrap;html=1;rotation=0;flipH=1;horizontal=1;direction=north;size=0;" parent="1" vertex="1">
          <mxGeometry x="561.25" y="370" width="158.75" height="30" as="geometry" />
        </mxCell>
        <mxCell id="C8oowRiF8RS0OOutvdNS-97" style="edgeStyle=orthogonalEdgeStyle;rounded=0;orthogonalLoop=1;jettySize=auto;html=1;exitX=0.5;exitY=1;exitDx=0;exitDy=0;entryX=0;entryY=0.5;entryDx=0;entryDy=0;strokeColor=#0FFF6F;" parent="1" source="C8oowRiF8RS0OOutvdNS-82" target="C8oowRiF8RS0OOutvdNS-88" edge="1">
          <mxGeometry relative="1" as="geometry" />
        </mxCell>
        <mxCell id="C8oowRiF8RS0OOutvdNS-98" style="edgeStyle=orthogonalEdgeStyle;rounded=0;orthogonalLoop=1;jettySize=auto;html=1;exitX=0.5;exitY=1;exitDx=0;exitDy=0;entryX=0;entryY=0.5;entryDx=0;entryDy=0;strokeColor=#0FFF6F;" parent="1" source="C8oowRiF8RS0OOutvdNS-85" target="C8oowRiF8RS0OOutvdNS-88" edge="1">
          <mxGeometry relative="1" as="geometry" />
        </mxCell>
        <mxCell id="QkjXLqAYZW5GeYN9Ja4e-5" style="edgeStyle=orthogonalEdgeStyle;rounded=0;orthogonalLoop=1;jettySize=auto;html=1;exitX=0;exitY=0.5;exitDx=0;exitDy=0;entryX=0.5;entryY=0;entryDx=0;entryDy=0;" edge="1" parent="1" source="C8oowRiF8RS0OOutvdNS-99" target="QkjXLqAYZW5GeYN9Ja4e-2">
          <mxGeometry relative="1" as="geometry" />
        </mxCell>
        <mxCell id="C8oowRiF8RS0OOutvdNS-99" value="&lt;pre style=&quot;color: rgb(8 , 8 , 8) ; font-family: &amp;#34;jetbrains mono&amp;#34; , monospace ; font-size: 9.8pt&quot;&gt;build correlation&lt;/pre&gt;" style="shape=parallelogram;perimeter=parallelogramPerimeter;whiteSpace=wrap;html=1;rotation=0;flipH=1;horizontal=1;direction=north;size=0;" parent="1" vertex="1">
          <mxGeometry x="144.69" y="730" width="150.31" height="20" as="geometry" />
        </mxCell>
        <mxCell id="C8oowRiF8RS0OOutvdNS-100" style="edgeStyle=orthogonalEdgeStyle;rounded=0;orthogonalLoop=1;jettySize=auto;html=1;exitX=0.5;exitY=1;exitDx=0;exitDy=0;" parent="1" source="C8oowRiF8RS0OOutvdNS-101" edge="1">
          <mxGeometry relative="1" as="geometry">
            <mxPoint x="787" y="320" as="targetPoint" />
          </mxGeometry>
        </mxCell>
        <mxCell id="C8oowRiF8RS0OOutvdNS-101" value="tanh" style="shape=parallelogram;perimeter=parallelogramPerimeter;whiteSpace=wrap;html=1;rotation=90;flipH=1;horizontal=0;direction=east;size=0.19047619047619047;verticalAlign=middle;" parent="1" vertex="1">
          <mxGeometry x="748.25" y="290" width="70" height="40" as="geometry" />
        </mxCell>
        <mxCell id="C8oowRiF8RS0OOutvdNS-102" style="edgeStyle=orthogonalEdgeStyle;rounded=0;orthogonalLoop=1;jettySize=auto;html=1;exitX=0.5;exitY=1;exitDx=0;exitDy=0;strokeColor=#FFFF66;" parent="1" source="C8oowRiF8RS0OOutvdNS-80" target="C8oowRiF8RS0OOutvdNS-101" edge="1">
          <mxGeometry relative="1" as="geometry">
            <mxPoint x="787" y="320" as="targetPoint" />
            <mxPoint x="595.75" y="235" as="sourcePoint" />
          </mxGeometry>
        </mxCell>
        <mxCell id="C8oowRiF8RS0OOutvdNS-103" style="edgeStyle=orthogonalEdgeStyle;rounded=0;orthogonalLoop=1;jettySize=auto;html=1;exitX=0.5;exitY=1;exitDx=0;exitDy=0;entryX=0;entryY=0.5;entryDx=0;entryDy=0;strokeColor=#FFFF66;" parent="1" source="C8oowRiF8RS0OOutvdNS-83" target="C8oowRiF8RS0OOutvdNS-101" edge="1">
          <mxGeometry relative="1" as="geometry" />
        </mxCell>
        <mxCell id="C8oowRiF8RS0OOutvdNS-104" style="edgeStyle=orthogonalEdgeStyle;rounded=0;orthogonalLoop=1;jettySize=auto;html=1;exitX=0.5;exitY=1;exitDx=0;exitDy=0;strokeColor=#FFFF66;" parent="1" source="C8oowRiF8RS0OOutvdNS-86" edge="1">
          <mxGeometry relative="1" as="geometry">
            <mxPoint x="782.8734177215188" y="280" as="targetPoint" />
          </mxGeometry>
        </mxCell>
        <mxCell id="C8oowRiF8RS0OOutvdNS-105" value="" style="group" parent="1" vertex="1" connectable="0">
          <mxGeometry x="540" y="440" width="75" height="30" as="geometry" />
        </mxCell>
        <mxCell id="C8oowRiF8RS0OOutvdNS-106" value="" style="rounded=0;whiteSpace=wrap;html=1;strokeColor=#000000;strokeWidth=1;fillColor=#1FFF44;" parent="C8oowRiF8RS0OOutvdNS-105" vertex="1">
          <mxGeometry width="40" height="30" as="geometry" />
        </mxCell>
        <mxCell id="C8oowRiF8RS0OOutvdNS-107" value="" style="endArrow=none;html=1;strokeColor=#000000;entryX=0.25;entryY=0;entryDx=0;entryDy=0;exitX=0.25;exitY=1;exitDx=0;exitDy=0;" parent="C8oowRiF8RS0OOutvdNS-105" edge="1">
          <mxGeometry width="50" height="50" relative="1" as="geometry">
            <mxPoint x="13.000000000000002" y="30" as="sourcePoint" />
            <mxPoint x="13.000000000000002" as="targetPoint" />
          </mxGeometry>
        </mxCell>
        <mxCell id="C8oowRiF8RS0OOutvdNS-108" value="" style="endArrow=none;html=1;strokeColor=#000000;entryX=0.25;entryY=0;entryDx=0;entryDy=0;exitX=0.25;exitY=1;exitDx=0;exitDy=0;" parent="C8oowRiF8RS0OOutvdNS-105" edge="1">
          <mxGeometry width="50" height="50" relative="1" as="geometry">
            <mxPoint x="28" y="30" as="sourcePoint" />
            <mxPoint x="28" as="targetPoint" />
          </mxGeometry>
        </mxCell>
        <mxCell id="C8oowRiF8RS0OOutvdNS-109" value="z" style="text;html=1;strokeColor=none;fillColor=none;align=center;verticalAlign=middle;whiteSpace=wrap;rounded=0;" parent="C8oowRiF8RS0OOutvdNS-105" vertex="1">
          <mxGeometry y="5" width="10" height="20" as="geometry" />
        </mxCell>
        <mxCell id="C8oowRiF8RS0OOutvdNS-110" value="r" style="text;html=1;strokeColor=none;fillColor=none;align=center;verticalAlign=middle;whiteSpace=wrap;rounded=0;" parent="C8oowRiF8RS0OOutvdNS-105" vertex="1">
          <mxGeometry x="15" y="5" width="10" height="20" as="geometry" />
        </mxCell>
        <mxCell id="C8oowRiF8RS0OOutvdNS-111" value="q" style="text;html=1;strokeColor=none;fillColor=none;align=center;verticalAlign=middle;whiteSpace=wrap;rounded=0;" parent="C8oowRiF8RS0OOutvdNS-105" vertex="1">
          <mxGeometry x="30" y="5" width="10" height="20" as="geometry" />
        </mxCell>
        <mxCell id="C8oowRiF8RS0OOutvdNS-112" value="" style="group" parent="1" vertex="1" connectable="0">
          <mxGeometry x="630" y="440" width="72.5" height="30" as="geometry" />
        </mxCell>
        <mxCell id="C8oowRiF8RS0OOutvdNS-113" value="" style="rounded=0;whiteSpace=wrap;html=1;strokeColor=#000000;strokeWidth=1;fillColor=#1FFF44;" parent="C8oowRiF8RS0OOutvdNS-112" vertex="1">
          <mxGeometry width="38.666666666666664" height="30" as="geometry" />
        </mxCell>
        <mxCell id="C8oowRiF8RS0OOutvdNS-114" value="" style="endArrow=none;html=1;strokeColor=#000000;entryX=0.25;entryY=0;entryDx=0;entryDy=0;exitX=0.25;exitY=1;exitDx=0;exitDy=0;" parent="C8oowRiF8RS0OOutvdNS-112" edge="1">
          <mxGeometry width="50" height="50" relative="1" as="geometry">
            <mxPoint x="11.680000000000007" y="30" as="sourcePoint" />
            <mxPoint x="11.680000000000007" as="targetPoint" />
          </mxGeometry>
        </mxCell>
        <mxCell id="C8oowRiF8RS0OOutvdNS-115" value="" style="endArrow=none;html=1;strokeColor=#000000;entryX=0.25;entryY=0;entryDx=0;entryDy=0;exitX=0.25;exitY=1;exitDx=0;exitDy=0;" parent="C8oowRiF8RS0OOutvdNS-112" edge="1">
          <mxGeometry width="50" height="50" relative="1" as="geometry">
            <mxPoint x="26.67999999999978" y="30" as="sourcePoint" />
            <mxPoint x="26.67999999999978" as="targetPoint" />
          </mxGeometry>
        </mxCell>
        <mxCell id="C8oowRiF8RS0OOutvdNS-116" value="z" style="text;html=1;strokeColor=none;fillColor=none;align=center;verticalAlign=middle;whiteSpace=wrap;rounded=0;" parent="C8oowRiF8RS0OOutvdNS-112" vertex="1">
          <mxGeometry y="5" width="10" height="20" as="geometry" />
        </mxCell>
        <mxCell id="C8oowRiF8RS0OOutvdNS-117" value="r" style="text;html=1;strokeColor=none;fillColor=none;align=center;verticalAlign=middle;whiteSpace=wrap;rounded=0;" parent="C8oowRiF8RS0OOutvdNS-112" vertex="1">
          <mxGeometry x="14.33" y="5" width="10" height="20" as="geometry" />
        </mxCell>
        <mxCell id="C8oowRiF8RS0OOutvdNS-118" value="q" style="text;html=1;strokeColor=none;fillColor=none;align=center;verticalAlign=middle;whiteSpace=wrap;rounded=0;" parent="C8oowRiF8RS0OOutvdNS-112" vertex="1">
          <mxGeometry x="28.67" y="5" width="10" height="20" as="geometry" />
        </mxCell>
        <mxCell id="C8oowRiF8RS0OOutvdNS-119" value="" style="rounded=0;whiteSpace=wrap;html=1;strokeColor=#000000;strokeWidth=1;fillColor=#1FFF44;" parent="1" vertex="1">
          <mxGeometry x="727.5" y="440" width="40" height="30" as="geometry" />
        </mxCell>
        <mxCell id="C8oowRiF8RS0OOutvdNS-120" value="" style="endArrow=none;html=1;strokeColor=#000000;entryX=0.25;entryY=0;entryDx=0;entryDy=0;exitX=0.25;exitY=1;exitDx=0;exitDy=0;" parent="1" edge="1">
          <mxGeometry width="50" height="50" relative="1" as="geometry">
            <mxPoint x="740" y="470" as="sourcePoint" />
            <mxPoint x="740" y="440" as="targetPoint" />
          </mxGeometry>
        </mxCell>
        <mxCell id="C8oowRiF8RS0OOutvdNS-121" value="" style="endArrow=none;html=1;strokeColor=#000000;entryX=0.25;entryY=0;entryDx=0;entryDy=0;exitX=0.25;exitY=1;exitDx=0;exitDy=0;" parent="1" edge="1">
          <mxGeometry width="50" height="50" relative="1" as="geometry">
            <mxPoint x="755" y="470" as="sourcePoint" />
            <mxPoint x="755" y="440" as="targetPoint" />
          </mxGeometry>
        </mxCell>
        <mxCell id="C8oowRiF8RS0OOutvdNS-122" value="z" style="text;html=1;strokeColor=none;fillColor=none;align=center;verticalAlign=middle;whiteSpace=wrap;rounded=0;" parent="1" vertex="1">
          <mxGeometry x="727.5" y="445" width="10" height="20" as="geometry" />
        </mxCell>
        <mxCell id="C8oowRiF8RS0OOutvdNS-123" value="r" style="text;html=1;strokeColor=none;fillColor=none;align=center;verticalAlign=middle;whiteSpace=wrap;rounded=0;" parent="1" vertex="1">
          <mxGeometry x="742.5" y="445" width="10" height="20" as="geometry" />
        </mxCell>
        <mxCell id="C8oowRiF8RS0OOutvdNS-124" value="q" style="text;html=1;strokeColor=none;fillColor=none;align=center;verticalAlign=middle;whiteSpace=wrap;rounded=0;" parent="1" vertex="1">
          <mxGeometry x="757.5" y="445" width="10" height="20" as="geometry" />
        </mxCell>
        <mxCell id="C8oowRiF8RS0OOutvdNS-125" value="&lt;meta charset=&quot;utf-8&quot;&gt;&lt;meta&gt;&lt;span style=&quot;color: rgb(0, 0, 0); font-family: Helvetica; font-size: 12px; font-style: normal; font-variant-ligatures: no-common-ligatures; font-variant-caps: normal; font-weight: 400; letter-spacing: normal; orphans: 2; text-indent: 0px; text-transform: none; widows: 2; word-spacing: 0px; -webkit-text-stroke-width: 0px; background-color: rgb(248, 249, 250); text-decoration-thickness: initial; text-decoration-style: initial; text-decoration-color: initial; float: none; display: inline !important;&quot;&gt;128&lt;/span&gt;" style="text;whiteSpace=wrap;html=1;align=center;" parent="1" vertex="1">
          <mxGeometry x="528.25" y="480" width="23" height="30" as="geometry" />
        </mxCell>
        <mxCell id="C8oowRiF8RS0OOutvdNS-126" value="&lt;meta charset=&quot;utf-8&quot;&gt;&lt;meta&gt;&lt;span style=&quot;color: rgb(0, 0, 0); font-family: Helvetica; font-size: 12px; font-style: normal; font-variant-ligatures: no-common-ligatures; font-variant-caps: normal; font-weight: 400; letter-spacing: normal; orphans: 2; text-indent: 0px; text-transform: none; widows: 2; word-spacing: 0px; -webkit-text-stroke-width: 0px; background-color: rgb(248, 249, 250); text-decoration-thickness: initial; text-decoration-style: initial; text-decoration-color: initial; float: none; display: inline !important;&quot;&gt;128&lt;/span&gt;" style="text;whiteSpace=wrap;html=1;align=center;" parent="1" vertex="1">
          <mxGeometry x="550" y="480" width="23" height="30" as="geometry" />
        </mxCell>
        <mxCell id="C8oowRiF8RS0OOutvdNS-127" value="&lt;meta charset=&quot;utf-8&quot;&gt;&lt;meta&gt;&lt;span style=&quot;color: rgb(0, 0, 0); font-family: Helvetica; font-size: 12px; font-style: normal; font-variant-ligatures: no-common-ligatures; font-variant-caps: normal; font-weight: 400; letter-spacing: normal; orphans: 2; text-indent: 0px; text-transform: none; widows: 2; word-spacing: 0px; -webkit-text-stroke-width: 0px; background-color: rgb(248, 249, 250); text-decoration-thickness: initial; text-decoration-style: initial; text-decoration-color: initial; float: none; display: inline !important;&quot;&gt;128&lt;/span&gt;" style="text;whiteSpace=wrap;html=1;align=center;" parent="1" vertex="1">
          <mxGeometry x="573" y="480" width="23" height="30" as="geometry" />
        </mxCell>
        <mxCell id="C8oowRiF8RS0OOutvdNS-128" value="&lt;meta charset=&quot;utf-8&quot;&gt;&lt;meta&gt;&lt;span style=&quot;color: rgb(0, 0, 0); font-family: Helvetica; font-size: 12px; font-style: normal; font-variant-ligatures: no-common-ligatures; font-variant-caps: normal; font-weight: 400; letter-spacing: normal; orphans: 2; text-indent: 0px; text-transform: none; widows: 2; word-spacing: 0px; -webkit-text-stroke-width: 0px; background-color: rgb(248, 249, 250); text-decoration-thickness: initial; text-decoration-style: initial; text-decoration-color: initial; float: none; display: inline !important;&quot;&gt;128&lt;/span&gt;" style="text;whiteSpace=wrap;html=1;align=center;" parent="1" vertex="1">
          <mxGeometry x="620" y="480" width="23" height="30" as="geometry" />
        </mxCell>
        <mxCell id="C8oowRiF8RS0OOutvdNS-129" value="&lt;meta charset=&quot;utf-8&quot;&gt;&lt;meta&gt;&lt;span style=&quot;color: rgb(0, 0, 0); font-family: Helvetica; font-size: 12px; font-style: normal; font-variant-ligatures: no-common-ligatures; font-variant-caps: normal; font-weight: 400; letter-spacing: normal; orphans: 2; text-indent: 0px; text-transform: none; widows: 2; word-spacing: 0px; -webkit-text-stroke-width: 0px; background-color: rgb(248, 249, 250); text-decoration-thickness: initial; text-decoration-style: initial; text-decoration-color: initial; float: none; display: inline !important;&quot;&gt;128&lt;/span&gt;" style="text;whiteSpace=wrap;html=1;align=center;" parent="1" vertex="1">
          <mxGeometry x="641.75" y="480" width="23" height="30" as="geometry" />
        </mxCell>
        <mxCell id="C8oowRiF8RS0OOutvdNS-130" value="&lt;meta charset=&quot;utf-8&quot;&gt;&lt;meta&gt;&lt;span style=&quot;color: rgb(0, 0, 0); font-family: Helvetica; font-size: 12px; font-style: normal; font-variant-ligatures: no-common-ligatures; font-variant-caps: normal; font-weight: 400; letter-spacing: normal; orphans: 2; text-indent: 0px; text-transform: none; widows: 2; word-spacing: 0px; -webkit-text-stroke-width: 0px; background-color: rgb(248, 249, 250); text-decoration-thickness: initial; text-decoration-style: initial; text-decoration-color: initial; float: none; display: inline !important;&quot;&gt;128&lt;/span&gt;" style="text;whiteSpace=wrap;html=1;align=center;" parent="1" vertex="1">
          <mxGeometry x="664.75" y="480" width="23" height="30" as="geometry" />
        </mxCell>
        <mxCell id="C8oowRiF8RS0OOutvdNS-131" value="&lt;meta charset=&quot;utf-8&quot;&gt;&lt;meta&gt;&lt;span style=&quot;color: rgb(0, 0, 0); font-family: Helvetica; font-size: 12px; font-style: normal; font-variant-ligatures: no-common-ligatures; font-variant-caps: normal; font-weight: 400; letter-spacing: normal; orphans: 2; text-indent: 0px; text-transform: none; widows: 2; word-spacing: 0px; -webkit-text-stroke-width: 0px; background-color: rgb(248, 249, 250); text-decoration-thickness: initial; text-decoration-style: initial; text-decoration-color: initial; float: none; display: inline !important;&quot;&gt;128&lt;/span&gt;" style="text;whiteSpace=wrap;html=1;align=center;" parent="1" vertex="1">
          <mxGeometry x="720" y="480" width="23" height="30" as="geometry" />
        </mxCell>
        <mxCell id="C8oowRiF8RS0OOutvdNS-132" value="&lt;meta charset=&quot;utf-8&quot;&gt;&lt;meta&gt;&lt;span style=&quot;color: rgb(0, 0, 0); font-family: Helvetica; font-size: 12px; font-style: normal; font-variant-ligatures: no-common-ligatures; font-variant-caps: normal; font-weight: 400; letter-spacing: normal; orphans: 2; text-indent: 0px; text-transform: none; widows: 2; word-spacing: 0px; -webkit-text-stroke-width: 0px; background-color: rgb(248, 249, 250); text-decoration-thickness: initial; text-decoration-style: initial; text-decoration-color: initial; float: none; display: inline !important;&quot;&gt;128&lt;/span&gt;" style="text;whiteSpace=wrap;html=1;align=center;" parent="1" vertex="1">
          <mxGeometry x="741.75" y="480" width="23" height="30" as="geometry" />
        </mxCell>
        <mxCell id="C8oowRiF8RS0OOutvdNS-133" value="&lt;meta charset=&quot;utf-8&quot;&gt;&lt;meta&gt;&lt;span style=&quot;color: rgb(0, 0, 0); font-family: Helvetica; font-size: 12px; font-style: normal; font-variant-ligatures: no-common-ligatures; font-variant-caps: normal; font-weight: 400; letter-spacing: normal; orphans: 2; text-indent: 0px; text-transform: none; widows: 2; word-spacing: 0px; -webkit-text-stroke-width: 0px; background-color: rgb(248, 249, 250); text-decoration-thickness: initial; text-decoration-style: initial; text-decoration-color: initial; float: none; display: inline !important;&quot;&gt;128&lt;/span&gt;" style="text;whiteSpace=wrap;html=1;align=center;" parent="1" vertex="1">
          <mxGeometry x="764.75" y="480" width="23" height="30" as="geometry" />
        </mxCell>
        <mxCell id="C8oowRiF8RS0OOutvdNS-140" value="H/8*W/8&lt;br /&gt;128" style="text;html=1;strokeColor=none;fillColor=none;align=center;verticalAlign=middle;whiteSpace=wrap;rounded=0;" parent="1" vertex="1">
          <mxGeometry x="154.69" y="510" width="40" height="20" as="geometry" />
        </mxCell>
        <mxCell id="C8oowRiF8RS0OOutvdNS-144" value="&lt;meta&gt;&lt;pre style=&quot;background-color:#ffffff;color:#080808;font-family:&#39;JetBrains Mono&#39;,monospace;font-size:9.8pt;&quot;&gt;corr.reshape(B, H, W1, &lt;span style=&quot;color:#1750eb;&quot;&gt;1&lt;/span&gt;, W2)&lt;/pre&gt;" style="text;whiteSpace=wrap;html=1;align=center;" parent="1" vertex="1">
          <mxGeometry x="-100" y="780" width="250" height="50" as="geometry" />
        </mxCell>
        <mxCell id="QkjXLqAYZW5GeYN9Ja4e-1" value="&lt;pre style=&quot;color: rgb(8 , 8 , 8) ; font-family: &amp;#34;jetbrains mono&amp;#34; , monospace ; font-size: 9.8pt&quot;&gt;lookup correlation&lt;/pre&gt;" style="shape=parallelogram;perimeter=parallelogramPerimeter;whiteSpace=wrap;html=1;rotation=0;flipH=1;horizontal=1;direction=north;size=0;" vertex="1" parent="1">
          <mxGeometry x="423.44" y="730" width="150.31" height="20" as="geometry" />
        </mxCell>
        <mxCell id="QkjXLqAYZW5GeYN9Ja4e-2" value="corr pyramid" style="ellipse;whiteSpace=wrap;html=1;" vertex="1" parent="1">
          <mxGeometry x="158.44" y="790" width="123.13" height="30" as="geometry" />
        </mxCell>
      </root>
    </mxGraphModel>
  </diagram>
</mxfile>
